G75*
G70*
%OFA0B0*%
%FSLAX24Y24*%
%IPPOS*%
%LPD*%
%AMOC8*
5,1,8,0,0,1.08239X$1,22.5*
%
%ADD10C,0.0000*%
%ADD11C,0.1221*%
%ADD12C,0.0237*%
%ADD13R,0.0516X0.0516*%
%ADD14C,0.0516*%
%ADD15R,0.0690X0.0512*%
D10*
X001805Y001674D02*
X001769Y001623D01*
X001737Y001570D01*
X001708Y001515D01*
X001682Y001459D01*
X001660Y001400D01*
X001642Y001341D01*
X001628Y001280D01*
X001617Y001219D01*
X001611Y001157D01*
X001608Y001095D01*
X001609Y001032D01*
X001615Y000970D01*
X001624Y000909D01*
X001637Y000848D01*
X001654Y000788D01*
X001674Y000729D01*
X001698Y000672D01*
X001726Y000616D01*
X001758Y000563D01*
X001792Y000511D01*
X001830Y000461D01*
X001871Y000414D01*
X001915Y000370D01*
X001961Y000329D01*
X002010Y000290D01*
X002062Y000255D01*
X002115Y000223D01*
X002170Y000195D01*
X002227Y000170D01*
X002286Y000149D01*
X002346Y000131D01*
X002406Y000118D01*
X002468Y000108D01*
X002530Y000102D01*
X002592Y000100D01*
X002654Y000102D01*
X002716Y000108D01*
X002778Y000118D01*
X002838Y000131D01*
X002898Y000149D01*
X002957Y000170D01*
X003014Y000195D01*
X003069Y000223D01*
X003122Y000255D01*
X003174Y000290D01*
X003223Y000329D01*
X003269Y000370D01*
X003313Y000414D01*
X003354Y000461D01*
X003392Y000511D01*
X003426Y000563D01*
X003458Y000616D01*
X003486Y000672D01*
X003510Y000729D01*
X003530Y000788D01*
X003547Y000848D01*
X003560Y000909D01*
X003569Y000970D01*
X003575Y001032D01*
X003576Y001095D01*
X003573Y001157D01*
X003567Y001219D01*
X003556Y001280D01*
X003542Y001341D01*
X003524Y001400D01*
X003502Y001459D01*
X003476Y001515D01*
X003447Y001570D01*
X003415Y001623D01*
X003379Y001674D01*
X003379Y001675D02*
X004684Y002980D01*
X004914Y003536D02*
X004914Y005612D01*
X004915Y005612D02*
X004917Y005652D01*
X004922Y005692D01*
X004932Y005730D01*
X004944Y005768D01*
X004960Y005805D01*
X004980Y005840D01*
X005002Y005873D01*
X005028Y005904D01*
X005056Y005932D01*
X005087Y005958D01*
X005120Y005980D01*
X005155Y006000D01*
X005192Y006016D01*
X005230Y006028D01*
X005268Y006038D01*
X005308Y006043D01*
X005348Y006045D01*
X005388Y006043D01*
X005428Y006038D01*
X005466Y006028D01*
X005504Y006016D01*
X005541Y006000D01*
X005576Y005980D01*
X005609Y005958D01*
X005640Y005932D01*
X005668Y005904D01*
X005694Y005873D01*
X005716Y005840D01*
X005736Y005805D01*
X005752Y005768D01*
X005764Y005730D01*
X005774Y005692D01*
X005779Y005652D01*
X005781Y005612D01*
X005781Y003536D01*
X005783Y003485D01*
X005788Y003433D01*
X005796Y003382D01*
X005808Y003332D01*
X005823Y003283D01*
X005841Y003235D01*
X005862Y003188D01*
X005886Y003142D01*
X005914Y003099D01*
X005944Y003057D01*
X005976Y003017D01*
X006012Y002980D01*
X006011Y002980D02*
X007316Y001675D01*
X007316Y001674D02*
X007280Y001623D01*
X007248Y001570D01*
X007219Y001515D01*
X007193Y001459D01*
X007171Y001400D01*
X007153Y001341D01*
X007139Y001280D01*
X007128Y001219D01*
X007122Y001157D01*
X007119Y001095D01*
X007120Y001032D01*
X007126Y000970D01*
X007135Y000909D01*
X007148Y000848D01*
X007165Y000788D01*
X007185Y000729D01*
X007209Y000672D01*
X007237Y000616D01*
X007269Y000563D01*
X007303Y000511D01*
X007341Y000461D01*
X007382Y000414D01*
X007426Y000370D01*
X007472Y000329D01*
X007521Y000290D01*
X007573Y000255D01*
X007626Y000223D01*
X007681Y000195D01*
X007738Y000170D01*
X007797Y000149D01*
X007857Y000131D01*
X007917Y000118D01*
X007979Y000108D01*
X008041Y000102D01*
X008103Y000100D01*
X008165Y000102D01*
X008227Y000108D01*
X008289Y000118D01*
X008349Y000131D01*
X008409Y000149D01*
X008468Y000170D01*
X008525Y000195D01*
X008580Y000223D01*
X008633Y000255D01*
X008685Y000290D01*
X008734Y000329D01*
X008780Y000370D01*
X008824Y000414D01*
X008865Y000461D01*
X008903Y000511D01*
X008937Y000563D01*
X008969Y000616D01*
X008997Y000672D01*
X009021Y000729D01*
X009041Y000788D01*
X009058Y000848D01*
X009071Y000909D01*
X009080Y000970D01*
X009086Y001032D01*
X009087Y001095D01*
X009084Y001157D01*
X009078Y001219D01*
X009067Y001280D01*
X009053Y001341D01*
X009035Y001400D01*
X009013Y001459D01*
X008987Y001515D01*
X008958Y001570D01*
X008926Y001623D01*
X008890Y001674D01*
X008891Y001675D02*
X010196Y002980D01*
X010426Y003536D02*
X010426Y005612D01*
X010428Y005652D01*
X010433Y005692D01*
X010443Y005730D01*
X010455Y005768D01*
X010471Y005805D01*
X010491Y005840D01*
X010513Y005873D01*
X010539Y005904D01*
X010567Y005932D01*
X010598Y005958D01*
X010631Y005980D01*
X010666Y006000D01*
X010703Y006016D01*
X010741Y006028D01*
X010779Y006038D01*
X010819Y006043D01*
X010859Y006045D01*
X010899Y006043D01*
X010939Y006038D01*
X010977Y006028D01*
X011015Y006016D01*
X011052Y006000D01*
X011087Y005980D01*
X011120Y005958D01*
X011151Y005932D01*
X011179Y005904D01*
X011205Y005873D01*
X011227Y005840D01*
X011247Y005805D01*
X011263Y005768D01*
X011275Y005730D01*
X011285Y005692D01*
X011290Y005652D01*
X011292Y005612D01*
X011292Y003536D01*
X011293Y003536D02*
X011295Y003485D01*
X011300Y003433D01*
X011308Y003382D01*
X011320Y003332D01*
X011335Y003283D01*
X011353Y003235D01*
X011374Y003188D01*
X011398Y003142D01*
X011426Y003099D01*
X011456Y003057D01*
X011488Y003017D01*
X011524Y002980D01*
X011523Y002980D02*
X012828Y001675D01*
X012828Y001674D02*
X012792Y001623D01*
X012760Y001570D01*
X012731Y001515D01*
X012705Y001459D01*
X012683Y001400D01*
X012665Y001341D01*
X012651Y001280D01*
X012640Y001219D01*
X012634Y001157D01*
X012631Y001095D01*
X012632Y001032D01*
X012638Y000970D01*
X012647Y000909D01*
X012660Y000848D01*
X012677Y000788D01*
X012697Y000729D01*
X012721Y000672D01*
X012749Y000616D01*
X012781Y000563D01*
X012815Y000511D01*
X012853Y000461D01*
X012894Y000414D01*
X012938Y000370D01*
X012984Y000329D01*
X013033Y000290D01*
X013085Y000255D01*
X013138Y000223D01*
X013193Y000195D01*
X013250Y000170D01*
X013309Y000149D01*
X013369Y000131D01*
X013429Y000118D01*
X013491Y000108D01*
X013553Y000102D01*
X013615Y000100D01*
X013677Y000102D01*
X013739Y000108D01*
X013801Y000118D01*
X013861Y000131D01*
X013921Y000149D01*
X013980Y000170D01*
X014037Y000195D01*
X014092Y000223D01*
X014145Y000255D01*
X014197Y000290D01*
X014246Y000329D01*
X014292Y000370D01*
X014336Y000414D01*
X014377Y000461D01*
X014415Y000511D01*
X014449Y000563D01*
X014481Y000616D01*
X014509Y000672D01*
X014533Y000729D01*
X014553Y000788D01*
X014570Y000848D01*
X014583Y000909D01*
X014592Y000970D01*
X014598Y001032D01*
X014599Y001095D01*
X014596Y001157D01*
X014590Y001219D01*
X014579Y001280D01*
X014565Y001341D01*
X014547Y001400D01*
X014525Y001459D01*
X014499Y001515D01*
X014470Y001570D01*
X014438Y001623D01*
X014402Y001674D01*
X014403Y001675D02*
X015707Y002980D01*
X015938Y003536D02*
X015938Y005612D01*
X015940Y005652D01*
X015945Y005692D01*
X015955Y005730D01*
X015967Y005768D01*
X015983Y005805D01*
X016003Y005840D01*
X016025Y005873D01*
X016051Y005904D01*
X016079Y005932D01*
X016110Y005958D01*
X016143Y005980D01*
X016178Y006000D01*
X016215Y006016D01*
X016253Y006028D01*
X016291Y006038D01*
X016331Y006043D01*
X016371Y006045D01*
X016411Y006043D01*
X016451Y006038D01*
X016489Y006028D01*
X016527Y006016D01*
X016564Y006000D01*
X016599Y005980D01*
X016632Y005958D01*
X016663Y005932D01*
X016691Y005904D01*
X016717Y005873D01*
X016739Y005840D01*
X016759Y005805D01*
X016775Y005768D01*
X016787Y005730D01*
X016797Y005692D01*
X016802Y005652D01*
X016804Y005612D01*
X016804Y003536D01*
X016805Y003536D02*
X016807Y003485D01*
X016812Y003433D01*
X016820Y003382D01*
X016832Y003332D01*
X016847Y003283D01*
X016865Y003235D01*
X016886Y003188D01*
X016910Y003142D01*
X016938Y003099D01*
X016968Y003057D01*
X017000Y003017D01*
X017036Y002980D01*
X017035Y002980D02*
X018340Y001675D01*
X018340Y001674D02*
X018304Y001623D01*
X018272Y001570D01*
X018243Y001515D01*
X018217Y001459D01*
X018195Y001400D01*
X018177Y001341D01*
X018163Y001280D01*
X018152Y001219D01*
X018146Y001157D01*
X018143Y001095D01*
X018144Y001032D01*
X018150Y000970D01*
X018159Y000909D01*
X018172Y000848D01*
X018189Y000788D01*
X018209Y000729D01*
X018233Y000672D01*
X018261Y000616D01*
X018293Y000563D01*
X018327Y000511D01*
X018365Y000461D01*
X018406Y000414D01*
X018450Y000370D01*
X018496Y000329D01*
X018545Y000290D01*
X018597Y000255D01*
X018650Y000223D01*
X018705Y000195D01*
X018762Y000170D01*
X018821Y000149D01*
X018881Y000131D01*
X018941Y000118D01*
X019003Y000108D01*
X019065Y000102D01*
X019127Y000100D01*
X019189Y000102D01*
X019251Y000108D01*
X019313Y000118D01*
X019373Y000131D01*
X019433Y000149D01*
X019492Y000170D01*
X019549Y000195D01*
X019604Y000223D01*
X019657Y000255D01*
X019709Y000290D01*
X019758Y000329D01*
X019804Y000370D01*
X019848Y000414D01*
X019889Y000461D01*
X019927Y000511D01*
X019961Y000563D01*
X019993Y000616D01*
X020021Y000672D01*
X020045Y000729D01*
X020065Y000788D01*
X020082Y000848D01*
X020095Y000909D01*
X020104Y000970D01*
X020110Y001032D01*
X020111Y001095D01*
X020108Y001157D01*
X020102Y001219D01*
X020091Y001280D01*
X020077Y001341D01*
X020059Y001400D01*
X020037Y001459D01*
X020011Y001515D01*
X019982Y001570D01*
X019950Y001623D01*
X019914Y001674D01*
X019914Y001675D02*
X021219Y002980D01*
X021450Y003536D02*
X021450Y005612D01*
X021452Y005652D01*
X021457Y005692D01*
X021467Y005730D01*
X021479Y005768D01*
X021495Y005805D01*
X021515Y005840D01*
X021537Y005873D01*
X021563Y005904D01*
X021591Y005932D01*
X021622Y005958D01*
X021655Y005980D01*
X021690Y006000D01*
X021727Y006016D01*
X021765Y006028D01*
X021803Y006038D01*
X021843Y006043D01*
X021883Y006045D01*
X021923Y006043D01*
X021963Y006038D01*
X022001Y006028D01*
X022039Y006016D01*
X022076Y006000D01*
X022111Y005980D01*
X022144Y005958D01*
X022175Y005932D01*
X022203Y005904D01*
X022229Y005873D01*
X022251Y005840D01*
X022271Y005805D01*
X022287Y005768D01*
X022299Y005730D01*
X022309Y005692D01*
X022314Y005652D01*
X022316Y005612D01*
X022316Y003536D01*
X022318Y003485D01*
X022323Y003433D01*
X022331Y003382D01*
X022343Y003332D01*
X022358Y003283D01*
X022376Y003235D01*
X022397Y003188D01*
X022421Y003142D01*
X022449Y003099D01*
X022479Y003057D01*
X022511Y003017D01*
X022547Y002980D01*
X023851Y001675D01*
X023852Y001674D02*
X023816Y001623D01*
X023784Y001570D01*
X023755Y001515D01*
X023729Y001459D01*
X023707Y001400D01*
X023689Y001341D01*
X023675Y001280D01*
X023664Y001219D01*
X023658Y001157D01*
X023655Y001095D01*
X023656Y001032D01*
X023662Y000970D01*
X023671Y000909D01*
X023684Y000848D01*
X023701Y000788D01*
X023721Y000729D01*
X023745Y000672D01*
X023773Y000616D01*
X023805Y000563D01*
X023839Y000511D01*
X023877Y000461D01*
X023918Y000414D01*
X023962Y000370D01*
X024008Y000329D01*
X024057Y000290D01*
X024109Y000255D01*
X024162Y000223D01*
X024217Y000195D01*
X024274Y000170D01*
X024333Y000149D01*
X024393Y000131D01*
X024453Y000118D01*
X024515Y000108D01*
X024577Y000102D01*
X024639Y000100D01*
X024701Y000102D01*
X024763Y000108D01*
X024825Y000118D01*
X024885Y000131D01*
X024945Y000149D01*
X025004Y000170D01*
X025061Y000195D01*
X025116Y000223D01*
X025169Y000255D01*
X025221Y000290D01*
X025270Y000329D01*
X025316Y000370D01*
X025360Y000414D01*
X025401Y000461D01*
X025439Y000511D01*
X025473Y000563D01*
X025505Y000616D01*
X025533Y000672D01*
X025557Y000729D01*
X025577Y000788D01*
X025594Y000848D01*
X025607Y000909D01*
X025616Y000970D01*
X025622Y001032D01*
X025623Y001095D01*
X025620Y001157D01*
X025614Y001219D01*
X025603Y001280D01*
X025589Y001341D01*
X025571Y001400D01*
X025549Y001459D01*
X025523Y001515D01*
X025494Y001570D01*
X025462Y001623D01*
X025426Y001674D01*
X025426Y001675D02*
X026731Y002980D01*
X026962Y003536D02*
X026962Y005612D01*
X026964Y005652D01*
X026969Y005692D01*
X026979Y005730D01*
X026991Y005768D01*
X027007Y005805D01*
X027027Y005840D01*
X027049Y005873D01*
X027075Y005904D01*
X027103Y005932D01*
X027134Y005958D01*
X027167Y005980D01*
X027202Y006000D01*
X027239Y006016D01*
X027277Y006028D01*
X027315Y006038D01*
X027355Y006043D01*
X027395Y006045D01*
X027435Y006043D01*
X027475Y006038D01*
X027513Y006028D01*
X027551Y006016D01*
X027588Y006000D01*
X027623Y005980D01*
X027656Y005958D01*
X027687Y005932D01*
X027715Y005904D01*
X027741Y005873D01*
X027763Y005840D01*
X027783Y005805D01*
X027799Y005768D01*
X027811Y005730D01*
X027821Y005692D01*
X027826Y005652D01*
X027828Y005612D01*
X027828Y003536D01*
X027830Y003485D01*
X027835Y003433D01*
X027843Y003382D01*
X027855Y003332D01*
X027870Y003283D01*
X027888Y003235D01*
X027909Y003188D01*
X027933Y003142D01*
X027961Y003099D01*
X027991Y003057D01*
X028023Y003017D01*
X028059Y002980D01*
X028058Y002980D02*
X029363Y001675D01*
X029364Y001674D02*
X029328Y001623D01*
X029296Y001570D01*
X029267Y001515D01*
X029241Y001459D01*
X029219Y001400D01*
X029201Y001341D01*
X029187Y001280D01*
X029176Y001219D01*
X029170Y001157D01*
X029167Y001095D01*
X029168Y001032D01*
X029174Y000970D01*
X029183Y000909D01*
X029196Y000848D01*
X029213Y000788D01*
X029233Y000729D01*
X029257Y000672D01*
X029285Y000616D01*
X029317Y000563D01*
X029351Y000511D01*
X029389Y000461D01*
X029430Y000414D01*
X029474Y000370D01*
X029520Y000329D01*
X029569Y000290D01*
X029621Y000255D01*
X029674Y000223D01*
X029729Y000195D01*
X029786Y000170D01*
X029845Y000149D01*
X029905Y000131D01*
X029965Y000118D01*
X030027Y000108D01*
X030089Y000102D01*
X030151Y000100D01*
X030213Y000102D01*
X030275Y000108D01*
X030337Y000118D01*
X030397Y000131D01*
X030457Y000149D01*
X030516Y000170D01*
X030573Y000195D01*
X030628Y000223D01*
X030681Y000255D01*
X030733Y000290D01*
X030782Y000329D01*
X030828Y000370D01*
X030872Y000414D01*
X030913Y000461D01*
X030951Y000511D01*
X030985Y000563D01*
X031017Y000616D01*
X031045Y000672D01*
X031069Y000729D01*
X031089Y000788D01*
X031106Y000848D01*
X031119Y000909D01*
X031128Y000970D01*
X031134Y001032D01*
X031135Y001095D01*
X031132Y001157D01*
X031126Y001219D01*
X031115Y001280D01*
X031101Y001341D01*
X031083Y001400D01*
X031061Y001459D01*
X031035Y001515D01*
X031006Y001570D01*
X030974Y001623D01*
X030938Y001674D01*
X030938Y001675D02*
X032243Y002980D01*
X032474Y003536D02*
X032474Y005612D01*
X032476Y005652D01*
X032481Y005692D01*
X032491Y005730D01*
X032503Y005768D01*
X032519Y005805D01*
X032539Y005840D01*
X032561Y005873D01*
X032587Y005904D01*
X032615Y005932D01*
X032646Y005958D01*
X032679Y005980D01*
X032714Y006000D01*
X032751Y006016D01*
X032789Y006028D01*
X032827Y006038D01*
X032867Y006043D01*
X032907Y006045D01*
X032947Y006043D01*
X032987Y006038D01*
X033025Y006028D01*
X033063Y006016D01*
X033100Y006000D01*
X033135Y005980D01*
X033168Y005958D01*
X033199Y005932D01*
X033227Y005904D01*
X033253Y005873D01*
X033275Y005840D01*
X033295Y005805D01*
X033311Y005768D01*
X033323Y005730D01*
X033333Y005692D01*
X033338Y005652D01*
X033340Y005612D01*
X033340Y003536D01*
X033342Y003485D01*
X033347Y003433D01*
X033355Y003382D01*
X033367Y003332D01*
X033382Y003283D01*
X033400Y003235D01*
X033421Y003188D01*
X033445Y003142D01*
X033473Y003099D01*
X033503Y003057D01*
X033535Y003017D01*
X033571Y002980D01*
X033570Y002980D02*
X034875Y001675D01*
X034875Y001674D02*
X034839Y001623D01*
X034807Y001570D01*
X034778Y001515D01*
X034752Y001459D01*
X034730Y001400D01*
X034712Y001341D01*
X034698Y001280D01*
X034687Y001219D01*
X034681Y001157D01*
X034678Y001095D01*
X034679Y001032D01*
X034685Y000970D01*
X034694Y000909D01*
X034707Y000848D01*
X034724Y000788D01*
X034744Y000729D01*
X034768Y000672D01*
X034796Y000616D01*
X034828Y000563D01*
X034862Y000511D01*
X034900Y000461D01*
X034941Y000414D01*
X034985Y000370D01*
X035031Y000329D01*
X035080Y000290D01*
X035132Y000255D01*
X035185Y000223D01*
X035240Y000195D01*
X035297Y000170D01*
X035356Y000149D01*
X035416Y000131D01*
X035476Y000118D01*
X035538Y000108D01*
X035600Y000102D01*
X035662Y000100D01*
X035724Y000102D01*
X035786Y000108D01*
X035848Y000118D01*
X035908Y000131D01*
X035968Y000149D01*
X036027Y000170D01*
X036084Y000195D01*
X036139Y000223D01*
X036192Y000255D01*
X036244Y000290D01*
X036293Y000329D01*
X036339Y000370D01*
X036383Y000414D01*
X036424Y000461D01*
X036462Y000511D01*
X036496Y000563D01*
X036528Y000616D01*
X036556Y000672D01*
X036580Y000729D01*
X036600Y000788D01*
X036617Y000848D01*
X036630Y000909D01*
X036639Y000970D01*
X036645Y001032D01*
X036646Y001095D01*
X036643Y001157D01*
X036637Y001219D01*
X036626Y001280D01*
X036612Y001341D01*
X036594Y001400D01*
X036572Y001459D01*
X036546Y001515D01*
X036517Y001570D01*
X036485Y001623D01*
X036449Y001674D01*
X036450Y001675D02*
X037755Y002980D01*
X037985Y003536D02*
X037985Y019892D01*
X037983Y019943D01*
X037978Y019995D01*
X037970Y020046D01*
X037958Y020096D01*
X037943Y020145D01*
X037925Y020193D01*
X037904Y020240D01*
X037880Y020286D01*
X037852Y020329D01*
X037822Y020371D01*
X037790Y020411D01*
X037754Y020448D01*
X037755Y020449D02*
X036450Y021754D01*
X036449Y021754D02*
X036485Y021805D01*
X036517Y021858D01*
X036546Y021913D01*
X036572Y021969D01*
X036594Y022028D01*
X036612Y022087D01*
X036626Y022148D01*
X036637Y022209D01*
X036643Y022271D01*
X036646Y022333D01*
X036645Y022396D01*
X036639Y022458D01*
X036630Y022519D01*
X036617Y022580D01*
X036600Y022640D01*
X036580Y022699D01*
X036556Y022756D01*
X036528Y022812D01*
X036496Y022865D01*
X036462Y022917D01*
X036424Y022967D01*
X036383Y023014D01*
X036339Y023058D01*
X036293Y023099D01*
X036244Y023138D01*
X036192Y023173D01*
X036139Y023205D01*
X036084Y023233D01*
X036027Y023258D01*
X035968Y023279D01*
X035908Y023297D01*
X035848Y023310D01*
X035786Y023320D01*
X035724Y023326D01*
X035662Y023328D01*
X035600Y023326D01*
X035538Y023320D01*
X035476Y023310D01*
X035416Y023297D01*
X035356Y023279D01*
X035297Y023258D01*
X035240Y023233D01*
X035185Y023205D01*
X035132Y023173D01*
X035080Y023138D01*
X035031Y023099D01*
X034985Y023058D01*
X034941Y023014D01*
X034900Y022967D01*
X034862Y022917D01*
X034828Y022865D01*
X034796Y022812D01*
X034768Y022756D01*
X034744Y022699D01*
X034724Y022640D01*
X034707Y022580D01*
X034694Y022519D01*
X034685Y022458D01*
X034679Y022396D01*
X034678Y022333D01*
X034681Y022271D01*
X034687Y022209D01*
X034698Y022148D01*
X034712Y022087D01*
X034730Y022028D01*
X034752Y021969D01*
X034778Y021913D01*
X034807Y021858D01*
X034839Y021805D01*
X034875Y021754D01*
X033570Y020449D01*
X033340Y019892D02*
X033340Y017817D01*
X033338Y017777D01*
X033333Y017737D01*
X033323Y017699D01*
X033311Y017661D01*
X033295Y017624D01*
X033275Y017589D01*
X033253Y017556D01*
X033227Y017525D01*
X033199Y017497D01*
X033168Y017471D01*
X033135Y017449D01*
X033100Y017429D01*
X033063Y017413D01*
X033025Y017401D01*
X032987Y017391D01*
X032947Y017386D01*
X032907Y017384D01*
X032867Y017386D01*
X032827Y017391D01*
X032789Y017401D01*
X032751Y017413D01*
X032714Y017429D01*
X032679Y017449D01*
X032646Y017471D01*
X032615Y017497D01*
X032587Y017525D01*
X032561Y017556D01*
X032539Y017589D01*
X032519Y017624D01*
X032503Y017661D01*
X032491Y017699D01*
X032481Y017737D01*
X032476Y017777D01*
X032474Y017817D01*
X032474Y019892D01*
X032473Y019892D02*
X032471Y019943D01*
X032466Y019995D01*
X032458Y020046D01*
X032446Y020096D01*
X032431Y020145D01*
X032413Y020193D01*
X032392Y020240D01*
X032368Y020286D01*
X032340Y020329D01*
X032310Y020371D01*
X032278Y020411D01*
X032242Y020448D01*
X032243Y020449D02*
X030938Y021754D01*
X030974Y021805D01*
X031006Y021858D01*
X031035Y021913D01*
X031061Y021969D01*
X031083Y022028D01*
X031101Y022087D01*
X031115Y022148D01*
X031126Y022209D01*
X031132Y022271D01*
X031135Y022333D01*
X031134Y022396D01*
X031128Y022458D01*
X031119Y022519D01*
X031106Y022580D01*
X031089Y022640D01*
X031069Y022699D01*
X031045Y022756D01*
X031017Y022812D01*
X030985Y022865D01*
X030951Y022917D01*
X030913Y022967D01*
X030872Y023014D01*
X030828Y023058D01*
X030782Y023099D01*
X030733Y023138D01*
X030681Y023173D01*
X030628Y023205D01*
X030573Y023233D01*
X030516Y023258D01*
X030457Y023279D01*
X030397Y023297D01*
X030337Y023310D01*
X030275Y023320D01*
X030213Y023326D01*
X030151Y023328D01*
X030089Y023326D01*
X030027Y023320D01*
X029965Y023310D01*
X029905Y023297D01*
X029845Y023279D01*
X029786Y023258D01*
X029729Y023233D01*
X029674Y023205D01*
X029621Y023173D01*
X029569Y023138D01*
X029520Y023099D01*
X029474Y023058D01*
X029430Y023014D01*
X029389Y022967D01*
X029351Y022917D01*
X029317Y022865D01*
X029285Y022812D01*
X029257Y022756D01*
X029233Y022699D01*
X029213Y022640D01*
X029196Y022580D01*
X029183Y022519D01*
X029174Y022458D01*
X029168Y022396D01*
X029167Y022333D01*
X029170Y022271D01*
X029176Y022209D01*
X029187Y022148D01*
X029201Y022087D01*
X029219Y022028D01*
X029241Y021969D01*
X029267Y021913D01*
X029296Y021858D01*
X029328Y021805D01*
X029364Y021754D01*
X029363Y021754D02*
X028058Y020449D01*
X027828Y019892D02*
X027828Y017817D01*
X027826Y017777D01*
X027821Y017737D01*
X027811Y017699D01*
X027799Y017661D01*
X027783Y017624D01*
X027763Y017589D01*
X027741Y017556D01*
X027715Y017525D01*
X027687Y017497D01*
X027656Y017471D01*
X027623Y017449D01*
X027588Y017429D01*
X027551Y017413D01*
X027513Y017401D01*
X027475Y017391D01*
X027435Y017386D01*
X027395Y017384D01*
X027355Y017386D01*
X027315Y017391D01*
X027277Y017401D01*
X027239Y017413D01*
X027202Y017429D01*
X027167Y017449D01*
X027134Y017471D01*
X027103Y017497D01*
X027075Y017525D01*
X027049Y017556D01*
X027027Y017589D01*
X027007Y017624D01*
X026991Y017661D01*
X026979Y017699D01*
X026969Y017737D01*
X026964Y017777D01*
X026962Y017817D01*
X026962Y019892D01*
X026961Y019892D02*
X026959Y019943D01*
X026954Y019995D01*
X026946Y020046D01*
X026934Y020096D01*
X026919Y020145D01*
X026901Y020193D01*
X026880Y020240D01*
X026856Y020286D01*
X026828Y020329D01*
X026798Y020371D01*
X026766Y020411D01*
X026730Y020448D01*
X026731Y020449D02*
X025426Y021754D01*
X025462Y021805D01*
X025494Y021858D01*
X025523Y021913D01*
X025549Y021969D01*
X025571Y022028D01*
X025589Y022087D01*
X025603Y022148D01*
X025614Y022209D01*
X025620Y022271D01*
X025623Y022333D01*
X025622Y022396D01*
X025616Y022458D01*
X025607Y022519D01*
X025594Y022580D01*
X025577Y022640D01*
X025557Y022699D01*
X025533Y022756D01*
X025505Y022812D01*
X025473Y022865D01*
X025439Y022917D01*
X025401Y022967D01*
X025360Y023014D01*
X025316Y023058D01*
X025270Y023099D01*
X025221Y023138D01*
X025169Y023173D01*
X025116Y023205D01*
X025061Y023233D01*
X025004Y023258D01*
X024945Y023279D01*
X024885Y023297D01*
X024825Y023310D01*
X024763Y023320D01*
X024701Y023326D01*
X024639Y023328D01*
X024577Y023326D01*
X024515Y023320D01*
X024453Y023310D01*
X024393Y023297D01*
X024333Y023279D01*
X024274Y023258D01*
X024217Y023233D01*
X024162Y023205D01*
X024109Y023173D01*
X024057Y023138D01*
X024008Y023099D01*
X023962Y023058D01*
X023918Y023014D01*
X023877Y022967D01*
X023839Y022917D01*
X023805Y022865D01*
X023773Y022812D01*
X023745Y022756D01*
X023721Y022699D01*
X023701Y022640D01*
X023684Y022580D01*
X023671Y022519D01*
X023662Y022458D01*
X023656Y022396D01*
X023655Y022333D01*
X023658Y022271D01*
X023664Y022209D01*
X023675Y022148D01*
X023689Y022087D01*
X023707Y022028D01*
X023729Y021969D01*
X023755Y021913D01*
X023784Y021858D01*
X023816Y021805D01*
X023852Y021754D01*
X023851Y021754D02*
X022547Y020449D01*
X022316Y019892D02*
X022316Y017817D01*
X022314Y017777D01*
X022309Y017737D01*
X022299Y017699D01*
X022287Y017661D01*
X022271Y017624D01*
X022251Y017589D01*
X022229Y017556D01*
X022203Y017525D01*
X022175Y017497D01*
X022144Y017471D01*
X022111Y017449D01*
X022076Y017429D01*
X022039Y017413D01*
X022001Y017401D01*
X021963Y017391D01*
X021923Y017386D01*
X021883Y017384D01*
X021843Y017386D01*
X021803Y017391D01*
X021765Y017401D01*
X021727Y017413D01*
X021690Y017429D01*
X021655Y017449D01*
X021622Y017471D01*
X021591Y017497D01*
X021563Y017525D01*
X021537Y017556D01*
X021515Y017589D01*
X021495Y017624D01*
X021479Y017661D01*
X021467Y017699D01*
X021457Y017737D01*
X021452Y017777D01*
X021450Y017817D01*
X021450Y019892D01*
X021449Y019892D02*
X021447Y019943D01*
X021442Y019995D01*
X021434Y020046D01*
X021422Y020096D01*
X021407Y020145D01*
X021389Y020193D01*
X021368Y020240D01*
X021344Y020286D01*
X021316Y020329D01*
X021286Y020371D01*
X021254Y020411D01*
X021218Y020448D01*
X021219Y020449D02*
X019914Y021754D01*
X019950Y021805D01*
X019982Y021858D01*
X020011Y021913D01*
X020037Y021969D01*
X020059Y022028D01*
X020077Y022087D01*
X020091Y022148D01*
X020102Y022209D01*
X020108Y022271D01*
X020111Y022333D01*
X020110Y022396D01*
X020104Y022458D01*
X020095Y022519D01*
X020082Y022580D01*
X020065Y022640D01*
X020045Y022699D01*
X020021Y022756D01*
X019993Y022812D01*
X019961Y022865D01*
X019927Y022917D01*
X019889Y022967D01*
X019848Y023014D01*
X019804Y023058D01*
X019758Y023099D01*
X019709Y023138D01*
X019657Y023173D01*
X019604Y023205D01*
X019549Y023233D01*
X019492Y023258D01*
X019433Y023279D01*
X019373Y023297D01*
X019313Y023310D01*
X019251Y023320D01*
X019189Y023326D01*
X019127Y023328D01*
X019065Y023326D01*
X019003Y023320D01*
X018941Y023310D01*
X018881Y023297D01*
X018821Y023279D01*
X018762Y023258D01*
X018705Y023233D01*
X018650Y023205D01*
X018597Y023173D01*
X018545Y023138D01*
X018496Y023099D01*
X018450Y023058D01*
X018406Y023014D01*
X018365Y022967D01*
X018327Y022917D01*
X018293Y022865D01*
X018261Y022812D01*
X018233Y022756D01*
X018209Y022699D01*
X018189Y022640D01*
X018172Y022580D01*
X018159Y022519D01*
X018150Y022458D01*
X018144Y022396D01*
X018143Y022333D01*
X018146Y022271D01*
X018152Y022209D01*
X018163Y022148D01*
X018177Y022087D01*
X018195Y022028D01*
X018217Y021969D01*
X018243Y021913D01*
X018272Y021858D01*
X018304Y021805D01*
X018340Y021754D01*
X017035Y020449D01*
X016804Y019892D02*
X016804Y017817D01*
X016802Y017777D01*
X016797Y017737D01*
X016787Y017699D01*
X016775Y017661D01*
X016759Y017624D01*
X016739Y017589D01*
X016717Y017556D01*
X016691Y017525D01*
X016663Y017497D01*
X016632Y017471D01*
X016599Y017449D01*
X016564Y017429D01*
X016527Y017413D01*
X016489Y017401D01*
X016451Y017391D01*
X016411Y017386D01*
X016371Y017384D01*
X016331Y017386D01*
X016291Y017391D01*
X016253Y017401D01*
X016215Y017413D01*
X016178Y017429D01*
X016143Y017449D01*
X016110Y017471D01*
X016079Y017497D01*
X016051Y017525D01*
X016025Y017556D01*
X016003Y017589D01*
X015983Y017624D01*
X015967Y017661D01*
X015955Y017699D01*
X015945Y017737D01*
X015940Y017777D01*
X015938Y017817D01*
X015938Y019892D01*
X015936Y019943D01*
X015931Y019995D01*
X015923Y020046D01*
X015911Y020096D01*
X015896Y020145D01*
X015878Y020193D01*
X015857Y020240D01*
X015833Y020286D01*
X015805Y020329D01*
X015775Y020371D01*
X015743Y020411D01*
X015707Y020448D01*
X015707Y020449D02*
X014403Y021754D01*
X014402Y021754D02*
X014438Y021805D01*
X014470Y021858D01*
X014499Y021913D01*
X014525Y021969D01*
X014547Y022028D01*
X014565Y022087D01*
X014579Y022148D01*
X014590Y022209D01*
X014596Y022271D01*
X014599Y022333D01*
X014598Y022396D01*
X014592Y022458D01*
X014583Y022519D01*
X014570Y022580D01*
X014553Y022640D01*
X014533Y022699D01*
X014509Y022756D01*
X014481Y022812D01*
X014449Y022865D01*
X014415Y022917D01*
X014377Y022967D01*
X014336Y023014D01*
X014292Y023058D01*
X014246Y023099D01*
X014197Y023138D01*
X014145Y023173D01*
X014092Y023205D01*
X014037Y023233D01*
X013980Y023258D01*
X013921Y023279D01*
X013861Y023297D01*
X013801Y023310D01*
X013739Y023320D01*
X013677Y023326D01*
X013615Y023328D01*
X013553Y023326D01*
X013491Y023320D01*
X013429Y023310D01*
X013369Y023297D01*
X013309Y023279D01*
X013250Y023258D01*
X013193Y023233D01*
X013138Y023205D01*
X013085Y023173D01*
X013033Y023138D01*
X012984Y023099D01*
X012938Y023058D01*
X012894Y023014D01*
X012853Y022967D01*
X012815Y022917D01*
X012781Y022865D01*
X012749Y022812D01*
X012721Y022756D01*
X012697Y022699D01*
X012677Y022640D01*
X012660Y022580D01*
X012647Y022519D01*
X012638Y022458D01*
X012632Y022396D01*
X012631Y022333D01*
X012634Y022271D01*
X012640Y022209D01*
X012651Y022148D01*
X012665Y022087D01*
X012683Y022028D01*
X012705Y021969D01*
X012731Y021913D01*
X012760Y021858D01*
X012792Y021805D01*
X012828Y021754D01*
X011523Y020449D01*
X011292Y019892D02*
X011292Y017915D01*
X011295Y017875D01*
X011294Y017835D01*
X011289Y017795D01*
X011281Y017755D01*
X011269Y017717D01*
X011253Y017680D01*
X011234Y017644D01*
X011212Y017611D01*
X011187Y017579D01*
X011159Y017550D01*
X011129Y017524D01*
X011096Y017500D01*
X011061Y017480D01*
X011025Y017463D01*
X010987Y017449D01*
X010948Y017439D01*
X010908Y017433D01*
X010868Y017430D01*
X010828Y017431D01*
X010788Y017436D01*
X010748Y017444D01*
X010710Y017456D01*
X010673Y017472D01*
X010637Y017491D01*
X010604Y017513D01*
X010572Y017538D01*
X010543Y017566D01*
X010517Y017596D01*
X010493Y017629D01*
X010473Y017664D01*
X010456Y017700D01*
X010442Y017738D01*
X010432Y017777D01*
X010426Y017817D01*
X010426Y019892D01*
X010424Y019943D01*
X010419Y019995D01*
X010411Y020046D01*
X010399Y020096D01*
X010384Y020145D01*
X010366Y020193D01*
X010345Y020240D01*
X010321Y020286D01*
X010293Y020329D01*
X010263Y020371D01*
X010231Y020411D01*
X010195Y020448D01*
X010196Y020449D02*
X008891Y021754D01*
X008890Y021754D02*
X008926Y021805D01*
X008958Y021858D01*
X008987Y021913D01*
X009013Y021969D01*
X009035Y022028D01*
X009053Y022087D01*
X009067Y022148D01*
X009078Y022209D01*
X009084Y022271D01*
X009087Y022333D01*
X009086Y022396D01*
X009080Y022458D01*
X009071Y022519D01*
X009058Y022580D01*
X009041Y022640D01*
X009021Y022699D01*
X008997Y022756D01*
X008969Y022812D01*
X008937Y022865D01*
X008903Y022917D01*
X008865Y022967D01*
X008824Y023014D01*
X008780Y023058D01*
X008734Y023099D01*
X008685Y023138D01*
X008633Y023173D01*
X008580Y023205D01*
X008525Y023233D01*
X008468Y023258D01*
X008409Y023279D01*
X008349Y023297D01*
X008289Y023310D01*
X008227Y023320D01*
X008165Y023326D01*
X008103Y023328D01*
X008041Y023326D01*
X007979Y023320D01*
X007917Y023310D01*
X007857Y023297D01*
X007797Y023279D01*
X007738Y023258D01*
X007681Y023233D01*
X007626Y023205D01*
X007573Y023173D01*
X007521Y023138D01*
X007472Y023099D01*
X007426Y023058D01*
X007382Y023014D01*
X007341Y022967D01*
X007303Y022917D01*
X007269Y022865D01*
X007237Y022812D01*
X007209Y022756D01*
X007185Y022699D01*
X007165Y022640D01*
X007148Y022580D01*
X007135Y022519D01*
X007126Y022458D01*
X007120Y022396D01*
X007119Y022333D01*
X007122Y022271D01*
X007128Y022209D01*
X007139Y022148D01*
X007153Y022087D01*
X007171Y022028D01*
X007193Y021969D01*
X007219Y021913D01*
X007248Y021858D01*
X007280Y021805D01*
X007316Y021754D01*
X006011Y020449D01*
X005781Y019892D02*
X005781Y017817D01*
X005779Y017777D01*
X005774Y017737D01*
X005764Y017699D01*
X005752Y017661D01*
X005736Y017624D01*
X005716Y017589D01*
X005694Y017556D01*
X005668Y017525D01*
X005640Y017497D01*
X005609Y017471D01*
X005576Y017449D01*
X005541Y017429D01*
X005504Y017413D01*
X005466Y017401D01*
X005428Y017391D01*
X005388Y017386D01*
X005348Y017384D01*
X005308Y017386D01*
X005268Y017391D01*
X005230Y017401D01*
X005192Y017413D01*
X005155Y017429D01*
X005120Y017449D01*
X005087Y017471D01*
X005056Y017497D01*
X005028Y017525D01*
X005002Y017556D01*
X004980Y017589D01*
X004960Y017624D01*
X004944Y017661D01*
X004932Y017699D01*
X004922Y017737D01*
X004917Y017777D01*
X004915Y017817D01*
X004914Y017817D02*
X004914Y019892D01*
X004912Y019943D01*
X004907Y019995D01*
X004899Y020046D01*
X004887Y020096D01*
X004872Y020145D01*
X004854Y020193D01*
X004833Y020240D01*
X004809Y020286D01*
X004781Y020329D01*
X004751Y020371D01*
X004719Y020411D01*
X004683Y020448D01*
X004684Y020449D02*
X003379Y021754D01*
X003415Y021805D01*
X003447Y021858D01*
X003476Y021913D01*
X003502Y021969D01*
X003524Y022028D01*
X003542Y022087D01*
X003556Y022148D01*
X003567Y022209D01*
X003573Y022271D01*
X003576Y022333D01*
X003575Y022396D01*
X003569Y022458D01*
X003560Y022519D01*
X003547Y022580D01*
X003530Y022640D01*
X003510Y022699D01*
X003486Y022756D01*
X003458Y022812D01*
X003426Y022865D01*
X003392Y022917D01*
X003354Y022967D01*
X003313Y023014D01*
X003269Y023058D01*
X003223Y023099D01*
X003174Y023138D01*
X003122Y023173D01*
X003069Y023205D01*
X003014Y023233D01*
X002957Y023258D01*
X002898Y023279D01*
X002838Y023297D01*
X002778Y023310D01*
X002716Y023320D01*
X002654Y023326D01*
X002592Y023328D01*
X002530Y023326D01*
X002468Y023320D01*
X002406Y023310D01*
X002346Y023297D01*
X002286Y023279D01*
X002227Y023258D01*
X002170Y023233D01*
X002115Y023205D01*
X002062Y023173D01*
X002010Y023138D01*
X001961Y023099D01*
X001915Y023058D01*
X001871Y023014D01*
X001830Y022967D01*
X001792Y022917D01*
X001758Y022865D01*
X001726Y022812D01*
X001698Y022756D01*
X001674Y022699D01*
X001654Y022640D01*
X001637Y022580D01*
X001624Y022519D01*
X001615Y022458D01*
X001609Y022396D01*
X001608Y022333D01*
X001611Y022271D01*
X001617Y022209D01*
X001628Y022148D01*
X001642Y022087D01*
X001660Y022028D01*
X001682Y021969D01*
X001708Y021913D01*
X001737Y021858D01*
X001769Y021805D01*
X001805Y021754D01*
X001804Y021754D02*
X000499Y020449D01*
X000269Y019892D02*
X000269Y003536D01*
X000271Y003485D01*
X000276Y003433D01*
X000284Y003382D01*
X000296Y003332D01*
X000311Y003283D01*
X000329Y003235D01*
X000350Y003188D01*
X000374Y003142D01*
X000402Y003099D01*
X000432Y003057D01*
X000464Y003017D01*
X000500Y002980D01*
X000499Y002980D02*
X001804Y001675D01*
X002001Y001084D02*
X002003Y001132D01*
X002009Y001180D01*
X002019Y001227D01*
X002032Y001273D01*
X002050Y001318D01*
X002070Y001362D01*
X002095Y001404D01*
X002123Y001443D01*
X002153Y001480D01*
X002187Y001514D01*
X002224Y001546D01*
X002262Y001575D01*
X002303Y001600D01*
X002346Y001622D01*
X002391Y001640D01*
X002437Y001654D01*
X002484Y001665D01*
X002532Y001672D01*
X002580Y001675D01*
X002628Y001674D01*
X002676Y001669D01*
X002724Y001660D01*
X002770Y001648D01*
X002815Y001631D01*
X002859Y001611D01*
X002901Y001588D01*
X002941Y001561D01*
X002979Y001531D01*
X003014Y001498D01*
X003046Y001462D01*
X003076Y001424D01*
X003102Y001383D01*
X003124Y001340D01*
X003144Y001296D01*
X003159Y001251D01*
X003171Y001204D01*
X003179Y001156D01*
X003183Y001108D01*
X003183Y001060D01*
X003179Y001012D01*
X003171Y000964D01*
X003159Y000917D01*
X003144Y000872D01*
X003124Y000828D01*
X003102Y000785D01*
X003076Y000744D01*
X003046Y000706D01*
X003014Y000670D01*
X002979Y000637D01*
X002941Y000607D01*
X002901Y000580D01*
X002859Y000557D01*
X002815Y000537D01*
X002770Y000520D01*
X002724Y000508D01*
X002676Y000499D01*
X002628Y000494D01*
X002580Y000493D01*
X002532Y000496D01*
X002484Y000503D01*
X002437Y000514D01*
X002391Y000528D01*
X002346Y000546D01*
X002303Y000568D01*
X002262Y000593D01*
X002224Y000622D01*
X002187Y000654D01*
X002153Y000688D01*
X002123Y000725D01*
X002095Y000764D01*
X002070Y000806D01*
X002050Y000850D01*
X002032Y000895D01*
X002019Y000941D01*
X002009Y000988D01*
X002003Y001036D01*
X002001Y001084D01*
X004683Y002980D02*
X004719Y003017D01*
X004751Y003057D01*
X004781Y003099D01*
X004809Y003142D01*
X004833Y003188D01*
X004854Y003235D01*
X004872Y003283D01*
X004887Y003332D01*
X004899Y003382D01*
X004907Y003433D01*
X004912Y003485D01*
X004914Y003536D01*
X003970Y003840D02*
X003970Y019588D01*
X003968Y019629D01*
X003962Y019669D01*
X003953Y019709D01*
X003940Y019748D01*
X003924Y019785D01*
X003904Y019821D01*
X003881Y019855D01*
X003854Y019886D01*
X003825Y019915D01*
X003794Y019942D01*
X003760Y019965D01*
X003724Y019985D01*
X003687Y020001D01*
X003648Y020014D01*
X003608Y020023D01*
X003568Y020029D01*
X003527Y020031D01*
X003486Y020029D01*
X003446Y020023D01*
X003406Y020014D01*
X003367Y020001D01*
X003330Y019985D01*
X003294Y019965D01*
X003260Y019942D01*
X003229Y019915D01*
X003200Y019886D01*
X003173Y019855D01*
X003150Y019821D01*
X003130Y019785D01*
X003114Y019748D01*
X003101Y019709D01*
X003092Y019669D01*
X003086Y019629D01*
X003084Y019588D01*
X002099Y019588D01*
X002100Y019588D02*
X002098Y019629D01*
X002092Y019669D01*
X002083Y019709D01*
X002070Y019748D01*
X002054Y019785D01*
X002034Y019821D01*
X002011Y019855D01*
X001984Y019886D01*
X001955Y019915D01*
X001924Y019942D01*
X001890Y019965D01*
X001854Y019985D01*
X001817Y020001D01*
X001778Y020014D01*
X001738Y020023D01*
X001698Y020029D01*
X001657Y020031D01*
X001616Y020029D01*
X001576Y020023D01*
X001536Y020014D01*
X001497Y020001D01*
X001460Y019985D01*
X001424Y019965D01*
X001390Y019942D01*
X001359Y019915D01*
X001330Y019886D01*
X001303Y019855D01*
X001280Y019821D01*
X001260Y019785D01*
X001244Y019748D01*
X001231Y019709D01*
X001222Y019669D01*
X001216Y019629D01*
X001214Y019588D01*
X001214Y003840D01*
X001216Y003799D01*
X001222Y003759D01*
X001231Y003719D01*
X001244Y003680D01*
X001260Y003643D01*
X001280Y003607D01*
X001303Y003573D01*
X001330Y003542D01*
X001359Y003513D01*
X001390Y003486D01*
X001424Y003463D01*
X001460Y003443D01*
X001497Y003427D01*
X001536Y003414D01*
X001576Y003405D01*
X001616Y003399D01*
X001657Y003397D01*
X001698Y003399D01*
X001738Y003405D01*
X001778Y003414D01*
X001817Y003427D01*
X001854Y003443D01*
X001890Y003463D01*
X001924Y003486D01*
X001955Y003513D01*
X001984Y003542D01*
X002011Y003573D01*
X002034Y003607D01*
X002054Y003643D01*
X002070Y003680D01*
X002083Y003719D01*
X002092Y003759D01*
X002098Y003799D01*
X002100Y003840D01*
X002099Y003840D02*
X003084Y003840D01*
X003086Y003799D01*
X003092Y003759D01*
X003101Y003719D01*
X003114Y003680D01*
X003130Y003643D01*
X003150Y003607D01*
X003173Y003573D01*
X003200Y003542D01*
X003229Y003513D01*
X003260Y003486D01*
X003294Y003463D01*
X003330Y003443D01*
X003367Y003427D01*
X003406Y003414D01*
X003446Y003405D01*
X003486Y003399D01*
X003527Y003397D01*
X003568Y003399D01*
X003608Y003405D01*
X003648Y003414D01*
X003687Y003427D01*
X003724Y003443D01*
X003760Y003463D01*
X003794Y003486D01*
X003825Y003513D01*
X003854Y003542D01*
X003881Y003573D01*
X003904Y003607D01*
X003924Y003643D01*
X003940Y003680D01*
X003953Y003719D01*
X003962Y003759D01*
X003968Y003799D01*
X003970Y003840D01*
X006725Y003840D02*
X006725Y019588D01*
X005781Y019892D02*
X005783Y019943D01*
X005788Y019995D01*
X005796Y020046D01*
X005808Y020096D01*
X005823Y020145D01*
X005841Y020193D01*
X005862Y020240D01*
X005886Y020286D01*
X005914Y020329D01*
X005944Y020371D01*
X005976Y020411D01*
X006012Y020448D01*
X006725Y019588D02*
X006727Y019629D01*
X006733Y019669D01*
X006742Y019709D01*
X006755Y019748D01*
X006771Y019785D01*
X006791Y019821D01*
X006814Y019855D01*
X006841Y019886D01*
X006870Y019915D01*
X006901Y019942D01*
X006935Y019965D01*
X006971Y019985D01*
X007008Y020001D01*
X007047Y020014D01*
X007087Y020023D01*
X007127Y020029D01*
X007168Y020031D01*
X007209Y020029D01*
X007249Y020023D01*
X007289Y020014D01*
X007328Y020001D01*
X007365Y019985D01*
X007401Y019965D01*
X007435Y019942D01*
X007466Y019915D01*
X007495Y019886D01*
X007522Y019855D01*
X007545Y019821D01*
X007565Y019785D01*
X007581Y019748D01*
X007594Y019709D01*
X007603Y019669D01*
X007609Y019629D01*
X007611Y019588D01*
X008596Y019588D01*
X008595Y019588D02*
X008597Y019629D01*
X008603Y019669D01*
X008612Y019709D01*
X008625Y019748D01*
X008641Y019785D01*
X008661Y019821D01*
X008684Y019855D01*
X008711Y019886D01*
X008740Y019915D01*
X008771Y019942D01*
X008805Y019965D01*
X008841Y019985D01*
X008878Y020001D01*
X008917Y020014D01*
X008957Y020023D01*
X008997Y020029D01*
X009038Y020031D01*
X009079Y020029D01*
X009119Y020023D01*
X009159Y020014D01*
X009198Y020001D01*
X009235Y019985D01*
X009271Y019965D01*
X009305Y019942D01*
X009336Y019915D01*
X009365Y019886D01*
X009392Y019855D01*
X009415Y019821D01*
X009435Y019785D01*
X009451Y019748D01*
X009464Y019709D01*
X009473Y019669D01*
X009479Y019629D01*
X009481Y019588D01*
X009481Y003840D01*
X010426Y003536D02*
X010424Y003485D01*
X010419Y003433D01*
X010411Y003382D01*
X010399Y003332D01*
X010384Y003283D01*
X010366Y003235D01*
X010345Y003188D01*
X010321Y003142D01*
X010293Y003099D01*
X010263Y003057D01*
X010231Y003017D01*
X010195Y002980D01*
X009481Y003840D02*
X009479Y003799D01*
X009473Y003759D01*
X009464Y003719D01*
X009451Y003680D01*
X009435Y003643D01*
X009415Y003607D01*
X009392Y003573D01*
X009365Y003542D01*
X009336Y003513D01*
X009305Y003486D01*
X009271Y003463D01*
X009235Y003443D01*
X009198Y003427D01*
X009159Y003414D01*
X009119Y003405D01*
X009079Y003399D01*
X009038Y003397D01*
X008997Y003399D01*
X008957Y003405D01*
X008917Y003414D01*
X008878Y003427D01*
X008841Y003443D01*
X008805Y003463D01*
X008771Y003486D01*
X008740Y003513D01*
X008711Y003542D01*
X008684Y003573D01*
X008661Y003607D01*
X008641Y003643D01*
X008625Y003680D01*
X008612Y003719D01*
X008603Y003759D01*
X008597Y003799D01*
X008595Y003840D01*
X008596Y003840D02*
X007611Y003840D01*
X007609Y003799D01*
X007603Y003759D01*
X007594Y003719D01*
X007581Y003680D01*
X007565Y003643D01*
X007545Y003607D01*
X007522Y003573D01*
X007495Y003542D01*
X007466Y003513D01*
X007435Y003486D01*
X007401Y003463D01*
X007365Y003443D01*
X007328Y003427D01*
X007289Y003414D01*
X007249Y003405D01*
X007209Y003399D01*
X007168Y003397D01*
X007127Y003399D01*
X007087Y003405D01*
X007047Y003414D01*
X007008Y003427D01*
X006971Y003443D01*
X006935Y003463D01*
X006901Y003486D01*
X006870Y003513D01*
X006841Y003542D01*
X006814Y003573D01*
X006791Y003607D01*
X006771Y003643D01*
X006755Y003680D01*
X006742Y003719D01*
X006733Y003759D01*
X006727Y003799D01*
X006725Y003840D01*
X005643Y006202D02*
X005645Y006221D01*
X005650Y006240D01*
X005660Y006256D01*
X005672Y006271D01*
X005687Y006283D01*
X005703Y006293D01*
X005722Y006298D01*
X005741Y006300D01*
X005760Y006298D01*
X005779Y006293D01*
X005795Y006283D01*
X005810Y006271D01*
X005822Y006256D01*
X005832Y006240D01*
X005837Y006221D01*
X005839Y006202D01*
X005837Y006183D01*
X005832Y006164D01*
X005822Y006148D01*
X005810Y006133D01*
X005795Y006121D01*
X005779Y006111D01*
X005760Y006106D01*
X005741Y006104D01*
X005722Y006106D01*
X005703Y006111D01*
X005687Y006121D01*
X005672Y006133D01*
X005660Y006148D01*
X005650Y006164D01*
X005645Y006183D01*
X005643Y006202D01*
X005643Y006596D02*
X005645Y006615D01*
X005650Y006634D01*
X005660Y006650D01*
X005672Y006665D01*
X005687Y006677D01*
X005703Y006687D01*
X005722Y006692D01*
X005741Y006694D01*
X005760Y006692D01*
X005779Y006687D01*
X005795Y006677D01*
X005810Y006665D01*
X005822Y006650D01*
X005832Y006634D01*
X005837Y006615D01*
X005839Y006596D01*
X005837Y006577D01*
X005832Y006558D01*
X005822Y006542D01*
X005810Y006527D01*
X005795Y006515D01*
X005779Y006505D01*
X005760Y006500D01*
X005741Y006498D01*
X005722Y006500D01*
X005703Y006505D01*
X005687Y006515D01*
X005672Y006527D01*
X005660Y006542D01*
X005650Y006558D01*
X005645Y006577D01*
X005643Y006596D01*
X005643Y006990D02*
X005645Y007009D01*
X005650Y007028D01*
X005660Y007044D01*
X005672Y007059D01*
X005687Y007071D01*
X005703Y007081D01*
X005722Y007086D01*
X005741Y007088D01*
X005760Y007086D01*
X005779Y007081D01*
X005795Y007071D01*
X005810Y007059D01*
X005822Y007044D01*
X005832Y007028D01*
X005837Y007009D01*
X005839Y006990D01*
X005837Y006971D01*
X005832Y006952D01*
X005822Y006936D01*
X005810Y006921D01*
X005795Y006909D01*
X005779Y006899D01*
X005760Y006894D01*
X005741Y006892D01*
X005722Y006894D01*
X005703Y006899D01*
X005687Y006909D01*
X005672Y006921D01*
X005660Y006936D01*
X005650Y006952D01*
X005645Y006971D01*
X005643Y006990D01*
X005643Y007383D02*
X005645Y007402D01*
X005650Y007421D01*
X005660Y007437D01*
X005672Y007452D01*
X005687Y007464D01*
X005703Y007474D01*
X005722Y007479D01*
X005741Y007481D01*
X005760Y007479D01*
X005779Y007474D01*
X005795Y007464D01*
X005810Y007452D01*
X005822Y007437D01*
X005832Y007421D01*
X005837Y007402D01*
X005839Y007383D01*
X005837Y007364D01*
X005832Y007345D01*
X005822Y007329D01*
X005810Y007314D01*
X005795Y007302D01*
X005779Y007292D01*
X005760Y007287D01*
X005741Y007285D01*
X005722Y007287D01*
X005703Y007292D01*
X005687Y007302D01*
X005672Y007314D01*
X005660Y007329D01*
X005650Y007345D01*
X005645Y007364D01*
X005643Y007383D01*
X005643Y007777D02*
X005645Y007796D01*
X005650Y007815D01*
X005660Y007831D01*
X005672Y007846D01*
X005687Y007858D01*
X005703Y007868D01*
X005722Y007873D01*
X005741Y007875D01*
X005760Y007873D01*
X005779Y007868D01*
X005795Y007858D01*
X005810Y007846D01*
X005822Y007831D01*
X005832Y007815D01*
X005837Y007796D01*
X005839Y007777D01*
X005837Y007758D01*
X005832Y007739D01*
X005822Y007723D01*
X005810Y007708D01*
X005795Y007696D01*
X005779Y007686D01*
X005760Y007681D01*
X005741Y007679D01*
X005722Y007681D01*
X005703Y007686D01*
X005687Y007696D01*
X005672Y007708D01*
X005660Y007723D01*
X005650Y007739D01*
X005645Y007758D01*
X005643Y007777D01*
X005781Y008368D02*
X005781Y015061D01*
X005779Y015101D01*
X005774Y015141D01*
X005764Y015179D01*
X005752Y015217D01*
X005736Y015254D01*
X005716Y015289D01*
X005694Y015322D01*
X005668Y015353D01*
X005640Y015381D01*
X005609Y015407D01*
X005576Y015429D01*
X005541Y015449D01*
X005504Y015465D01*
X005466Y015477D01*
X005428Y015487D01*
X005388Y015492D01*
X005348Y015494D01*
X005308Y015492D01*
X005268Y015487D01*
X005230Y015477D01*
X005192Y015465D01*
X005155Y015449D01*
X005120Y015429D01*
X005087Y015407D01*
X005056Y015381D01*
X005028Y015353D01*
X005002Y015322D01*
X004980Y015289D01*
X004960Y015254D01*
X004944Y015217D01*
X004932Y015179D01*
X004922Y015141D01*
X004917Y015101D01*
X004915Y015061D01*
X004914Y015061D02*
X004914Y008368D01*
X004915Y008368D02*
X004917Y008328D01*
X004922Y008288D01*
X004932Y008250D01*
X004944Y008212D01*
X004960Y008175D01*
X004980Y008140D01*
X005002Y008107D01*
X005028Y008076D01*
X005056Y008048D01*
X005087Y008022D01*
X005120Y008000D01*
X005155Y007980D01*
X005192Y007964D01*
X005230Y007952D01*
X005268Y007942D01*
X005308Y007937D01*
X005348Y007935D01*
X005388Y007937D01*
X005428Y007942D01*
X005466Y007952D01*
X005504Y007964D01*
X005541Y007980D01*
X005576Y008000D01*
X005609Y008022D01*
X005640Y008048D01*
X005668Y008076D01*
X005694Y008107D01*
X005716Y008140D01*
X005736Y008175D01*
X005752Y008212D01*
X005764Y008250D01*
X005774Y008288D01*
X005779Y008328D01*
X005781Y008368D01*
X004856Y007777D02*
X004858Y007796D01*
X004863Y007815D01*
X004873Y007831D01*
X004885Y007846D01*
X004900Y007858D01*
X004916Y007868D01*
X004935Y007873D01*
X004954Y007875D01*
X004973Y007873D01*
X004992Y007868D01*
X005008Y007858D01*
X005023Y007846D01*
X005035Y007831D01*
X005045Y007815D01*
X005050Y007796D01*
X005052Y007777D01*
X005050Y007758D01*
X005045Y007739D01*
X005035Y007723D01*
X005023Y007708D01*
X005008Y007696D01*
X004992Y007686D01*
X004973Y007681D01*
X004954Y007679D01*
X004935Y007681D01*
X004916Y007686D01*
X004900Y007696D01*
X004885Y007708D01*
X004873Y007723D01*
X004863Y007739D01*
X004858Y007758D01*
X004856Y007777D01*
X004856Y007383D02*
X004858Y007402D01*
X004863Y007421D01*
X004873Y007437D01*
X004885Y007452D01*
X004900Y007464D01*
X004916Y007474D01*
X004935Y007479D01*
X004954Y007481D01*
X004973Y007479D01*
X004992Y007474D01*
X005008Y007464D01*
X005023Y007452D01*
X005035Y007437D01*
X005045Y007421D01*
X005050Y007402D01*
X005052Y007383D01*
X005050Y007364D01*
X005045Y007345D01*
X005035Y007329D01*
X005023Y007314D01*
X005008Y007302D01*
X004992Y007292D01*
X004973Y007287D01*
X004954Y007285D01*
X004935Y007287D01*
X004916Y007292D01*
X004900Y007302D01*
X004885Y007314D01*
X004873Y007329D01*
X004863Y007345D01*
X004858Y007364D01*
X004856Y007383D01*
X004856Y006990D02*
X004858Y007009D01*
X004863Y007028D01*
X004873Y007044D01*
X004885Y007059D01*
X004900Y007071D01*
X004916Y007081D01*
X004935Y007086D01*
X004954Y007088D01*
X004973Y007086D01*
X004992Y007081D01*
X005008Y007071D01*
X005023Y007059D01*
X005035Y007044D01*
X005045Y007028D01*
X005050Y007009D01*
X005052Y006990D01*
X005050Y006971D01*
X005045Y006952D01*
X005035Y006936D01*
X005023Y006921D01*
X005008Y006909D01*
X004992Y006899D01*
X004973Y006894D01*
X004954Y006892D01*
X004935Y006894D01*
X004916Y006899D01*
X004900Y006909D01*
X004885Y006921D01*
X004873Y006936D01*
X004863Y006952D01*
X004858Y006971D01*
X004856Y006990D01*
X004856Y006596D02*
X004858Y006615D01*
X004863Y006634D01*
X004873Y006650D01*
X004885Y006665D01*
X004900Y006677D01*
X004916Y006687D01*
X004935Y006692D01*
X004954Y006694D01*
X004973Y006692D01*
X004992Y006687D01*
X005008Y006677D01*
X005023Y006665D01*
X005035Y006650D01*
X005045Y006634D01*
X005050Y006615D01*
X005052Y006596D01*
X005050Y006577D01*
X005045Y006558D01*
X005035Y006542D01*
X005023Y006527D01*
X005008Y006515D01*
X004992Y006505D01*
X004973Y006500D01*
X004954Y006498D01*
X004935Y006500D01*
X004916Y006505D01*
X004900Y006515D01*
X004885Y006527D01*
X004873Y006542D01*
X004863Y006558D01*
X004858Y006577D01*
X004856Y006596D01*
X004856Y006202D02*
X004858Y006221D01*
X004863Y006240D01*
X004873Y006256D01*
X004885Y006271D01*
X004900Y006283D01*
X004916Y006293D01*
X004935Y006298D01*
X004954Y006300D01*
X004973Y006298D01*
X004992Y006293D01*
X005008Y006283D01*
X005023Y006271D01*
X005035Y006256D01*
X005045Y006240D01*
X005050Y006221D01*
X005052Y006202D01*
X005050Y006183D01*
X005045Y006164D01*
X005035Y006148D01*
X005023Y006133D01*
X005008Y006121D01*
X004992Y006111D01*
X004973Y006106D01*
X004954Y006104D01*
X004935Y006106D01*
X004916Y006111D01*
X004900Y006121D01*
X004885Y006133D01*
X004873Y006148D01*
X004863Y006164D01*
X004858Y006183D01*
X004856Y006202D01*
X010368Y006202D02*
X010370Y006221D01*
X010375Y006240D01*
X010385Y006256D01*
X010397Y006271D01*
X010412Y006283D01*
X010428Y006293D01*
X010447Y006298D01*
X010466Y006300D01*
X010485Y006298D01*
X010504Y006293D01*
X010520Y006283D01*
X010535Y006271D01*
X010547Y006256D01*
X010557Y006240D01*
X010562Y006221D01*
X010564Y006202D01*
X010562Y006183D01*
X010557Y006164D01*
X010547Y006148D01*
X010535Y006133D01*
X010520Y006121D01*
X010504Y006111D01*
X010485Y006106D01*
X010466Y006104D01*
X010447Y006106D01*
X010428Y006111D01*
X010412Y006121D01*
X010397Y006133D01*
X010385Y006148D01*
X010375Y006164D01*
X010370Y006183D01*
X010368Y006202D01*
X010368Y006596D02*
X010370Y006615D01*
X010375Y006634D01*
X010385Y006650D01*
X010397Y006665D01*
X010412Y006677D01*
X010428Y006687D01*
X010447Y006692D01*
X010466Y006694D01*
X010485Y006692D01*
X010504Y006687D01*
X010520Y006677D01*
X010535Y006665D01*
X010547Y006650D01*
X010557Y006634D01*
X010562Y006615D01*
X010564Y006596D01*
X010562Y006577D01*
X010557Y006558D01*
X010547Y006542D01*
X010535Y006527D01*
X010520Y006515D01*
X010504Y006505D01*
X010485Y006500D01*
X010466Y006498D01*
X010447Y006500D01*
X010428Y006505D01*
X010412Y006515D01*
X010397Y006527D01*
X010385Y006542D01*
X010375Y006558D01*
X010370Y006577D01*
X010368Y006596D01*
X010368Y006990D02*
X010370Y007009D01*
X010375Y007028D01*
X010385Y007044D01*
X010397Y007059D01*
X010412Y007071D01*
X010428Y007081D01*
X010447Y007086D01*
X010466Y007088D01*
X010485Y007086D01*
X010504Y007081D01*
X010520Y007071D01*
X010535Y007059D01*
X010547Y007044D01*
X010557Y007028D01*
X010562Y007009D01*
X010564Y006990D01*
X010562Y006971D01*
X010557Y006952D01*
X010547Y006936D01*
X010535Y006921D01*
X010520Y006909D01*
X010504Y006899D01*
X010485Y006894D01*
X010466Y006892D01*
X010447Y006894D01*
X010428Y006899D01*
X010412Y006909D01*
X010397Y006921D01*
X010385Y006936D01*
X010375Y006952D01*
X010370Y006971D01*
X010368Y006990D01*
X010368Y007383D02*
X010370Y007402D01*
X010375Y007421D01*
X010385Y007437D01*
X010397Y007452D01*
X010412Y007464D01*
X010428Y007474D01*
X010447Y007479D01*
X010466Y007481D01*
X010485Y007479D01*
X010504Y007474D01*
X010520Y007464D01*
X010535Y007452D01*
X010547Y007437D01*
X010557Y007421D01*
X010562Y007402D01*
X010564Y007383D01*
X010562Y007364D01*
X010557Y007345D01*
X010547Y007329D01*
X010535Y007314D01*
X010520Y007302D01*
X010504Y007292D01*
X010485Y007287D01*
X010466Y007285D01*
X010447Y007287D01*
X010428Y007292D01*
X010412Y007302D01*
X010397Y007314D01*
X010385Y007329D01*
X010375Y007345D01*
X010370Y007364D01*
X010368Y007383D01*
X010368Y007777D02*
X010370Y007796D01*
X010375Y007815D01*
X010385Y007831D01*
X010397Y007846D01*
X010412Y007858D01*
X010428Y007868D01*
X010447Y007873D01*
X010466Y007875D01*
X010485Y007873D01*
X010504Y007868D01*
X010520Y007858D01*
X010535Y007846D01*
X010547Y007831D01*
X010557Y007815D01*
X010562Y007796D01*
X010564Y007777D01*
X010562Y007758D01*
X010557Y007739D01*
X010547Y007723D01*
X010535Y007708D01*
X010520Y007696D01*
X010504Y007686D01*
X010485Y007681D01*
X010466Y007679D01*
X010447Y007681D01*
X010428Y007686D01*
X010412Y007696D01*
X010397Y007708D01*
X010385Y007723D01*
X010375Y007739D01*
X010370Y007758D01*
X010368Y007777D01*
X010426Y008368D02*
X010426Y015061D01*
X010428Y015101D01*
X010433Y015141D01*
X010443Y015179D01*
X010455Y015217D01*
X010471Y015254D01*
X010491Y015289D01*
X010513Y015322D01*
X010539Y015353D01*
X010567Y015381D01*
X010598Y015407D01*
X010631Y015429D01*
X010666Y015449D01*
X010703Y015465D01*
X010741Y015477D01*
X010779Y015487D01*
X010819Y015492D01*
X010859Y015494D01*
X010899Y015492D01*
X010939Y015487D01*
X010977Y015477D01*
X011015Y015465D01*
X011052Y015449D01*
X011087Y015429D01*
X011120Y015407D01*
X011151Y015381D01*
X011179Y015353D01*
X011205Y015322D01*
X011227Y015289D01*
X011247Y015254D01*
X011263Y015217D01*
X011275Y015179D01*
X011285Y015141D01*
X011290Y015101D01*
X011292Y015061D01*
X011292Y008368D01*
X011290Y008328D01*
X011285Y008288D01*
X011275Y008250D01*
X011263Y008212D01*
X011247Y008175D01*
X011227Y008140D01*
X011205Y008107D01*
X011179Y008076D01*
X011151Y008048D01*
X011120Y008022D01*
X011087Y008000D01*
X011052Y007980D01*
X011015Y007964D01*
X010977Y007952D01*
X010939Y007942D01*
X010899Y007937D01*
X010859Y007935D01*
X010819Y007937D01*
X010779Y007942D01*
X010741Y007952D01*
X010703Y007964D01*
X010666Y007980D01*
X010631Y008000D01*
X010598Y008022D01*
X010567Y008048D01*
X010539Y008076D01*
X010513Y008107D01*
X010491Y008140D01*
X010471Y008175D01*
X010455Y008212D01*
X010443Y008250D01*
X010433Y008288D01*
X010428Y008328D01*
X010426Y008368D01*
X011155Y007777D02*
X011157Y007796D01*
X011162Y007815D01*
X011172Y007831D01*
X011184Y007846D01*
X011199Y007858D01*
X011215Y007868D01*
X011234Y007873D01*
X011253Y007875D01*
X011272Y007873D01*
X011291Y007868D01*
X011307Y007858D01*
X011322Y007846D01*
X011334Y007831D01*
X011344Y007815D01*
X011349Y007796D01*
X011351Y007777D01*
X011349Y007758D01*
X011344Y007739D01*
X011334Y007723D01*
X011322Y007708D01*
X011307Y007696D01*
X011291Y007686D01*
X011272Y007681D01*
X011253Y007679D01*
X011234Y007681D01*
X011215Y007686D01*
X011199Y007696D01*
X011184Y007708D01*
X011172Y007723D01*
X011162Y007739D01*
X011157Y007758D01*
X011155Y007777D01*
X011155Y007383D02*
X011157Y007402D01*
X011162Y007421D01*
X011172Y007437D01*
X011184Y007452D01*
X011199Y007464D01*
X011215Y007474D01*
X011234Y007479D01*
X011253Y007481D01*
X011272Y007479D01*
X011291Y007474D01*
X011307Y007464D01*
X011322Y007452D01*
X011334Y007437D01*
X011344Y007421D01*
X011349Y007402D01*
X011351Y007383D01*
X011349Y007364D01*
X011344Y007345D01*
X011334Y007329D01*
X011322Y007314D01*
X011307Y007302D01*
X011291Y007292D01*
X011272Y007287D01*
X011253Y007285D01*
X011234Y007287D01*
X011215Y007292D01*
X011199Y007302D01*
X011184Y007314D01*
X011172Y007329D01*
X011162Y007345D01*
X011157Y007364D01*
X011155Y007383D01*
X011155Y006990D02*
X011157Y007009D01*
X011162Y007028D01*
X011172Y007044D01*
X011184Y007059D01*
X011199Y007071D01*
X011215Y007081D01*
X011234Y007086D01*
X011253Y007088D01*
X011272Y007086D01*
X011291Y007081D01*
X011307Y007071D01*
X011322Y007059D01*
X011334Y007044D01*
X011344Y007028D01*
X011349Y007009D01*
X011351Y006990D01*
X011349Y006971D01*
X011344Y006952D01*
X011334Y006936D01*
X011322Y006921D01*
X011307Y006909D01*
X011291Y006899D01*
X011272Y006894D01*
X011253Y006892D01*
X011234Y006894D01*
X011215Y006899D01*
X011199Y006909D01*
X011184Y006921D01*
X011172Y006936D01*
X011162Y006952D01*
X011157Y006971D01*
X011155Y006990D01*
X011155Y006596D02*
X011157Y006615D01*
X011162Y006634D01*
X011172Y006650D01*
X011184Y006665D01*
X011199Y006677D01*
X011215Y006687D01*
X011234Y006692D01*
X011253Y006694D01*
X011272Y006692D01*
X011291Y006687D01*
X011307Y006677D01*
X011322Y006665D01*
X011334Y006650D01*
X011344Y006634D01*
X011349Y006615D01*
X011351Y006596D01*
X011349Y006577D01*
X011344Y006558D01*
X011334Y006542D01*
X011322Y006527D01*
X011307Y006515D01*
X011291Y006505D01*
X011272Y006500D01*
X011253Y006498D01*
X011234Y006500D01*
X011215Y006505D01*
X011199Y006515D01*
X011184Y006527D01*
X011172Y006542D01*
X011162Y006558D01*
X011157Y006577D01*
X011155Y006596D01*
X011155Y006202D02*
X011157Y006221D01*
X011162Y006240D01*
X011172Y006256D01*
X011184Y006271D01*
X011199Y006283D01*
X011215Y006293D01*
X011234Y006298D01*
X011253Y006300D01*
X011272Y006298D01*
X011291Y006293D01*
X011307Y006283D01*
X011322Y006271D01*
X011334Y006256D01*
X011344Y006240D01*
X011349Y006221D01*
X011351Y006202D01*
X011349Y006183D01*
X011344Y006164D01*
X011334Y006148D01*
X011322Y006133D01*
X011307Y006121D01*
X011291Y006111D01*
X011272Y006106D01*
X011253Y006104D01*
X011234Y006106D01*
X011215Y006111D01*
X011199Y006121D01*
X011184Y006133D01*
X011172Y006148D01*
X011162Y006164D01*
X011157Y006183D01*
X011155Y006202D01*
X012237Y003840D02*
X012237Y019588D01*
X011293Y019892D02*
X011295Y019943D01*
X011300Y019995D01*
X011308Y020046D01*
X011320Y020096D01*
X011335Y020145D01*
X011353Y020193D01*
X011374Y020240D01*
X011398Y020286D01*
X011426Y020329D01*
X011456Y020371D01*
X011488Y020411D01*
X011524Y020448D01*
X012237Y019588D02*
X012239Y019629D01*
X012245Y019669D01*
X012254Y019709D01*
X012267Y019748D01*
X012283Y019785D01*
X012303Y019821D01*
X012326Y019855D01*
X012353Y019886D01*
X012382Y019915D01*
X012413Y019942D01*
X012447Y019965D01*
X012483Y019985D01*
X012520Y020001D01*
X012559Y020014D01*
X012599Y020023D01*
X012639Y020029D01*
X012680Y020031D01*
X012721Y020029D01*
X012761Y020023D01*
X012801Y020014D01*
X012840Y020001D01*
X012877Y019985D01*
X012913Y019965D01*
X012947Y019942D01*
X012978Y019915D01*
X013007Y019886D01*
X013034Y019855D01*
X013057Y019821D01*
X013077Y019785D01*
X013093Y019748D01*
X013106Y019709D01*
X013115Y019669D01*
X013121Y019629D01*
X013123Y019588D01*
X014107Y019588D01*
X014109Y019629D01*
X014115Y019669D01*
X014124Y019709D01*
X014137Y019748D01*
X014153Y019785D01*
X014173Y019821D01*
X014196Y019855D01*
X014223Y019886D01*
X014252Y019915D01*
X014283Y019942D01*
X014317Y019965D01*
X014353Y019985D01*
X014390Y020001D01*
X014429Y020014D01*
X014469Y020023D01*
X014509Y020029D01*
X014550Y020031D01*
X014591Y020029D01*
X014631Y020023D01*
X014671Y020014D01*
X014710Y020001D01*
X014747Y019985D01*
X014783Y019965D01*
X014817Y019942D01*
X014848Y019915D01*
X014877Y019886D01*
X014904Y019855D01*
X014927Y019821D01*
X014947Y019785D01*
X014963Y019748D01*
X014976Y019709D01*
X014985Y019669D01*
X014991Y019629D01*
X014993Y019588D01*
X014993Y003840D01*
X015938Y003536D02*
X015936Y003485D01*
X015931Y003433D01*
X015923Y003382D01*
X015911Y003332D01*
X015896Y003283D01*
X015878Y003235D01*
X015857Y003188D01*
X015833Y003142D01*
X015805Y003099D01*
X015775Y003057D01*
X015743Y003017D01*
X015707Y002980D01*
X014993Y003840D02*
X014991Y003799D01*
X014985Y003759D01*
X014976Y003719D01*
X014963Y003680D01*
X014947Y003643D01*
X014927Y003607D01*
X014904Y003573D01*
X014877Y003542D01*
X014848Y003513D01*
X014817Y003486D01*
X014783Y003463D01*
X014747Y003443D01*
X014710Y003427D01*
X014671Y003414D01*
X014631Y003405D01*
X014591Y003399D01*
X014550Y003397D01*
X014509Y003399D01*
X014469Y003405D01*
X014429Y003414D01*
X014390Y003427D01*
X014353Y003443D01*
X014317Y003463D01*
X014283Y003486D01*
X014252Y003513D01*
X014223Y003542D01*
X014196Y003573D01*
X014173Y003607D01*
X014153Y003643D01*
X014137Y003680D01*
X014124Y003719D01*
X014115Y003759D01*
X014109Y003799D01*
X014107Y003840D01*
X013123Y003840D01*
X013121Y003799D01*
X013115Y003759D01*
X013106Y003719D01*
X013093Y003680D01*
X013077Y003643D01*
X013057Y003607D01*
X013034Y003573D01*
X013007Y003542D01*
X012978Y003513D01*
X012947Y003486D01*
X012913Y003463D01*
X012877Y003443D01*
X012840Y003427D01*
X012801Y003414D01*
X012761Y003405D01*
X012721Y003399D01*
X012680Y003397D01*
X012639Y003399D01*
X012599Y003405D01*
X012559Y003414D01*
X012520Y003427D01*
X012483Y003443D01*
X012447Y003463D01*
X012413Y003486D01*
X012382Y003513D01*
X012353Y003542D01*
X012326Y003573D01*
X012303Y003607D01*
X012283Y003643D01*
X012267Y003680D01*
X012254Y003719D01*
X012245Y003759D01*
X012239Y003799D01*
X012237Y003840D01*
X015879Y006202D02*
X015881Y006221D01*
X015886Y006240D01*
X015896Y006256D01*
X015908Y006271D01*
X015923Y006283D01*
X015939Y006293D01*
X015958Y006298D01*
X015977Y006300D01*
X015996Y006298D01*
X016015Y006293D01*
X016031Y006283D01*
X016046Y006271D01*
X016058Y006256D01*
X016068Y006240D01*
X016073Y006221D01*
X016075Y006202D01*
X016073Y006183D01*
X016068Y006164D01*
X016058Y006148D01*
X016046Y006133D01*
X016031Y006121D01*
X016015Y006111D01*
X015996Y006106D01*
X015977Y006104D01*
X015958Y006106D01*
X015939Y006111D01*
X015923Y006121D01*
X015908Y006133D01*
X015896Y006148D01*
X015886Y006164D01*
X015881Y006183D01*
X015879Y006202D01*
X015879Y006596D02*
X015881Y006615D01*
X015886Y006634D01*
X015896Y006650D01*
X015908Y006665D01*
X015923Y006677D01*
X015939Y006687D01*
X015958Y006692D01*
X015977Y006694D01*
X015996Y006692D01*
X016015Y006687D01*
X016031Y006677D01*
X016046Y006665D01*
X016058Y006650D01*
X016068Y006634D01*
X016073Y006615D01*
X016075Y006596D01*
X016073Y006577D01*
X016068Y006558D01*
X016058Y006542D01*
X016046Y006527D01*
X016031Y006515D01*
X016015Y006505D01*
X015996Y006500D01*
X015977Y006498D01*
X015958Y006500D01*
X015939Y006505D01*
X015923Y006515D01*
X015908Y006527D01*
X015896Y006542D01*
X015886Y006558D01*
X015881Y006577D01*
X015879Y006596D01*
X015879Y006990D02*
X015881Y007009D01*
X015886Y007028D01*
X015896Y007044D01*
X015908Y007059D01*
X015923Y007071D01*
X015939Y007081D01*
X015958Y007086D01*
X015977Y007088D01*
X015996Y007086D01*
X016015Y007081D01*
X016031Y007071D01*
X016046Y007059D01*
X016058Y007044D01*
X016068Y007028D01*
X016073Y007009D01*
X016075Y006990D01*
X016073Y006971D01*
X016068Y006952D01*
X016058Y006936D01*
X016046Y006921D01*
X016031Y006909D01*
X016015Y006899D01*
X015996Y006894D01*
X015977Y006892D01*
X015958Y006894D01*
X015939Y006899D01*
X015923Y006909D01*
X015908Y006921D01*
X015896Y006936D01*
X015886Y006952D01*
X015881Y006971D01*
X015879Y006990D01*
X015879Y007383D02*
X015881Y007402D01*
X015886Y007421D01*
X015896Y007437D01*
X015908Y007452D01*
X015923Y007464D01*
X015939Y007474D01*
X015958Y007479D01*
X015977Y007481D01*
X015996Y007479D01*
X016015Y007474D01*
X016031Y007464D01*
X016046Y007452D01*
X016058Y007437D01*
X016068Y007421D01*
X016073Y007402D01*
X016075Y007383D01*
X016073Y007364D01*
X016068Y007345D01*
X016058Y007329D01*
X016046Y007314D01*
X016031Y007302D01*
X016015Y007292D01*
X015996Y007287D01*
X015977Y007285D01*
X015958Y007287D01*
X015939Y007292D01*
X015923Y007302D01*
X015908Y007314D01*
X015896Y007329D01*
X015886Y007345D01*
X015881Y007364D01*
X015879Y007383D01*
X015879Y007777D02*
X015881Y007796D01*
X015886Y007815D01*
X015896Y007831D01*
X015908Y007846D01*
X015923Y007858D01*
X015939Y007868D01*
X015958Y007873D01*
X015977Y007875D01*
X015996Y007873D01*
X016015Y007868D01*
X016031Y007858D01*
X016046Y007846D01*
X016058Y007831D01*
X016068Y007815D01*
X016073Y007796D01*
X016075Y007777D01*
X016073Y007758D01*
X016068Y007739D01*
X016058Y007723D01*
X016046Y007708D01*
X016031Y007696D01*
X016015Y007686D01*
X015996Y007681D01*
X015977Y007679D01*
X015958Y007681D01*
X015939Y007686D01*
X015923Y007696D01*
X015908Y007708D01*
X015896Y007723D01*
X015886Y007739D01*
X015881Y007758D01*
X015879Y007777D01*
X015938Y008368D02*
X015938Y015061D01*
X015940Y015101D01*
X015945Y015141D01*
X015955Y015179D01*
X015967Y015217D01*
X015983Y015254D01*
X016003Y015289D01*
X016025Y015322D01*
X016051Y015353D01*
X016079Y015381D01*
X016110Y015407D01*
X016143Y015429D01*
X016178Y015449D01*
X016215Y015465D01*
X016253Y015477D01*
X016291Y015487D01*
X016331Y015492D01*
X016371Y015494D01*
X016411Y015492D01*
X016451Y015487D01*
X016489Y015477D01*
X016527Y015465D01*
X016564Y015449D01*
X016599Y015429D01*
X016632Y015407D01*
X016663Y015381D01*
X016691Y015353D01*
X016717Y015322D01*
X016739Y015289D01*
X016759Y015254D01*
X016775Y015217D01*
X016787Y015179D01*
X016797Y015141D01*
X016802Y015101D01*
X016804Y015061D01*
X016804Y008368D01*
X016802Y008328D01*
X016797Y008288D01*
X016787Y008250D01*
X016775Y008212D01*
X016759Y008175D01*
X016739Y008140D01*
X016717Y008107D01*
X016691Y008076D01*
X016663Y008048D01*
X016632Y008022D01*
X016599Y008000D01*
X016564Y007980D01*
X016527Y007964D01*
X016489Y007952D01*
X016451Y007942D01*
X016411Y007937D01*
X016371Y007935D01*
X016331Y007937D01*
X016291Y007942D01*
X016253Y007952D01*
X016215Y007964D01*
X016178Y007980D01*
X016143Y008000D01*
X016110Y008022D01*
X016079Y008048D01*
X016051Y008076D01*
X016025Y008107D01*
X016003Y008140D01*
X015983Y008175D01*
X015967Y008212D01*
X015955Y008250D01*
X015945Y008288D01*
X015940Y008328D01*
X015938Y008368D01*
X016667Y007777D02*
X016669Y007796D01*
X016674Y007815D01*
X016684Y007831D01*
X016696Y007846D01*
X016711Y007858D01*
X016727Y007868D01*
X016746Y007873D01*
X016765Y007875D01*
X016784Y007873D01*
X016803Y007868D01*
X016819Y007858D01*
X016834Y007846D01*
X016846Y007831D01*
X016856Y007815D01*
X016861Y007796D01*
X016863Y007777D01*
X016861Y007758D01*
X016856Y007739D01*
X016846Y007723D01*
X016834Y007708D01*
X016819Y007696D01*
X016803Y007686D01*
X016784Y007681D01*
X016765Y007679D01*
X016746Y007681D01*
X016727Y007686D01*
X016711Y007696D01*
X016696Y007708D01*
X016684Y007723D01*
X016674Y007739D01*
X016669Y007758D01*
X016667Y007777D01*
X016667Y007383D02*
X016669Y007402D01*
X016674Y007421D01*
X016684Y007437D01*
X016696Y007452D01*
X016711Y007464D01*
X016727Y007474D01*
X016746Y007479D01*
X016765Y007481D01*
X016784Y007479D01*
X016803Y007474D01*
X016819Y007464D01*
X016834Y007452D01*
X016846Y007437D01*
X016856Y007421D01*
X016861Y007402D01*
X016863Y007383D01*
X016861Y007364D01*
X016856Y007345D01*
X016846Y007329D01*
X016834Y007314D01*
X016819Y007302D01*
X016803Y007292D01*
X016784Y007287D01*
X016765Y007285D01*
X016746Y007287D01*
X016727Y007292D01*
X016711Y007302D01*
X016696Y007314D01*
X016684Y007329D01*
X016674Y007345D01*
X016669Y007364D01*
X016667Y007383D01*
X016667Y006990D02*
X016669Y007009D01*
X016674Y007028D01*
X016684Y007044D01*
X016696Y007059D01*
X016711Y007071D01*
X016727Y007081D01*
X016746Y007086D01*
X016765Y007088D01*
X016784Y007086D01*
X016803Y007081D01*
X016819Y007071D01*
X016834Y007059D01*
X016846Y007044D01*
X016856Y007028D01*
X016861Y007009D01*
X016863Y006990D01*
X016861Y006971D01*
X016856Y006952D01*
X016846Y006936D01*
X016834Y006921D01*
X016819Y006909D01*
X016803Y006899D01*
X016784Y006894D01*
X016765Y006892D01*
X016746Y006894D01*
X016727Y006899D01*
X016711Y006909D01*
X016696Y006921D01*
X016684Y006936D01*
X016674Y006952D01*
X016669Y006971D01*
X016667Y006990D01*
X016667Y006596D02*
X016669Y006615D01*
X016674Y006634D01*
X016684Y006650D01*
X016696Y006665D01*
X016711Y006677D01*
X016727Y006687D01*
X016746Y006692D01*
X016765Y006694D01*
X016784Y006692D01*
X016803Y006687D01*
X016819Y006677D01*
X016834Y006665D01*
X016846Y006650D01*
X016856Y006634D01*
X016861Y006615D01*
X016863Y006596D01*
X016861Y006577D01*
X016856Y006558D01*
X016846Y006542D01*
X016834Y006527D01*
X016819Y006515D01*
X016803Y006505D01*
X016784Y006500D01*
X016765Y006498D01*
X016746Y006500D01*
X016727Y006505D01*
X016711Y006515D01*
X016696Y006527D01*
X016684Y006542D01*
X016674Y006558D01*
X016669Y006577D01*
X016667Y006596D01*
X016667Y006202D02*
X016669Y006221D01*
X016674Y006240D01*
X016684Y006256D01*
X016696Y006271D01*
X016711Y006283D01*
X016727Y006293D01*
X016746Y006298D01*
X016765Y006300D01*
X016784Y006298D01*
X016803Y006293D01*
X016819Y006283D01*
X016834Y006271D01*
X016846Y006256D01*
X016856Y006240D01*
X016861Y006221D01*
X016863Y006202D01*
X016861Y006183D01*
X016856Y006164D01*
X016846Y006148D01*
X016834Y006133D01*
X016819Y006121D01*
X016803Y006111D01*
X016784Y006106D01*
X016765Y006104D01*
X016746Y006106D01*
X016727Y006111D01*
X016711Y006121D01*
X016696Y006133D01*
X016684Y006148D01*
X016674Y006164D01*
X016669Y006183D01*
X016667Y006202D01*
X017749Y003840D02*
X017749Y019588D01*
X016805Y019892D02*
X016807Y019943D01*
X016812Y019995D01*
X016820Y020046D01*
X016832Y020096D01*
X016847Y020145D01*
X016865Y020193D01*
X016886Y020240D01*
X016910Y020286D01*
X016938Y020329D01*
X016968Y020371D01*
X017000Y020411D01*
X017036Y020448D01*
X017749Y019588D02*
X017751Y019629D01*
X017757Y019669D01*
X017766Y019709D01*
X017779Y019748D01*
X017795Y019785D01*
X017815Y019821D01*
X017838Y019855D01*
X017865Y019886D01*
X017894Y019915D01*
X017925Y019942D01*
X017959Y019965D01*
X017995Y019985D01*
X018032Y020001D01*
X018071Y020014D01*
X018111Y020023D01*
X018151Y020029D01*
X018192Y020031D01*
X018233Y020029D01*
X018273Y020023D01*
X018313Y020014D01*
X018352Y020001D01*
X018389Y019985D01*
X018425Y019965D01*
X018459Y019942D01*
X018490Y019915D01*
X018519Y019886D01*
X018546Y019855D01*
X018569Y019821D01*
X018589Y019785D01*
X018605Y019748D01*
X018618Y019709D01*
X018627Y019669D01*
X018633Y019629D01*
X018635Y019588D01*
X019619Y019588D01*
X019621Y019629D01*
X019627Y019669D01*
X019636Y019709D01*
X019649Y019748D01*
X019665Y019785D01*
X019685Y019821D01*
X019708Y019855D01*
X019735Y019886D01*
X019764Y019915D01*
X019795Y019942D01*
X019829Y019965D01*
X019865Y019985D01*
X019902Y020001D01*
X019941Y020014D01*
X019981Y020023D01*
X020021Y020029D01*
X020062Y020031D01*
X020103Y020029D01*
X020143Y020023D01*
X020183Y020014D01*
X020222Y020001D01*
X020259Y019985D01*
X020295Y019965D01*
X020329Y019942D01*
X020360Y019915D01*
X020389Y019886D01*
X020416Y019855D01*
X020439Y019821D01*
X020459Y019785D01*
X020475Y019748D01*
X020488Y019709D01*
X020497Y019669D01*
X020503Y019629D01*
X020505Y019588D01*
X020505Y003840D01*
X021449Y003536D02*
X021447Y003485D01*
X021442Y003433D01*
X021434Y003382D01*
X021422Y003332D01*
X021407Y003283D01*
X021389Y003235D01*
X021368Y003188D01*
X021344Y003142D01*
X021316Y003099D01*
X021286Y003057D01*
X021254Y003017D01*
X021218Y002980D01*
X020505Y003840D02*
X020503Y003799D01*
X020497Y003759D01*
X020488Y003719D01*
X020475Y003680D01*
X020459Y003643D01*
X020439Y003607D01*
X020416Y003573D01*
X020389Y003542D01*
X020360Y003513D01*
X020329Y003486D01*
X020295Y003463D01*
X020259Y003443D01*
X020222Y003427D01*
X020183Y003414D01*
X020143Y003405D01*
X020103Y003399D01*
X020062Y003397D01*
X020021Y003399D01*
X019981Y003405D01*
X019941Y003414D01*
X019902Y003427D01*
X019865Y003443D01*
X019829Y003463D01*
X019795Y003486D01*
X019764Y003513D01*
X019735Y003542D01*
X019708Y003573D01*
X019685Y003607D01*
X019665Y003643D01*
X019649Y003680D01*
X019636Y003719D01*
X019627Y003759D01*
X019621Y003799D01*
X019619Y003840D01*
X018635Y003840D01*
X018633Y003799D01*
X018627Y003759D01*
X018618Y003719D01*
X018605Y003680D01*
X018589Y003643D01*
X018569Y003607D01*
X018546Y003573D01*
X018519Y003542D01*
X018490Y003513D01*
X018459Y003486D01*
X018425Y003463D01*
X018389Y003443D01*
X018352Y003427D01*
X018313Y003414D01*
X018273Y003405D01*
X018233Y003399D01*
X018192Y003397D01*
X018151Y003399D01*
X018111Y003405D01*
X018071Y003414D01*
X018032Y003427D01*
X017995Y003443D01*
X017959Y003463D01*
X017925Y003486D01*
X017894Y003513D01*
X017865Y003542D01*
X017838Y003573D01*
X017815Y003607D01*
X017795Y003643D01*
X017779Y003680D01*
X017766Y003719D01*
X017757Y003759D01*
X017751Y003799D01*
X017749Y003840D01*
X021391Y006202D02*
X021393Y006221D01*
X021398Y006240D01*
X021408Y006256D01*
X021420Y006271D01*
X021435Y006283D01*
X021451Y006293D01*
X021470Y006298D01*
X021489Y006300D01*
X021508Y006298D01*
X021527Y006293D01*
X021543Y006283D01*
X021558Y006271D01*
X021570Y006256D01*
X021580Y006240D01*
X021585Y006221D01*
X021587Y006202D01*
X021585Y006183D01*
X021580Y006164D01*
X021570Y006148D01*
X021558Y006133D01*
X021543Y006121D01*
X021527Y006111D01*
X021508Y006106D01*
X021489Y006104D01*
X021470Y006106D01*
X021451Y006111D01*
X021435Y006121D01*
X021420Y006133D01*
X021408Y006148D01*
X021398Y006164D01*
X021393Y006183D01*
X021391Y006202D01*
X021391Y006596D02*
X021393Y006615D01*
X021398Y006634D01*
X021408Y006650D01*
X021420Y006665D01*
X021435Y006677D01*
X021451Y006687D01*
X021470Y006692D01*
X021489Y006694D01*
X021508Y006692D01*
X021527Y006687D01*
X021543Y006677D01*
X021558Y006665D01*
X021570Y006650D01*
X021580Y006634D01*
X021585Y006615D01*
X021587Y006596D01*
X021585Y006577D01*
X021580Y006558D01*
X021570Y006542D01*
X021558Y006527D01*
X021543Y006515D01*
X021527Y006505D01*
X021508Y006500D01*
X021489Y006498D01*
X021470Y006500D01*
X021451Y006505D01*
X021435Y006515D01*
X021420Y006527D01*
X021408Y006542D01*
X021398Y006558D01*
X021393Y006577D01*
X021391Y006596D01*
X021391Y006990D02*
X021393Y007009D01*
X021398Y007028D01*
X021408Y007044D01*
X021420Y007059D01*
X021435Y007071D01*
X021451Y007081D01*
X021470Y007086D01*
X021489Y007088D01*
X021508Y007086D01*
X021527Y007081D01*
X021543Y007071D01*
X021558Y007059D01*
X021570Y007044D01*
X021580Y007028D01*
X021585Y007009D01*
X021587Y006990D01*
X021585Y006971D01*
X021580Y006952D01*
X021570Y006936D01*
X021558Y006921D01*
X021543Y006909D01*
X021527Y006899D01*
X021508Y006894D01*
X021489Y006892D01*
X021470Y006894D01*
X021451Y006899D01*
X021435Y006909D01*
X021420Y006921D01*
X021408Y006936D01*
X021398Y006952D01*
X021393Y006971D01*
X021391Y006990D01*
X021391Y007383D02*
X021393Y007402D01*
X021398Y007421D01*
X021408Y007437D01*
X021420Y007452D01*
X021435Y007464D01*
X021451Y007474D01*
X021470Y007479D01*
X021489Y007481D01*
X021508Y007479D01*
X021527Y007474D01*
X021543Y007464D01*
X021558Y007452D01*
X021570Y007437D01*
X021580Y007421D01*
X021585Y007402D01*
X021587Y007383D01*
X021585Y007364D01*
X021580Y007345D01*
X021570Y007329D01*
X021558Y007314D01*
X021543Y007302D01*
X021527Y007292D01*
X021508Y007287D01*
X021489Y007285D01*
X021470Y007287D01*
X021451Y007292D01*
X021435Y007302D01*
X021420Y007314D01*
X021408Y007329D01*
X021398Y007345D01*
X021393Y007364D01*
X021391Y007383D01*
X021391Y007777D02*
X021393Y007796D01*
X021398Y007815D01*
X021408Y007831D01*
X021420Y007846D01*
X021435Y007858D01*
X021451Y007868D01*
X021470Y007873D01*
X021489Y007875D01*
X021508Y007873D01*
X021527Y007868D01*
X021543Y007858D01*
X021558Y007846D01*
X021570Y007831D01*
X021580Y007815D01*
X021585Y007796D01*
X021587Y007777D01*
X021585Y007758D01*
X021580Y007739D01*
X021570Y007723D01*
X021558Y007708D01*
X021543Y007696D01*
X021527Y007686D01*
X021508Y007681D01*
X021489Y007679D01*
X021470Y007681D01*
X021451Y007686D01*
X021435Y007696D01*
X021420Y007708D01*
X021408Y007723D01*
X021398Y007739D01*
X021393Y007758D01*
X021391Y007777D01*
X021450Y008368D02*
X021450Y015061D01*
X021452Y015101D01*
X021457Y015141D01*
X021467Y015179D01*
X021479Y015217D01*
X021495Y015254D01*
X021515Y015289D01*
X021537Y015322D01*
X021563Y015353D01*
X021591Y015381D01*
X021622Y015407D01*
X021655Y015429D01*
X021690Y015449D01*
X021727Y015465D01*
X021765Y015477D01*
X021803Y015487D01*
X021843Y015492D01*
X021883Y015494D01*
X021923Y015492D01*
X021963Y015487D01*
X022001Y015477D01*
X022039Y015465D01*
X022076Y015449D01*
X022111Y015429D01*
X022144Y015407D01*
X022175Y015381D01*
X022203Y015353D01*
X022229Y015322D01*
X022251Y015289D01*
X022271Y015254D01*
X022287Y015217D01*
X022299Y015179D01*
X022309Y015141D01*
X022314Y015101D01*
X022316Y015061D01*
X022316Y008368D01*
X022314Y008328D01*
X022309Y008288D01*
X022299Y008250D01*
X022287Y008212D01*
X022271Y008175D01*
X022251Y008140D01*
X022229Y008107D01*
X022203Y008076D01*
X022175Y008048D01*
X022144Y008022D01*
X022111Y008000D01*
X022076Y007980D01*
X022039Y007964D01*
X022001Y007952D01*
X021963Y007942D01*
X021923Y007937D01*
X021883Y007935D01*
X021843Y007937D01*
X021803Y007942D01*
X021765Y007952D01*
X021727Y007964D01*
X021690Y007980D01*
X021655Y008000D01*
X021622Y008022D01*
X021591Y008048D01*
X021563Y008076D01*
X021537Y008107D01*
X021515Y008140D01*
X021495Y008175D01*
X021479Y008212D01*
X021467Y008250D01*
X021457Y008288D01*
X021452Y008328D01*
X021450Y008368D01*
X022179Y007777D02*
X022181Y007796D01*
X022186Y007815D01*
X022196Y007831D01*
X022208Y007846D01*
X022223Y007858D01*
X022239Y007868D01*
X022258Y007873D01*
X022277Y007875D01*
X022296Y007873D01*
X022315Y007868D01*
X022331Y007858D01*
X022346Y007846D01*
X022358Y007831D01*
X022368Y007815D01*
X022373Y007796D01*
X022375Y007777D01*
X022373Y007758D01*
X022368Y007739D01*
X022358Y007723D01*
X022346Y007708D01*
X022331Y007696D01*
X022315Y007686D01*
X022296Y007681D01*
X022277Y007679D01*
X022258Y007681D01*
X022239Y007686D01*
X022223Y007696D01*
X022208Y007708D01*
X022196Y007723D01*
X022186Y007739D01*
X022181Y007758D01*
X022179Y007777D01*
X022179Y007383D02*
X022181Y007402D01*
X022186Y007421D01*
X022196Y007437D01*
X022208Y007452D01*
X022223Y007464D01*
X022239Y007474D01*
X022258Y007479D01*
X022277Y007481D01*
X022296Y007479D01*
X022315Y007474D01*
X022331Y007464D01*
X022346Y007452D01*
X022358Y007437D01*
X022368Y007421D01*
X022373Y007402D01*
X022375Y007383D01*
X022373Y007364D01*
X022368Y007345D01*
X022358Y007329D01*
X022346Y007314D01*
X022331Y007302D01*
X022315Y007292D01*
X022296Y007287D01*
X022277Y007285D01*
X022258Y007287D01*
X022239Y007292D01*
X022223Y007302D01*
X022208Y007314D01*
X022196Y007329D01*
X022186Y007345D01*
X022181Y007364D01*
X022179Y007383D01*
X022179Y006990D02*
X022181Y007009D01*
X022186Y007028D01*
X022196Y007044D01*
X022208Y007059D01*
X022223Y007071D01*
X022239Y007081D01*
X022258Y007086D01*
X022277Y007088D01*
X022296Y007086D01*
X022315Y007081D01*
X022331Y007071D01*
X022346Y007059D01*
X022358Y007044D01*
X022368Y007028D01*
X022373Y007009D01*
X022375Y006990D01*
X022373Y006971D01*
X022368Y006952D01*
X022358Y006936D01*
X022346Y006921D01*
X022331Y006909D01*
X022315Y006899D01*
X022296Y006894D01*
X022277Y006892D01*
X022258Y006894D01*
X022239Y006899D01*
X022223Y006909D01*
X022208Y006921D01*
X022196Y006936D01*
X022186Y006952D01*
X022181Y006971D01*
X022179Y006990D01*
X022179Y006596D02*
X022181Y006615D01*
X022186Y006634D01*
X022196Y006650D01*
X022208Y006665D01*
X022223Y006677D01*
X022239Y006687D01*
X022258Y006692D01*
X022277Y006694D01*
X022296Y006692D01*
X022315Y006687D01*
X022331Y006677D01*
X022346Y006665D01*
X022358Y006650D01*
X022368Y006634D01*
X022373Y006615D01*
X022375Y006596D01*
X022373Y006577D01*
X022368Y006558D01*
X022358Y006542D01*
X022346Y006527D01*
X022331Y006515D01*
X022315Y006505D01*
X022296Y006500D01*
X022277Y006498D01*
X022258Y006500D01*
X022239Y006505D01*
X022223Y006515D01*
X022208Y006527D01*
X022196Y006542D01*
X022186Y006558D01*
X022181Y006577D01*
X022179Y006596D01*
X022179Y006202D02*
X022181Y006221D01*
X022186Y006240D01*
X022196Y006256D01*
X022208Y006271D01*
X022223Y006283D01*
X022239Y006293D01*
X022258Y006298D01*
X022277Y006300D01*
X022296Y006298D01*
X022315Y006293D01*
X022331Y006283D01*
X022346Y006271D01*
X022358Y006256D01*
X022368Y006240D01*
X022373Y006221D01*
X022375Y006202D01*
X022373Y006183D01*
X022368Y006164D01*
X022358Y006148D01*
X022346Y006133D01*
X022331Y006121D01*
X022315Y006111D01*
X022296Y006106D01*
X022277Y006104D01*
X022258Y006106D01*
X022239Y006111D01*
X022223Y006121D01*
X022208Y006133D01*
X022196Y006148D01*
X022186Y006164D01*
X022181Y006183D01*
X022179Y006202D01*
X023261Y003840D02*
X023261Y019588D01*
X022316Y019892D02*
X022318Y019943D01*
X022323Y019995D01*
X022331Y020046D01*
X022343Y020096D01*
X022358Y020145D01*
X022376Y020193D01*
X022397Y020240D01*
X022421Y020286D01*
X022449Y020329D01*
X022479Y020371D01*
X022511Y020411D01*
X022547Y020448D01*
X023261Y019588D02*
X023263Y019629D01*
X023269Y019669D01*
X023278Y019709D01*
X023291Y019748D01*
X023307Y019785D01*
X023327Y019821D01*
X023350Y019855D01*
X023377Y019886D01*
X023406Y019915D01*
X023437Y019942D01*
X023471Y019965D01*
X023507Y019985D01*
X023544Y020001D01*
X023583Y020014D01*
X023623Y020023D01*
X023663Y020029D01*
X023704Y020031D01*
X023745Y020029D01*
X023785Y020023D01*
X023825Y020014D01*
X023864Y020001D01*
X023901Y019985D01*
X023937Y019965D01*
X023971Y019942D01*
X024002Y019915D01*
X024031Y019886D01*
X024058Y019855D01*
X024081Y019821D01*
X024101Y019785D01*
X024117Y019748D01*
X024130Y019709D01*
X024139Y019669D01*
X024145Y019629D01*
X024147Y019588D01*
X025131Y019588D01*
X025133Y019629D01*
X025139Y019669D01*
X025148Y019709D01*
X025161Y019748D01*
X025177Y019785D01*
X025197Y019821D01*
X025220Y019855D01*
X025247Y019886D01*
X025276Y019915D01*
X025307Y019942D01*
X025341Y019965D01*
X025377Y019985D01*
X025414Y020001D01*
X025453Y020014D01*
X025493Y020023D01*
X025533Y020029D01*
X025574Y020031D01*
X025615Y020029D01*
X025655Y020023D01*
X025695Y020014D01*
X025734Y020001D01*
X025771Y019985D01*
X025807Y019965D01*
X025841Y019942D01*
X025872Y019915D01*
X025901Y019886D01*
X025928Y019855D01*
X025951Y019821D01*
X025971Y019785D01*
X025987Y019748D01*
X026000Y019709D01*
X026009Y019669D01*
X026015Y019629D01*
X026017Y019588D01*
X026017Y003840D01*
X026961Y003536D02*
X026959Y003485D01*
X026954Y003433D01*
X026946Y003382D01*
X026934Y003332D01*
X026919Y003283D01*
X026901Y003235D01*
X026880Y003188D01*
X026856Y003142D01*
X026828Y003099D01*
X026798Y003057D01*
X026766Y003017D01*
X026730Y002980D01*
X026017Y003840D02*
X026015Y003799D01*
X026009Y003759D01*
X026000Y003719D01*
X025987Y003680D01*
X025971Y003643D01*
X025951Y003607D01*
X025928Y003573D01*
X025901Y003542D01*
X025872Y003513D01*
X025841Y003486D01*
X025807Y003463D01*
X025771Y003443D01*
X025734Y003427D01*
X025695Y003414D01*
X025655Y003405D01*
X025615Y003399D01*
X025574Y003397D01*
X025533Y003399D01*
X025493Y003405D01*
X025453Y003414D01*
X025414Y003427D01*
X025377Y003443D01*
X025341Y003463D01*
X025307Y003486D01*
X025276Y003513D01*
X025247Y003542D01*
X025220Y003573D01*
X025197Y003607D01*
X025177Y003643D01*
X025161Y003680D01*
X025148Y003719D01*
X025139Y003759D01*
X025133Y003799D01*
X025131Y003840D01*
X024147Y003840D01*
X024145Y003799D01*
X024139Y003759D01*
X024130Y003719D01*
X024117Y003680D01*
X024101Y003643D01*
X024081Y003607D01*
X024058Y003573D01*
X024031Y003542D01*
X024002Y003513D01*
X023971Y003486D01*
X023937Y003463D01*
X023901Y003443D01*
X023864Y003427D01*
X023825Y003414D01*
X023785Y003405D01*
X023745Y003399D01*
X023704Y003397D01*
X023663Y003399D01*
X023623Y003405D01*
X023583Y003414D01*
X023544Y003427D01*
X023507Y003443D01*
X023471Y003463D01*
X023437Y003486D01*
X023406Y003513D01*
X023377Y003542D01*
X023350Y003573D01*
X023327Y003607D01*
X023307Y003643D01*
X023291Y003680D01*
X023278Y003719D01*
X023269Y003759D01*
X023263Y003799D01*
X023261Y003840D01*
X026903Y006202D02*
X026905Y006221D01*
X026910Y006240D01*
X026920Y006256D01*
X026932Y006271D01*
X026947Y006283D01*
X026963Y006293D01*
X026982Y006298D01*
X027001Y006300D01*
X027020Y006298D01*
X027039Y006293D01*
X027055Y006283D01*
X027070Y006271D01*
X027082Y006256D01*
X027092Y006240D01*
X027097Y006221D01*
X027099Y006202D01*
X027097Y006183D01*
X027092Y006164D01*
X027082Y006148D01*
X027070Y006133D01*
X027055Y006121D01*
X027039Y006111D01*
X027020Y006106D01*
X027001Y006104D01*
X026982Y006106D01*
X026963Y006111D01*
X026947Y006121D01*
X026932Y006133D01*
X026920Y006148D01*
X026910Y006164D01*
X026905Y006183D01*
X026903Y006202D01*
X026903Y006596D02*
X026905Y006615D01*
X026910Y006634D01*
X026920Y006650D01*
X026932Y006665D01*
X026947Y006677D01*
X026963Y006687D01*
X026982Y006692D01*
X027001Y006694D01*
X027020Y006692D01*
X027039Y006687D01*
X027055Y006677D01*
X027070Y006665D01*
X027082Y006650D01*
X027092Y006634D01*
X027097Y006615D01*
X027099Y006596D01*
X027097Y006577D01*
X027092Y006558D01*
X027082Y006542D01*
X027070Y006527D01*
X027055Y006515D01*
X027039Y006505D01*
X027020Y006500D01*
X027001Y006498D01*
X026982Y006500D01*
X026963Y006505D01*
X026947Y006515D01*
X026932Y006527D01*
X026920Y006542D01*
X026910Y006558D01*
X026905Y006577D01*
X026903Y006596D01*
X026903Y006990D02*
X026905Y007009D01*
X026910Y007028D01*
X026920Y007044D01*
X026932Y007059D01*
X026947Y007071D01*
X026963Y007081D01*
X026982Y007086D01*
X027001Y007088D01*
X027020Y007086D01*
X027039Y007081D01*
X027055Y007071D01*
X027070Y007059D01*
X027082Y007044D01*
X027092Y007028D01*
X027097Y007009D01*
X027099Y006990D01*
X027097Y006971D01*
X027092Y006952D01*
X027082Y006936D01*
X027070Y006921D01*
X027055Y006909D01*
X027039Y006899D01*
X027020Y006894D01*
X027001Y006892D01*
X026982Y006894D01*
X026963Y006899D01*
X026947Y006909D01*
X026932Y006921D01*
X026920Y006936D01*
X026910Y006952D01*
X026905Y006971D01*
X026903Y006990D01*
X026903Y007383D02*
X026905Y007402D01*
X026910Y007421D01*
X026920Y007437D01*
X026932Y007452D01*
X026947Y007464D01*
X026963Y007474D01*
X026982Y007479D01*
X027001Y007481D01*
X027020Y007479D01*
X027039Y007474D01*
X027055Y007464D01*
X027070Y007452D01*
X027082Y007437D01*
X027092Y007421D01*
X027097Y007402D01*
X027099Y007383D01*
X027097Y007364D01*
X027092Y007345D01*
X027082Y007329D01*
X027070Y007314D01*
X027055Y007302D01*
X027039Y007292D01*
X027020Y007287D01*
X027001Y007285D01*
X026982Y007287D01*
X026963Y007292D01*
X026947Y007302D01*
X026932Y007314D01*
X026920Y007329D01*
X026910Y007345D01*
X026905Y007364D01*
X026903Y007383D01*
X026903Y007777D02*
X026905Y007796D01*
X026910Y007815D01*
X026920Y007831D01*
X026932Y007846D01*
X026947Y007858D01*
X026963Y007868D01*
X026982Y007873D01*
X027001Y007875D01*
X027020Y007873D01*
X027039Y007868D01*
X027055Y007858D01*
X027070Y007846D01*
X027082Y007831D01*
X027092Y007815D01*
X027097Y007796D01*
X027099Y007777D01*
X027097Y007758D01*
X027092Y007739D01*
X027082Y007723D01*
X027070Y007708D01*
X027055Y007696D01*
X027039Y007686D01*
X027020Y007681D01*
X027001Y007679D01*
X026982Y007681D01*
X026963Y007686D01*
X026947Y007696D01*
X026932Y007708D01*
X026920Y007723D01*
X026910Y007739D01*
X026905Y007758D01*
X026903Y007777D01*
X026962Y008368D02*
X026962Y015061D01*
X026964Y015101D01*
X026969Y015141D01*
X026979Y015179D01*
X026991Y015217D01*
X027007Y015254D01*
X027027Y015289D01*
X027049Y015322D01*
X027075Y015353D01*
X027103Y015381D01*
X027134Y015407D01*
X027167Y015429D01*
X027202Y015449D01*
X027239Y015465D01*
X027277Y015477D01*
X027315Y015487D01*
X027355Y015492D01*
X027395Y015494D01*
X027435Y015492D01*
X027475Y015487D01*
X027513Y015477D01*
X027551Y015465D01*
X027588Y015449D01*
X027623Y015429D01*
X027656Y015407D01*
X027687Y015381D01*
X027715Y015353D01*
X027741Y015322D01*
X027763Y015289D01*
X027783Y015254D01*
X027799Y015217D01*
X027811Y015179D01*
X027821Y015141D01*
X027826Y015101D01*
X027828Y015061D01*
X027828Y008368D01*
X027826Y008328D01*
X027821Y008288D01*
X027811Y008250D01*
X027799Y008212D01*
X027783Y008175D01*
X027763Y008140D01*
X027741Y008107D01*
X027715Y008076D01*
X027687Y008048D01*
X027656Y008022D01*
X027623Y008000D01*
X027588Y007980D01*
X027551Y007964D01*
X027513Y007952D01*
X027475Y007942D01*
X027435Y007937D01*
X027395Y007935D01*
X027355Y007937D01*
X027315Y007942D01*
X027277Y007952D01*
X027239Y007964D01*
X027202Y007980D01*
X027167Y008000D01*
X027134Y008022D01*
X027103Y008048D01*
X027075Y008076D01*
X027049Y008107D01*
X027027Y008140D01*
X027007Y008175D01*
X026991Y008212D01*
X026979Y008250D01*
X026969Y008288D01*
X026964Y008328D01*
X026962Y008368D01*
X027690Y007777D02*
X027692Y007796D01*
X027697Y007815D01*
X027707Y007831D01*
X027719Y007846D01*
X027734Y007858D01*
X027750Y007868D01*
X027769Y007873D01*
X027788Y007875D01*
X027807Y007873D01*
X027826Y007868D01*
X027842Y007858D01*
X027857Y007846D01*
X027869Y007831D01*
X027879Y007815D01*
X027884Y007796D01*
X027886Y007777D01*
X027884Y007758D01*
X027879Y007739D01*
X027869Y007723D01*
X027857Y007708D01*
X027842Y007696D01*
X027826Y007686D01*
X027807Y007681D01*
X027788Y007679D01*
X027769Y007681D01*
X027750Y007686D01*
X027734Y007696D01*
X027719Y007708D01*
X027707Y007723D01*
X027697Y007739D01*
X027692Y007758D01*
X027690Y007777D01*
X027690Y007383D02*
X027692Y007402D01*
X027697Y007421D01*
X027707Y007437D01*
X027719Y007452D01*
X027734Y007464D01*
X027750Y007474D01*
X027769Y007479D01*
X027788Y007481D01*
X027807Y007479D01*
X027826Y007474D01*
X027842Y007464D01*
X027857Y007452D01*
X027869Y007437D01*
X027879Y007421D01*
X027884Y007402D01*
X027886Y007383D01*
X027884Y007364D01*
X027879Y007345D01*
X027869Y007329D01*
X027857Y007314D01*
X027842Y007302D01*
X027826Y007292D01*
X027807Y007287D01*
X027788Y007285D01*
X027769Y007287D01*
X027750Y007292D01*
X027734Y007302D01*
X027719Y007314D01*
X027707Y007329D01*
X027697Y007345D01*
X027692Y007364D01*
X027690Y007383D01*
X027690Y006990D02*
X027692Y007009D01*
X027697Y007028D01*
X027707Y007044D01*
X027719Y007059D01*
X027734Y007071D01*
X027750Y007081D01*
X027769Y007086D01*
X027788Y007088D01*
X027807Y007086D01*
X027826Y007081D01*
X027842Y007071D01*
X027857Y007059D01*
X027869Y007044D01*
X027879Y007028D01*
X027884Y007009D01*
X027886Y006990D01*
X027884Y006971D01*
X027879Y006952D01*
X027869Y006936D01*
X027857Y006921D01*
X027842Y006909D01*
X027826Y006899D01*
X027807Y006894D01*
X027788Y006892D01*
X027769Y006894D01*
X027750Y006899D01*
X027734Y006909D01*
X027719Y006921D01*
X027707Y006936D01*
X027697Y006952D01*
X027692Y006971D01*
X027690Y006990D01*
X027690Y006596D02*
X027692Y006615D01*
X027697Y006634D01*
X027707Y006650D01*
X027719Y006665D01*
X027734Y006677D01*
X027750Y006687D01*
X027769Y006692D01*
X027788Y006694D01*
X027807Y006692D01*
X027826Y006687D01*
X027842Y006677D01*
X027857Y006665D01*
X027869Y006650D01*
X027879Y006634D01*
X027884Y006615D01*
X027886Y006596D01*
X027884Y006577D01*
X027879Y006558D01*
X027869Y006542D01*
X027857Y006527D01*
X027842Y006515D01*
X027826Y006505D01*
X027807Y006500D01*
X027788Y006498D01*
X027769Y006500D01*
X027750Y006505D01*
X027734Y006515D01*
X027719Y006527D01*
X027707Y006542D01*
X027697Y006558D01*
X027692Y006577D01*
X027690Y006596D01*
X027690Y006202D02*
X027692Y006221D01*
X027697Y006240D01*
X027707Y006256D01*
X027719Y006271D01*
X027734Y006283D01*
X027750Y006293D01*
X027769Y006298D01*
X027788Y006300D01*
X027807Y006298D01*
X027826Y006293D01*
X027842Y006283D01*
X027857Y006271D01*
X027869Y006256D01*
X027879Y006240D01*
X027884Y006221D01*
X027886Y006202D01*
X027884Y006183D01*
X027879Y006164D01*
X027869Y006148D01*
X027857Y006133D01*
X027842Y006121D01*
X027826Y006111D01*
X027807Y006106D01*
X027788Y006104D01*
X027769Y006106D01*
X027750Y006111D01*
X027734Y006121D01*
X027719Y006133D01*
X027707Y006148D01*
X027697Y006164D01*
X027692Y006183D01*
X027690Y006202D01*
X028773Y003840D02*
X028773Y019588D01*
X027828Y019892D02*
X027830Y019943D01*
X027835Y019995D01*
X027843Y020046D01*
X027855Y020096D01*
X027870Y020145D01*
X027888Y020193D01*
X027909Y020240D01*
X027933Y020286D01*
X027961Y020329D01*
X027991Y020371D01*
X028023Y020411D01*
X028059Y020448D01*
X028773Y019588D02*
X028775Y019629D01*
X028781Y019669D01*
X028790Y019709D01*
X028803Y019748D01*
X028819Y019785D01*
X028839Y019821D01*
X028862Y019855D01*
X028889Y019886D01*
X028918Y019915D01*
X028949Y019942D01*
X028983Y019965D01*
X029019Y019985D01*
X029056Y020001D01*
X029095Y020014D01*
X029135Y020023D01*
X029175Y020029D01*
X029216Y020031D01*
X029257Y020029D01*
X029297Y020023D01*
X029337Y020014D01*
X029376Y020001D01*
X029413Y019985D01*
X029449Y019965D01*
X029483Y019942D01*
X029514Y019915D01*
X029543Y019886D01*
X029570Y019855D01*
X029593Y019821D01*
X029613Y019785D01*
X029629Y019748D01*
X029642Y019709D01*
X029651Y019669D01*
X029657Y019629D01*
X029659Y019588D01*
X030643Y019588D01*
X030645Y019629D01*
X030651Y019669D01*
X030660Y019709D01*
X030673Y019748D01*
X030689Y019785D01*
X030709Y019821D01*
X030732Y019855D01*
X030759Y019886D01*
X030788Y019915D01*
X030819Y019942D01*
X030853Y019965D01*
X030889Y019985D01*
X030926Y020001D01*
X030965Y020014D01*
X031005Y020023D01*
X031045Y020029D01*
X031086Y020031D01*
X031127Y020029D01*
X031167Y020023D01*
X031207Y020014D01*
X031246Y020001D01*
X031283Y019985D01*
X031319Y019965D01*
X031353Y019942D01*
X031384Y019915D01*
X031413Y019886D01*
X031440Y019855D01*
X031463Y019821D01*
X031483Y019785D01*
X031499Y019748D01*
X031512Y019709D01*
X031521Y019669D01*
X031527Y019629D01*
X031529Y019588D01*
X031529Y003840D01*
X032473Y003536D02*
X032471Y003485D01*
X032466Y003433D01*
X032458Y003382D01*
X032446Y003332D01*
X032431Y003283D01*
X032413Y003235D01*
X032392Y003188D01*
X032368Y003142D01*
X032340Y003099D01*
X032310Y003057D01*
X032278Y003017D01*
X032242Y002980D01*
X031529Y003840D02*
X031527Y003799D01*
X031521Y003759D01*
X031512Y003719D01*
X031499Y003680D01*
X031483Y003643D01*
X031463Y003607D01*
X031440Y003573D01*
X031413Y003542D01*
X031384Y003513D01*
X031353Y003486D01*
X031319Y003463D01*
X031283Y003443D01*
X031246Y003427D01*
X031207Y003414D01*
X031167Y003405D01*
X031127Y003399D01*
X031086Y003397D01*
X031045Y003399D01*
X031005Y003405D01*
X030965Y003414D01*
X030926Y003427D01*
X030889Y003443D01*
X030853Y003463D01*
X030819Y003486D01*
X030788Y003513D01*
X030759Y003542D01*
X030732Y003573D01*
X030709Y003607D01*
X030689Y003643D01*
X030673Y003680D01*
X030660Y003719D01*
X030651Y003759D01*
X030645Y003799D01*
X030643Y003840D01*
X029659Y003840D01*
X029657Y003799D01*
X029651Y003759D01*
X029642Y003719D01*
X029629Y003680D01*
X029613Y003643D01*
X029593Y003607D01*
X029570Y003573D01*
X029543Y003542D01*
X029514Y003513D01*
X029483Y003486D01*
X029449Y003463D01*
X029413Y003443D01*
X029376Y003427D01*
X029337Y003414D01*
X029297Y003405D01*
X029257Y003399D01*
X029216Y003397D01*
X029175Y003399D01*
X029135Y003405D01*
X029095Y003414D01*
X029056Y003427D01*
X029019Y003443D01*
X028983Y003463D01*
X028949Y003486D01*
X028918Y003513D01*
X028889Y003542D01*
X028862Y003573D01*
X028839Y003607D01*
X028819Y003643D01*
X028803Y003680D01*
X028790Y003719D01*
X028781Y003759D01*
X028775Y003799D01*
X028773Y003840D01*
X032415Y006202D02*
X032417Y006221D01*
X032422Y006240D01*
X032432Y006256D01*
X032444Y006271D01*
X032459Y006283D01*
X032475Y006293D01*
X032494Y006298D01*
X032513Y006300D01*
X032532Y006298D01*
X032551Y006293D01*
X032567Y006283D01*
X032582Y006271D01*
X032594Y006256D01*
X032604Y006240D01*
X032609Y006221D01*
X032611Y006202D01*
X032609Y006183D01*
X032604Y006164D01*
X032594Y006148D01*
X032582Y006133D01*
X032567Y006121D01*
X032551Y006111D01*
X032532Y006106D01*
X032513Y006104D01*
X032494Y006106D01*
X032475Y006111D01*
X032459Y006121D01*
X032444Y006133D01*
X032432Y006148D01*
X032422Y006164D01*
X032417Y006183D01*
X032415Y006202D01*
X032415Y006596D02*
X032417Y006615D01*
X032422Y006634D01*
X032432Y006650D01*
X032444Y006665D01*
X032459Y006677D01*
X032475Y006687D01*
X032494Y006692D01*
X032513Y006694D01*
X032532Y006692D01*
X032551Y006687D01*
X032567Y006677D01*
X032582Y006665D01*
X032594Y006650D01*
X032604Y006634D01*
X032609Y006615D01*
X032611Y006596D01*
X032609Y006577D01*
X032604Y006558D01*
X032594Y006542D01*
X032582Y006527D01*
X032567Y006515D01*
X032551Y006505D01*
X032532Y006500D01*
X032513Y006498D01*
X032494Y006500D01*
X032475Y006505D01*
X032459Y006515D01*
X032444Y006527D01*
X032432Y006542D01*
X032422Y006558D01*
X032417Y006577D01*
X032415Y006596D01*
X032415Y006990D02*
X032417Y007009D01*
X032422Y007028D01*
X032432Y007044D01*
X032444Y007059D01*
X032459Y007071D01*
X032475Y007081D01*
X032494Y007086D01*
X032513Y007088D01*
X032532Y007086D01*
X032551Y007081D01*
X032567Y007071D01*
X032582Y007059D01*
X032594Y007044D01*
X032604Y007028D01*
X032609Y007009D01*
X032611Y006990D01*
X032609Y006971D01*
X032604Y006952D01*
X032594Y006936D01*
X032582Y006921D01*
X032567Y006909D01*
X032551Y006899D01*
X032532Y006894D01*
X032513Y006892D01*
X032494Y006894D01*
X032475Y006899D01*
X032459Y006909D01*
X032444Y006921D01*
X032432Y006936D01*
X032422Y006952D01*
X032417Y006971D01*
X032415Y006990D01*
X032415Y007383D02*
X032417Y007402D01*
X032422Y007421D01*
X032432Y007437D01*
X032444Y007452D01*
X032459Y007464D01*
X032475Y007474D01*
X032494Y007479D01*
X032513Y007481D01*
X032532Y007479D01*
X032551Y007474D01*
X032567Y007464D01*
X032582Y007452D01*
X032594Y007437D01*
X032604Y007421D01*
X032609Y007402D01*
X032611Y007383D01*
X032609Y007364D01*
X032604Y007345D01*
X032594Y007329D01*
X032582Y007314D01*
X032567Y007302D01*
X032551Y007292D01*
X032532Y007287D01*
X032513Y007285D01*
X032494Y007287D01*
X032475Y007292D01*
X032459Y007302D01*
X032444Y007314D01*
X032432Y007329D01*
X032422Y007345D01*
X032417Y007364D01*
X032415Y007383D01*
X032415Y007777D02*
X032417Y007796D01*
X032422Y007815D01*
X032432Y007831D01*
X032444Y007846D01*
X032459Y007858D01*
X032475Y007868D01*
X032494Y007873D01*
X032513Y007875D01*
X032532Y007873D01*
X032551Y007868D01*
X032567Y007858D01*
X032582Y007846D01*
X032594Y007831D01*
X032604Y007815D01*
X032609Y007796D01*
X032611Y007777D01*
X032609Y007758D01*
X032604Y007739D01*
X032594Y007723D01*
X032582Y007708D01*
X032567Y007696D01*
X032551Y007686D01*
X032532Y007681D01*
X032513Y007679D01*
X032494Y007681D01*
X032475Y007686D01*
X032459Y007696D01*
X032444Y007708D01*
X032432Y007723D01*
X032422Y007739D01*
X032417Y007758D01*
X032415Y007777D01*
X032474Y008368D02*
X032474Y015061D01*
X032476Y015101D01*
X032481Y015141D01*
X032491Y015179D01*
X032503Y015217D01*
X032519Y015254D01*
X032539Y015289D01*
X032561Y015322D01*
X032587Y015353D01*
X032615Y015381D01*
X032646Y015407D01*
X032679Y015429D01*
X032714Y015449D01*
X032751Y015465D01*
X032789Y015477D01*
X032827Y015487D01*
X032867Y015492D01*
X032907Y015494D01*
X032947Y015492D01*
X032987Y015487D01*
X033025Y015477D01*
X033063Y015465D01*
X033100Y015449D01*
X033135Y015429D01*
X033168Y015407D01*
X033199Y015381D01*
X033227Y015353D01*
X033253Y015322D01*
X033275Y015289D01*
X033295Y015254D01*
X033311Y015217D01*
X033323Y015179D01*
X033333Y015141D01*
X033338Y015101D01*
X033340Y015061D01*
X033340Y008368D01*
X033338Y008328D01*
X033333Y008288D01*
X033323Y008250D01*
X033311Y008212D01*
X033295Y008175D01*
X033275Y008140D01*
X033253Y008107D01*
X033227Y008076D01*
X033199Y008048D01*
X033168Y008022D01*
X033135Y008000D01*
X033100Y007980D01*
X033063Y007964D01*
X033025Y007952D01*
X032987Y007942D01*
X032947Y007937D01*
X032907Y007935D01*
X032867Y007937D01*
X032827Y007942D01*
X032789Y007952D01*
X032751Y007964D01*
X032714Y007980D01*
X032679Y008000D01*
X032646Y008022D01*
X032615Y008048D01*
X032587Y008076D01*
X032561Y008107D01*
X032539Y008140D01*
X032519Y008175D01*
X032503Y008212D01*
X032491Y008250D01*
X032481Y008288D01*
X032476Y008328D01*
X032474Y008368D01*
X033202Y007777D02*
X033204Y007796D01*
X033209Y007815D01*
X033219Y007831D01*
X033231Y007846D01*
X033246Y007858D01*
X033262Y007868D01*
X033281Y007873D01*
X033300Y007875D01*
X033319Y007873D01*
X033338Y007868D01*
X033354Y007858D01*
X033369Y007846D01*
X033381Y007831D01*
X033391Y007815D01*
X033396Y007796D01*
X033398Y007777D01*
X033396Y007758D01*
X033391Y007739D01*
X033381Y007723D01*
X033369Y007708D01*
X033354Y007696D01*
X033338Y007686D01*
X033319Y007681D01*
X033300Y007679D01*
X033281Y007681D01*
X033262Y007686D01*
X033246Y007696D01*
X033231Y007708D01*
X033219Y007723D01*
X033209Y007739D01*
X033204Y007758D01*
X033202Y007777D01*
X033202Y007383D02*
X033204Y007402D01*
X033209Y007421D01*
X033219Y007437D01*
X033231Y007452D01*
X033246Y007464D01*
X033262Y007474D01*
X033281Y007479D01*
X033300Y007481D01*
X033319Y007479D01*
X033338Y007474D01*
X033354Y007464D01*
X033369Y007452D01*
X033381Y007437D01*
X033391Y007421D01*
X033396Y007402D01*
X033398Y007383D01*
X033396Y007364D01*
X033391Y007345D01*
X033381Y007329D01*
X033369Y007314D01*
X033354Y007302D01*
X033338Y007292D01*
X033319Y007287D01*
X033300Y007285D01*
X033281Y007287D01*
X033262Y007292D01*
X033246Y007302D01*
X033231Y007314D01*
X033219Y007329D01*
X033209Y007345D01*
X033204Y007364D01*
X033202Y007383D01*
X033202Y006990D02*
X033204Y007009D01*
X033209Y007028D01*
X033219Y007044D01*
X033231Y007059D01*
X033246Y007071D01*
X033262Y007081D01*
X033281Y007086D01*
X033300Y007088D01*
X033319Y007086D01*
X033338Y007081D01*
X033354Y007071D01*
X033369Y007059D01*
X033381Y007044D01*
X033391Y007028D01*
X033396Y007009D01*
X033398Y006990D01*
X033396Y006971D01*
X033391Y006952D01*
X033381Y006936D01*
X033369Y006921D01*
X033354Y006909D01*
X033338Y006899D01*
X033319Y006894D01*
X033300Y006892D01*
X033281Y006894D01*
X033262Y006899D01*
X033246Y006909D01*
X033231Y006921D01*
X033219Y006936D01*
X033209Y006952D01*
X033204Y006971D01*
X033202Y006990D01*
X033202Y006596D02*
X033204Y006615D01*
X033209Y006634D01*
X033219Y006650D01*
X033231Y006665D01*
X033246Y006677D01*
X033262Y006687D01*
X033281Y006692D01*
X033300Y006694D01*
X033319Y006692D01*
X033338Y006687D01*
X033354Y006677D01*
X033369Y006665D01*
X033381Y006650D01*
X033391Y006634D01*
X033396Y006615D01*
X033398Y006596D01*
X033396Y006577D01*
X033391Y006558D01*
X033381Y006542D01*
X033369Y006527D01*
X033354Y006515D01*
X033338Y006505D01*
X033319Y006500D01*
X033300Y006498D01*
X033281Y006500D01*
X033262Y006505D01*
X033246Y006515D01*
X033231Y006527D01*
X033219Y006542D01*
X033209Y006558D01*
X033204Y006577D01*
X033202Y006596D01*
X033202Y006202D02*
X033204Y006221D01*
X033209Y006240D01*
X033219Y006256D01*
X033231Y006271D01*
X033246Y006283D01*
X033262Y006293D01*
X033281Y006298D01*
X033300Y006300D01*
X033319Y006298D01*
X033338Y006293D01*
X033354Y006283D01*
X033369Y006271D01*
X033381Y006256D01*
X033391Y006240D01*
X033396Y006221D01*
X033398Y006202D01*
X033396Y006183D01*
X033391Y006164D01*
X033381Y006148D01*
X033369Y006133D01*
X033354Y006121D01*
X033338Y006111D01*
X033319Y006106D01*
X033300Y006104D01*
X033281Y006106D01*
X033262Y006111D01*
X033246Y006121D01*
X033231Y006133D01*
X033219Y006148D01*
X033209Y006164D01*
X033204Y006183D01*
X033202Y006202D01*
X034285Y003840D02*
X034285Y019588D01*
X033340Y019892D02*
X033342Y019943D01*
X033347Y019995D01*
X033355Y020046D01*
X033367Y020096D01*
X033382Y020145D01*
X033400Y020193D01*
X033421Y020240D01*
X033445Y020286D01*
X033473Y020329D01*
X033503Y020371D01*
X033535Y020411D01*
X033571Y020448D01*
X034284Y019588D02*
X034286Y019629D01*
X034292Y019669D01*
X034301Y019709D01*
X034314Y019748D01*
X034330Y019785D01*
X034350Y019821D01*
X034373Y019855D01*
X034400Y019886D01*
X034429Y019915D01*
X034460Y019942D01*
X034494Y019965D01*
X034530Y019985D01*
X034567Y020001D01*
X034606Y020014D01*
X034646Y020023D01*
X034686Y020029D01*
X034727Y020031D01*
X034768Y020029D01*
X034808Y020023D01*
X034848Y020014D01*
X034887Y020001D01*
X034924Y019985D01*
X034960Y019965D01*
X034994Y019942D01*
X035025Y019915D01*
X035054Y019886D01*
X035081Y019855D01*
X035104Y019821D01*
X035124Y019785D01*
X035140Y019748D01*
X035153Y019709D01*
X035162Y019669D01*
X035168Y019629D01*
X035170Y019588D01*
X036155Y019588D01*
X036157Y019629D01*
X036163Y019669D01*
X036172Y019709D01*
X036185Y019748D01*
X036201Y019785D01*
X036221Y019821D01*
X036244Y019855D01*
X036271Y019886D01*
X036300Y019915D01*
X036331Y019942D01*
X036365Y019965D01*
X036401Y019985D01*
X036438Y020001D01*
X036477Y020014D01*
X036517Y020023D01*
X036557Y020029D01*
X036598Y020031D01*
X036639Y020029D01*
X036679Y020023D01*
X036719Y020014D01*
X036758Y020001D01*
X036795Y019985D01*
X036831Y019965D01*
X036865Y019942D01*
X036896Y019915D01*
X036925Y019886D01*
X036952Y019855D01*
X036975Y019821D01*
X036995Y019785D01*
X037011Y019748D01*
X037024Y019709D01*
X037033Y019669D01*
X037039Y019629D01*
X037041Y019588D01*
X037040Y019588D02*
X037040Y003840D01*
X037985Y003536D02*
X037983Y003485D01*
X037978Y003433D01*
X037970Y003382D01*
X037958Y003332D01*
X037943Y003283D01*
X037925Y003235D01*
X037904Y003188D01*
X037880Y003142D01*
X037852Y003099D01*
X037822Y003057D01*
X037790Y003017D01*
X037754Y002980D01*
X037041Y003840D02*
X037039Y003799D01*
X037033Y003759D01*
X037024Y003719D01*
X037011Y003680D01*
X036995Y003643D01*
X036975Y003607D01*
X036952Y003573D01*
X036925Y003542D01*
X036896Y003513D01*
X036865Y003486D01*
X036831Y003463D01*
X036795Y003443D01*
X036758Y003427D01*
X036719Y003414D01*
X036679Y003405D01*
X036639Y003399D01*
X036598Y003397D01*
X036557Y003399D01*
X036517Y003405D01*
X036477Y003414D01*
X036438Y003427D01*
X036401Y003443D01*
X036365Y003463D01*
X036331Y003486D01*
X036300Y003513D01*
X036271Y003542D01*
X036244Y003573D01*
X036221Y003607D01*
X036201Y003643D01*
X036185Y003680D01*
X036172Y003719D01*
X036163Y003759D01*
X036157Y003799D01*
X036155Y003840D01*
X035170Y003840D01*
X035168Y003799D01*
X035162Y003759D01*
X035153Y003719D01*
X035140Y003680D01*
X035124Y003643D01*
X035104Y003607D01*
X035081Y003573D01*
X035054Y003542D01*
X035025Y003513D01*
X034994Y003486D01*
X034960Y003463D01*
X034924Y003443D01*
X034887Y003427D01*
X034848Y003414D01*
X034808Y003405D01*
X034768Y003399D01*
X034727Y003397D01*
X034686Y003399D01*
X034646Y003405D01*
X034606Y003414D01*
X034567Y003427D01*
X034530Y003443D01*
X034494Y003463D01*
X034460Y003486D01*
X034429Y003513D01*
X034400Y003542D01*
X034373Y003573D01*
X034350Y003607D01*
X034330Y003643D01*
X034314Y003680D01*
X034301Y003719D01*
X034292Y003759D01*
X034286Y003799D01*
X034284Y003840D01*
X035071Y001084D02*
X035073Y001132D01*
X035079Y001180D01*
X035089Y001227D01*
X035102Y001273D01*
X035120Y001318D01*
X035140Y001362D01*
X035165Y001404D01*
X035193Y001443D01*
X035223Y001480D01*
X035257Y001514D01*
X035294Y001546D01*
X035332Y001575D01*
X035373Y001600D01*
X035416Y001622D01*
X035461Y001640D01*
X035507Y001654D01*
X035554Y001665D01*
X035602Y001672D01*
X035650Y001675D01*
X035698Y001674D01*
X035746Y001669D01*
X035794Y001660D01*
X035840Y001648D01*
X035885Y001631D01*
X035929Y001611D01*
X035971Y001588D01*
X036011Y001561D01*
X036049Y001531D01*
X036084Y001498D01*
X036116Y001462D01*
X036146Y001424D01*
X036172Y001383D01*
X036194Y001340D01*
X036214Y001296D01*
X036229Y001251D01*
X036241Y001204D01*
X036249Y001156D01*
X036253Y001108D01*
X036253Y001060D01*
X036249Y001012D01*
X036241Y000964D01*
X036229Y000917D01*
X036214Y000872D01*
X036194Y000828D01*
X036172Y000785D01*
X036146Y000744D01*
X036116Y000706D01*
X036084Y000670D01*
X036049Y000637D01*
X036011Y000607D01*
X035971Y000580D01*
X035929Y000557D01*
X035885Y000537D01*
X035840Y000520D01*
X035794Y000508D01*
X035746Y000499D01*
X035698Y000494D01*
X035650Y000493D01*
X035602Y000496D01*
X035554Y000503D01*
X035507Y000514D01*
X035461Y000528D01*
X035416Y000546D01*
X035373Y000568D01*
X035332Y000593D01*
X035294Y000622D01*
X035257Y000654D01*
X035223Y000688D01*
X035193Y000725D01*
X035165Y000764D01*
X035140Y000806D01*
X035120Y000850D01*
X035102Y000895D01*
X035089Y000941D01*
X035079Y000988D01*
X035073Y001036D01*
X035071Y001084D01*
X029560Y001084D02*
X029562Y001132D01*
X029568Y001180D01*
X029578Y001227D01*
X029591Y001273D01*
X029609Y001318D01*
X029629Y001362D01*
X029654Y001404D01*
X029682Y001443D01*
X029712Y001480D01*
X029746Y001514D01*
X029783Y001546D01*
X029821Y001575D01*
X029862Y001600D01*
X029905Y001622D01*
X029950Y001640D01*
X029996Y001654D01*
X030043Y001665D01*
X030091Y001672D01*
X030139Y001675D01*
X030187Y001674D01*
X030235Y001669D01*
X030283Y001660D01*
X030329Y001648D01*
X030374Y001631D01*
X030418Y001611D01*
X030460Y001588D01*
X030500Y001561D01*
X030538Y001531D01*
X030573Y001498D01*
X030605Y001462D01*
X030635Y001424D01*
X030661Y001383D01*
X030683Y001340D01*
X030703Y001296D01*
X030718Y001251D01*
X030730Y001204D01*
X030738Y001156D01*
X030742Y001108D01*
X030742Y001060D01*
X030738Y001012D01*
X030730Y000964D01*
X030718Y000917D01*
X030703Y000872D01*
X030683Y000828D01*
X030661Y000785D01*
X030635Y000744D01*
X030605Y000706D01*
X030573Y000670D01*
X030538Y000637D01*
X030500Y000607D01*
X030460Y000580D01*
X030418Y000557D01*
X030374Y000537D01*
X030329Y000520D01*
X030283Y000508D01*
X030235Y000499D01*
X030187Y000494D01*
X030139Y000493D01*
X030091Y000496D01*
X030043Y000503D01*
X029996Y000514D01*
X029950Y000528D01*
X029905Y000546D01*
X029862Y000568D01*
X029821Y000593D01*
X029783Y000622D01*
X029746Y000654D01*
X029712Y000688D01*
X029682Y000725D01*
X029654Y000764D01*
X029629Y000806D01*
X029609Y000850D01*
X029591Y000895D01*
X029578Y000941D01*
X029568Y000988D01*
X029562Y001036D01*
X029560Y001084D01*
X024048Y001084D02*
X024050Y001132D01*
X024056Y001180D01*
X024066Y001227D01*
X024079Y001273D01*
X024097Y001318D01*
X024117Y001362D01*
X024142Y001404D01*
X024170Y001443D01*
X024200Y001480D01*
X024234Y001514D01*
X024271Y001546D01*
X024309Y001575D01*
X024350Y001600D01*
X024393Y001622D01*
X024438Y001640D01*
X024484Y001654D01*
X024531Y001665D01*
X024579Y001672D01*
X024627Y001675D01*
X024675Y001674D01*
X024723Y001669D01*
X024771Y001660D01*
X024817Y001648D01*
X024862Y001631D01*
X024906Y001611D01*
X024948Y001588D01*
X024988Y001561D01*
X025026Y001531D01*
X025061Y001498D01*
X025093Y001462D01*
X025123Y001424D01*
X025149Y001383D01*
X025171Y001340D01*
X025191Y001296D01*
X025206Y001251D01*
X025218Y001204D01*
X025226Y001156D01*
X025230Y001108D01*
X025230Y001060D01*
X025226Y001012D01*
X025218Y000964D01*
X025206Y000917D01*
X025191Y000872D01*
X025171Y000828D01*
X025149Y000785D01*
X025123Y000744D01*
X025093Y000706D01*
X025061Y000670D01*
X025026Y000637D01*
X024988Y000607D01*
X024948Y000580D01*
X024906Y000557D01*
X024862Y000537D01*
X024817Y000520D01*
X024771Y000508D01*
X024723Y000499D01*
X024675Y000494D01*
X024627Y000493D01*
X024579Y000496D01*
X024531Y000503D01*
X024484Y000514D01*
X024438Y000528D01*
X024393Y000546D01*
X024350Y000568D01*
X024309Y000593D01*
X024271Y000622D01*
X024234Y000654D01*
X024200Y000688D01*
X024170Y000725D01*
X024142Y000764D01*
X024117Y000806D01*
X024097Y000850D01*
X024079Y000895D01*
X024066Y000941D01*
X024056Y000988D01*
X024050Y001036D01*
X024048Y001084D01*
X018536Y001084D02*
X018538Y001132D01*
X018544Y001180D01*
X018554Y001227D01*
X018567Y001273D01*
X018585Y001318D01*
X018605Y001362D01*
X018630Y001404D01*
X018658Y001443D01*
X018688Y001480D01*
X018722Y001514D01*
X018759Y001546D01*
X018797Y001575D01*
X018838Y001600D01*
X018881Y001622D01*
X018926Y001640D01*
X018972Y001654D01*
X019019Y001665D01*
X019067Y001672D01*
X019115Y001675D01*
X019163Y001674D01*
X019211Y001669D01*
X019259Y001660D01*
X019305Y001648D01*
X019350Y001631D01*
X019394Y001611D01*
X019436Y001588D01*
X019476Y001561D01*
X019514Y001531D01*
X019549Y001498D01*
X019581Y001462D01*
X019611Y001424D01*
X019637Y001383D01*
X019659Y001340D01*
X019679Y001296D01*
X019694Y001251D01*
X019706Y001204D01*
X019714Y001156D01*
X019718Y001108D01*
X019718Y001060D01*
X019714Y001012D01*
X019706Y000964D01*
X019694Y000917D01*
X019679Y000872D01*
X019659Y000828D01*
X019637Y000785D01*
X019611Y000744D01*
X019581Y000706D01*
X019549Y000670D01*
X019514Y000637D01*
X019476Y000607D01*
X019436Y000580D01*
X019394Y000557D01*
X019350Y000537D01*
X019305Y000520D01*
X019259Y000508D01*
X019211Y000499D01*
X019163Y000494D01*
X019115Y000493D01*
X019067Y000496D01*
X019019Y000503D01*
X018972Y000514D01*
X018926Y000528D01*
X018881Y000546D01*
X018838Y000568D01*
X018797Y000593D01*
X018759Y000622D01*
X018722Y000654D01*
X018688Y000688D01*
X018658Y000725D01*
X018630Y000764D01*
X018605Y000806D01*
X018585Y000850D01*
X018567Y000895D01*
X018554Y000941D01*
X018544Y000988D01*
X018538Y001036D01*
X018536Y001084D01*
X013024Y001084D02*
X013026Y001132D01*
X013032Y001180D01*
X013042Y001227D01*
X013055Y001273D01*
X013073Y001318D01*
X013093Y001362D01*
X013118Y001404D01*
X013146Y001443D01*
X013176Y001480D01*
X013210Y001514D01*
X013247Y001546D01*
X013285Y001575D01*
X013326Y001600D01*
X013369Y001622D01*
X013414Y001640D01*
X013460Y001654D01*
X013507Y001665D01*
X013555Y001672D01*
X013603Y001675D01*
X013651Y001674D01*
X013699Y001669D01*
X013747Y001660D01*
X013793Y001648D01*
X013838Y001631D01*
X013882Y001611D01*
X013924Y001588D01*
X013964Y001561D01*
X014002Y001531D01*
X014037Y001498D01*
X014069Y001462D01*
X014099Y001424D01*
X014125Y001383D01*
X014147Y001340D01*
X014167Y001296D01*
X014182Y001251D01*
X014194Y001204D01*
X014202Y001156D01*
X014206Y001108D01*
X014206Y001060D01*
X014202Y001012D01*
X014194Y000964D01*
X014182Y000917D01*
X014167Y000872D01*
X014147Y000828D01*
X014125Y000785D01*
X014099Y000744D01*
X014069Y000706D01*
X014037Y000670D01*
X014002Y000637D01*
X013964Y000607D01*
X013924Y000580D01*
X013882Y000557D01*
X013838Y000537D01*
X013793Y000520D01*
X013747Y000508D01*
X013699Y000499D01*
X013651Y000494D01*
X013603Y000493D01*
X013555Y000496D01*
X013507Y000503D01*
X013460Y000514D01*
X013414Y000528D01*
X013369Y000546D01*
X013326Y000568D01*
X013285Y000593D01*
X013247Y000622D01*
X013210Y000654D01*
X013176Y000688D01*
X013146Y000725D01*
X013118Y000764D01*
X013093Y000806D01*
X013073Y000850D01*
X013055Y000895D01*
X013042Y000941D01*
X013032Y000988D01*
X013026Y001036D01*
X013024Y001084D01*
X007512Y001084D02*
X007514Y001132D01*
X007520Y001180D01*
X007530Y001227D01*
X007543Y001273D01*
X007561Y001318D01*
X007581Y001362D01*
X007606Y001404D01*
X007634Y001443D01*
X007664Y001480D01*
X007698Y001514D01*
X007735Y001546D01*
X007773Y001575D01*
X007814Y001600D01*
X007857Y001622D01*
X007902Y001640D01*
X007948Y001654D01*
X007995Y001665D01*
X008043Y001672D01*
X008091Y001675D01*
X008139Y001674D01*
X008187Y001669D01*
X008235Y001660D01*
X008281Y001648D01*
X008326Y001631D01*
X008370Y001611D01*
X008412Y001588D01*
X008452Y001561D01*
X008490Y001531D01*
X008525Y001498D01*
X008557Y001462D01*
X008587Y001424D01*
X008613Y001383D01*
X008635Y001340D01*
X008655Y001296D01*
X008670Y001251D01*
X008682Y001204D01*
X008690Y001156D01*
X008694Y001108D01*
X008694Y001060D01*
X008690Y001012D01*
X008682Y000964D01*
X008670Y000917D01*
X008655Y000872D01*
X008635Y000828D01*
X008613Y000785D01*
X008587Y000744D01*
X008557Y000706D01*
X008525Y000670D01*
X008490Y000637D01*
X008452Y000607D01*
X008412Y000580D01*
X008370Y000557D01*
X008326Y000537D01*
X008281Y000520D01*
X008235Y000508D01*
X008187Y000499D01*
X008139Y000494D01*
X008091Y000493D01*
X008043Y000496D01*
X007995Y000503D01*
X007948Y000514D01*
X007902Y000528D01*
X007857Y000546D01*
X007814Y000568D01*
X007773Y000593D01*
X007735Y000622D01*
X007698Y000654D01*
X007664Y000688D01*
X007634Y000725D01*
X007606Y000764D01*
X007581Y000806D01*
X007561Y000850D01*
X007543Y000895D01*
X007530Y000941D01*
X007520Y000988D01*
X007514Y001036D01*
X007512Y001084D01*
X005643Y015651D02*
X005645Y015670D01*
X005650Y015689D01*
X005660Y015705D01*
X005672Y015720D01*
X005687Y015732D01*
X005703Y015742D01*
X005722Y015747D01*
X005741Y015749D01*
X005760Y015747D01*
X005779Y015742D01*
X005795Y015732D01*
X005810Y015720D01*
X005822Y015705D01*
X005832Y015689D01*
X005837Y015670D01*
X005839Y015651D01*
X005837Y015632D01*
X005832Y015613D01*
X005822Y015597D01*
X005810Y015582D01*
X005795Y015570D01*
X005779Y015560D01*
X005760Y015555D01*
X005741Y015553D01*
X005722Y015555D01*
X005703Y015560D01*
X005687Y015570D01*
X005672Y015582D01*
X005660Y015597D01*
X005650Y015613D01*
X005645Y015632D01*
X005643Y015651D01*
X005643Y016045D02*
X005645Y016064D01*
X005650Y016083D01*
X005660Y016099D01*
X005672Y016114D01*
X005687Y016126D01*
X005703Y016136D01*
X005722Y016141D01*
X005741Y016143D01*
X005760Y016141D01*
X005779Y016136D01*
X005795Y016126D01*
X005810Y016114D01*
X005822Y016099D01*
X005832Y016083D01*
X005837Y016064D01*
X005839Y016045D01*
X005837Y016026D01*
X005832Y016007D01*
X005822Y015991D01*
X005810Y015976D01*
X005795Y015964D01*
X005779Y015954D01*
X005760Y015949D01*
X005741Y015947D01*
X005722Y015949D01*
X005703Y015954D01*
X005687Y015964D01*
X005672Y015976D01*
X005660Y015991D01*
X005650Y016007D01*
X005645Y016026D01*
X005643Y016045D01*
X005643Y016439D02*
X005645Y016458D01*
X005650Y016477D01*
X005660Y016493D01*
X005672Y016508D01*
X005687Y016520D01*
X005703Y016530D01*
X005722Y016535D01*
X005741Y016537D01*
X005760Y016535D01*
X005779Y016530D01*
X005795Y016520D01*
X005810Y016508D01*
X005822Y016493D01*
X005832Y016477D01*
X005837Y016458D01*
X005839Y016439D01*
X005837Y016420D01*
X005832Y016401D01*
X005822Y016385D01*
X005810Y016370D01*
X005795Y016358D01*
X005779Y016348D01*
X005760Y016343D01*
X005741Y016341D01*
X005722Y016343D01*
X005703Y016348D01*
X005687Y016358D01*
X005672Y016370D01*
X005660Y016385D01*
X005650Y016401D01*
X005645Y016420D01*
X005643Y016439D01*
X005643Y016832D02*
X005645Y016851D01*
X005650Y016870D01*
X005660Y016886D01*
X005672Y016901D01*
X005687Y016913D01*
X005703Y016923D01*
X005722Y016928D01*
X005741Y016930D01*
X005760Y016928D01*
X005779Y016923D01*
X005795Y016913D01*
X005810Y016901D01*
X005822Y016886D01*
X005832Y016870D01*
X005837Y016851D01*
X005839Y016832D01*
X005837Y016813D01*
X005832Y016794D01*
X005822Y016778D01*
X005810Y016763D01*
X005795Y016751D01*
X005779Y016741D01*
X005760Y016736D01*
X005741Y016734D01*
X005722Y016736D01*
X005703Y016741D01*
X005687Y016751D01*
X005672Y016763D01*
X005660Y016778D01*
X005650Y016794D01*
X005645Y016813D01*
X005643Y016832D01*
X005643Y017226D02*
X005645Y017245D01*
X005650Y017264D01*
X005660Y017280D01*
X005672Y017295D01*
X005687Y017307D01*
X005703Y017317D01*
X005722Y017322D01*
X005741Y017324D01*
X005760Y017322D01*
X005779Y017317D01*
X005795Y017307D01*
X005810Y017295D01*
X005822Y017280D01*
X005832Y017264D01*
X005837Y017245D01*
X005839Y017226D01*
X005837Y017207D01*
X005832Y017188D01*
X005822Y017172D01*
X005810Y017157D01*
X005795Y017145D01*
X005779Y017135D01*
X005760Y017130D01*
X005741Y017128D01*
X005722Y017130D01*
X005703Y017135D01*
X005687Y017145D01*
X005672Y017157D01*
X005660Y017172D01*
X005650Y017188D01*
X005645Y017207D01*
X005643Y017226D01*
X004856Y017226D02*
X004858Y017245D01*
X004863Y017264D01*
X004873Y017280D01*
X004885Y017295D01*
X004900Y017307D01*
X004916Y017317D01*
X004935Y017322D01*
X004954Y017324D01*
X004973Y017322D01*
X004992Y017317D01*
X005008Y017307D01*
X005023Y017295D01*
X005035Y017280D01*
X005045Y017264D01*
X005050Y017245D01*
X005052Y017226D01*
X005050Y017207D01*
X005045Y017188D01*
X005035Y017172D01*
X005023Y017157D01*
X005008Y017145D01*
X004992Y017135D01*
X004973Y017130D01*
X004954Y017128D01*
X004935Y017130D01*
X004916Y017135D01*
X004900Y017145D01*
X004885Y017157D01*
X004873Y017172D01*
X004863Y017188D01*
X004858Y017207D01*
X004856Y017226D01*
X004856Y016832D02*
X004858Y016851D01*
X004863Y016870D01*
X004873Y016886D01*
X004885Y016901D01*
X004900Y016913D01*
X004916Y016923D01*
X004935Y016928D01*
X004954Y016930D01*
X004973Y016928D01*
X004992Y016923D01*
X005008Y016913D01*
X005023Y016901D01*
X005035Y016886D01*
X005045Y016870D01*
X005050Y016851D01*
X005052Y016832D01*
X005050Y016813D01*
X005045Y016794D01*
X005035Y016778D01*
X005023Y016763D01*
X005008Y016751D01*
X004992Y016741D01*
X004973Y016736D01*
X004954Y016734D01*
X004935Y016736D01*
X004916Y016741D01*
X004900Y016751D01*
X004885Y016763D01*
X004873Y016778D01*
X004863Y016794D01*
X004858Y016813D01*
X004856Y016832D01*
X004856Y016439D02*
X004858Y016458D01*
X004863Y016477D01*
X004873Y016493D01*
X004885Y016508D01*
X004900Y016520D01*
X004916Y016530D01*
X004935Y016535D01*
X004954Y016537D01*
X004973Y016535D01*
X004992Y016530D01*
X005008Y016520D01*
X005023Y016508D01*
X005035Y016493D01*
X005045Y016477D01*
X005050Y016458D01*
X005052Y016439D01*
X005050Y016420D01*
X005045Y016401D01*
X005035Y016385D01*
X005023Y016370D01*
X005008Y016358D01*
X004992Y016348D01*
X004973Y016343D01*
X004954Y016341D01*
X004935Y016343D01*
X004916Y016348D01*
X004900Y016358D01*
X004885Y016370D01*
X004873Y016385D01*
X004863Y016401D01*
X004858Y016420D01*
X004856Y016439D01*
X004856Y016045D02*
X004858Y016064D01*
X004863Y016083D01*
X004873Y016099D01*
X004885Y016114D01*
X004900Y016126D01*
X004916Y016136D01*
X004935Y016141D01*
X004954Y016143D01*
X004973Y016141D01*
X004992Y016136D01*
X005008Y016126D01*
X005023Y016114D01*
X005035Y016099D01*
X005045Y016083D01*
X005050Y016064D01*
X005052Y016045D01*
X005050Y016026D01*
X005045Y016007D01*
X005035Y015991D01*
X005023Y015976D01*
X005008Y015964D01*
X004992Y015954D01*
X004973Y015949D01*
X004954Y015947D01*
X004935Y015949D01*
X004916Y015954D01*
X004900Y015964D01*
X004885Y015976D01*
X004873Y015991D01*
X004863Y016007D01*
X004858Y016026D01*
X004856Y016045D01*
X004856Y015651D02*
X004858Y015670D01*
X004863Y015689D01*
X004873Y015705D01*
X004885Y015720D01*
X004900Y015732D01*
X004916Y015742D01*
X004935Y015747D01*
X004954Y015749D01*
X004973Y015747D01*
X004992Y015742D01*
X005008Y015732D01*
X005023Y015720D01*
X005035Y015705D01*
X005045Y015689D01*
X005050Y015670D01*
X005052Y015651D01*
X005050Y015632D01*
X005045Y015613D01*
X005035Y015597D01*
X005023Y015582D01*
X005008Y015570D01*
X004992Y015560D01*
X004973Y015555D01*
X004954Y015553D01*
X004935Y015555D01*
X004916Y015560D01*
X004900Y015570D01*
X004885Y015582D01*
X004873Y015597D01*
X004863Y015613D01*
X004858Y015632D01*
X004856Y015651D01*
X010368Y015651D02*
X010370Y015670D01*
X010375Y015689D01*
X010385Y015705D01*
X010397Y015720D01*
X010412Y015732D01*
X010428Y015742D01*
X010447Y015747D01*
X010466Y015749D01*
X010485Y015747D01*
X010504Y015742D01*
X010520Y015732D01*
X010535Y015720D01*
X010547Y015705D01*
X010557Y015689D01*
X010562Y015670D01*
X010564Y015651D01*
X010562Y015632D01*
X010557Y015613D01*
X010547Y015597D01*
X010535Y015582D01*
X010520Y015570D01*
X010504Y015560D01*
X010485Y015555D01*
X010466Y015553D01*
X010447Y015555D01*
X010428Y015560D01*
X010412Y015570D01*
X010397Y015582D01*
X010385Y015597D01*
X010375Y015613D01*
X010370Y015632D01*
X010368Y015651D01*
X010368Y016045D02*
X010370Y016064D01*
X010375Y016083D01*
X010385Y016099D01*
X010397Y016114D01*
X010412Y016126D01*
X010428Y016136D01*
X010447Y016141D01*
X010466Y016143D01*
X010485Y016141D01*
X010504Y016136D01*
X010520Y016126D01*
X010535Y016114D01*
X010547Y016099D01*
X010557Y016083D01*
X010562Y016064D01*
X010564Y016045D01*
X010562Y016026D01*
X010557Y016007D01*
X010547Y015991D01*
X010535Y015976D01*
X010520Y015964D01*
X010504Y015954D01*
X010485Y015949D01*
X010466Y015947D01*
X010447Y015949D01*
X010428Y015954D01*
X010412Y015964D01*
X010397Y015976D01*
X010385Y015991D01*
X010375Y016007D01*
X010370Y016026D01*
X010368Y016045D01*
X010368Y016439D02*
X010370Y016458D01*
X010375Y016477D01*
X010385Y016493D01*
X010397Y016508D01*
X010412Y016520D01*
X010428Y016530D01*
X010447Y016535D01*
X010466Y016537D01*
X010485Y016535D01*
X010504Y016530D01*
X010520Y016520D01*
X010535Y016508D01*
X010547Y016493D01*
X010557Y016477D01*
X010562Y016458D01*
X010564Y016439D01*
X010562Y016420D01*
X010557Y016401D01*
X010547Y016385D01*
X010535Y016370D01*
X010520Y016358D01*
X010504Y016348D01*
X010485Y016343D01*
X010466Y016341D01*
X010447Y016343D01*
X010428Y016348D01*
X010412Y016358D01*
X010397Y016370D01*
X010385Y016385D01*
X010375Y016401D01*
X010370Y016420D01*
X010368Y016439D01*
X010368Y016832D02*
X010370Y016851D01*
X010375Y016870D01*
X010385Y016886D01*
X010397Y016901D01*
X010412Y016913D01*
X010428Y016923D01*
X010447Y016928D01*
X010466Y016930D01*
X010485Y016928D01*
X010504Y016923D01*
X010520Y016913D01*
X010535Y016901D01*
X010547Y016886D01*
X010557Y016870D01*
X010562Y016851D01*
X010564Y016832D01*
X010562Y016813D01*
X010557Y016794D01*
X010547Y016778D01*
X010535Y016763D01*
X010520Y016751D01*
X010504Y016741D01*
X010485Y016736D01*
X010466Y016734D01*
X010447Y016736D01*
X010428Y016741D01*
X010412Y016751D01*
X010397Y016763D01*
X010385Y016778D01*
X010375Y016794D01*
X010370Y016813D01*
X010368Y016832D01*
X010368Y017226D02*
X010370Y017245D01*
X010375Y017264D01*
X010385Y017280D01*
X010397Y017295D01*
X010412Y017307D01*
X010428Y017317D01*
X010447Y017322D01*
X010466Y017324D01*
X010485Y017322D01*
X010504Y017317D01*
X010520Y017307D01*
X010535Y017295D01*
X010547Y017280D01*
X010557Y017264D01*
X010562Y017245D01*
X010564Y017226D01*
X010562Y017207D01*
X010557Y017188D01*
X010547Y017172D01*
X010535Y017157D01*
X010520Y017145D01*
X010504Y017135D01*
X010485Y017130D01*
X010466Y017128D01*
X010447Y017130D01*
X010428Y017135D01*
X010412Y017145D01*
X010397Y017157D01*
X010385Y017172D01*
X010375Y017188D01*
X010370Y017207D01*
X010368Y017226D01*
X011155Y017226D02*
X011157Y017245D01*
X011162Y017264D01*
X011172Y017280D01*
X011184Y017295D01*
X011199Y017307D01*
X011215Y017317D01*
X011234Y017322D01*
X011253Y017324D01*
X011272Y017322D01*
X011291Y017317D01*
X011307Y017307D01*
X011322Y017295D01*
X011334Y017280D01*
X011344Y017264D01*
X011349Y017245D01*
X011351Y017226D01*
X011349Y017207D01*
X011344Y017188D01*
X011334Y017172D01*
X011322Y017157D01*
X011307Y017145D01*
X011291Y017135D01*
X011272Y017130D01*
X011253Y017128D01*
X011234Y017130D01*
X011215Y017135D01*
X011199Y017145D01*
X011184Y017157D01*
X011172Y017172D01*
X011162Y017188D01*
X011157Y017207D01*
X011155Y017226D01*
X011155Y016832D02*
X011157Y016851D01*
X011162Y016870D01*
X011172Y016886D01*
X011184Y016901D01*
X011199Y016913D01*
X011215Y016923D01*
X011234Y016928D01*
X011253Y016930D01*
X011272Y016928D01*
X011291Y016923D01*
X011307Y016913D01*
X011322Y016901D01*
X011334Y016886D01*
X011344Y016870D01*
X011349Y016851D01*
X011351Y016832D01*
X011349Y016813D01*
X011344Y016794D01*
X011334Y016778D01*
X011322Y016763D01*
X011307Y016751D01*
X011291Y016741D01*
X011272Y016736D01*
X011253Y016734D01*
X011234Y016736D01*
X011215Y016741D01*
X011199Y016751D01*
X011184Y016763D01*
X011172Y016778D01*
X011162Y016794D01*
X011157Y016813D01*
X011155Y016832D01*
X011155Y016439D02*
X011157Y016458D01*
X011162Y016477D01*
X011172Y016493D01*
X011184Y016508D01*
X011199Y016520D01*
X011215Y016530D01*
X011234Y016535D01*
X011253Y016537D01*
X011272Y016535D01*
X011291Y016530D01*
X011307Y016520D01*
X011322Y016508D01*
X011334Y016493D01*
X011344Y016477D01*
X011349Y016458D01*
X011351Y016439D01*
X011349Y016420D01*
X011344Y016401D01*
X011334Y016385D01*
X011322Y016370D01*
X011307Y016358D01*
X011291Y016348D01*
X011272Y016343D01*
X011253Y016341D01*
X011234Y016343D01*
X011215Y016348D01*
X011199Y016358D01*
X011184Y016370D01*
X011172Y016385D01*
X011162Y016401D01*
X011157Y016420D01*
X011155Y016439D01*
X011155Y016045D02*
X011157Y016064D01*
X011162Y016083D01*
X011172Y016099D01*
X011184Y016114D01*
X011199Y016126D01*
X011215Y016136D01*
X011234Y016141D01*
X011253Y016143D01*
X011272Y016141D01*
X011291Y016136D01*
X011307Y016126D01*
X011322Y016114D01*
X011334Y016099D01*
X011344Y016083D01*
X011349Y016064D01*
X011351Y016045D01*
X011349Y016026D01*
X011344Y016007D01*
X011334Y015991D01*
X011322Y015976D01*
X011307Y015964D01*
X011291Y015954D01*
X011272Y015949D01*
X011253Y015947D01*
X011234Y015949D01*
X011215Y015954D01*
X011199Y015964D01*
X011184Y015976D01*
X011172Y015991D01*
X011162Y016007D01*
X011157Y016026D01*
X011155Y016045D01*
X011155Y015651D02*
X011157Y015670D01*
X011162Y015689D01*
X011172Y015705D01*
X011184Y015720D01*
X011199Y015732D01*
X011215Y015742D01*
X011234Y015747D01*
X011253Y015749D01*
X011272Y015747D01*
X011291Y015742D01*
X011307Y015732D01*
X011322Y015720D01*
X011334Y015705D01*
X011344Y015689D01*
X011349Y015670D01*
X011351Y015651D01*
X011349Y015632D01*
X011344Y015613D01*
X011334Y015597D01*
X011322Y015582D01*
X011307Y015570D01*
X011291Y015560D01*
X011272Y015555D01*
X011253Y015553D01*
X011234Y015555D01*
X011215Y015560D01*
X011199Y015570D01*
X011184Y015582D01*
X011172Y015597D01*
X011162Y015613D01*
X011157Y015632D01*
X011155Y015651D01*
X015879Y015651D02*
X015881Y015670D01*
X015886Y015689D01*
X015896Y015705D01*
X015908Y015720D01*
X015923Y015732D01*
X015939Y015742D01*
X015958Y015747D01*
X015977Y015749D01*
X015996Y015747D01*
X016015Y015742D01*
X016031Y015732D01*
X016046Y015720D01*
X016058Y015705D01*
X016068Y015689D01*
X016073Y015670D01*
X016075Y015651D01*
X016073Y015632D01*
X016068Y015613D01*
X016058Y015597D01*
X016046Y015582D01*
X016031Y015570D01*
X016015Y015560D01*
X015996Y015555D01*
X015977Y015553D01*
X015958Y015555D01*
X015939Y015560D01*
X015923Y015570D01*
X015908Y015582D01*
X015896Y015597D01*
X015886Y015613D01*
X015881Y015632D01*
X015879Y015651D01*
X015879Y016045D02*
X015881Y016064D01*
X015886Y016083D01*
X015896Y016099D01*
X015908Y016114D01*
X015923Y016126D01*
X015939Y016136D01*
X015958Y016141D01*
X015977Y016143D01*
X015996Y016141D01*
X016015Y016136D01*
X016031Y016126D01*
X016046Y016114D01*
X016058Y016099D01*
X016068Y016083D01*
X016073Y016064D01*
X016075Y016045D01*
X016073Y016026D01*
X016068Y016007D01*
X016058Y015991D01*
X016046Y015976D01*
X016031Y015964D01*
X016015Y015954D01*
X015996Y015949D01*
X015977Y015947D01*
X015958Y015949D01*
X015939Y015954D01*
X015923Y015964D01*
X015908Y015976D01*
X015896Y015991D01*
X015886Y016007D01*
X015881Y016026D01*
X015879Y016045D01*
X015879Y016439D02*
X015881Y016458D01*
X015886Y016477D01*
X015896Y016493D01*
X015908Y016508D01*
X015923Y016520D01*
X015939Y016530D01*
X015958Y016535D01*
X015977Y016537D01*
X015996Y016535D01*
X016015Y016530D01*
X016031Y016520D01*
X016046Y016508D01*
X016058Y016493D01*
X016068Y016477D01*
X016073Y016458D01*
X016075Y016439D01*
X016073Y016420D01*
X016068Y016401D01*
X016058Y016385D01*
X016046Y016370D01*
X016031Y016358D01*
X016015Y016348D01*
X015996Y016343D01*
X015977Y016341D01*
X015958Y016343D01*
X015939Y016348D01*
X015923Y016358D01*
X015908Y016370D01*
X015896Y016385D01*
X015886Y016401D01*
X015881Y016420D01*
X015879Y016439D01*
X015879Y016832D02*
X015881Y016851D01*
X015886Y016870D01*
X015896Y016886D01*
X015908Y016901D01*
X015923Y016913D01*
X015939Y016923D01*
X015958Y016928D01*
X015977Y016930D01*
X015996Y016928D01*
X016015Y016923D01*
X016031Y016913D01*
X016046Y016901D01*
X016058Y016886D01*
X016068Y016870D01*
X016073Y016851D01*
X016075Y016832D01*
X016073Y016813D01*
X016068Y016794D01*
X016058Y016778D01*
X016046Y016763D01*
X016031Y016751D01*
X016015Y016741D01*
X015996Y016736D01*
X015977Y016734D01*
X015958Y016736D01*
X015939Y016741D01*
X015923Y016751D01*
X015908Y016763D01*
X015896Y016778D01*
X015886Y016794D01*
X015881Y016813D01*
X015879Y016832D01*
X015879Y017226D02*
X015881Y017245D01*
X015886Y017264D01*
X015896Y017280D01*
X015908Y017295D01*
X015923Y017307D01*
X015939Y017317D01*
X015958Y017322D01*
X015977Y017324D01*
X015996Y017322D01*
X016015Y017317D01*
X016031Y017307D01*
X016046Y017295D01*
X016058Y017280D01*
X016068Y017264D01*
X016073Y017245D01*
X016075Y017226D01*
X016073Y017207D01*
X016068Y017188D01*
X016058Y017172D01*
X016046Y017157D01*
X016031Y017145D01*
X016015Y017135D01*
X015996Y017130D01*
X015977Y017128D01*
X015958Y017130D01*
X015939Y017135D01*
X015923Y017145D01*
X015908Y017157D01*
X015896Y017172D01*
X015886Y017188D01*
X015881Y017207D01*
X015879Y017226D01*
X016667Y017226D02*
X016669Y017245D01*
X016674Y017264D01*
X016684Y017280D01*
X016696Y017295D01*
X016711Y017307D01*
X016727Y017317D01*
X016746Y017322D01*
X016765Y017324D01*
X016784Y017322D01*
X016803Y017317D01*
X016819Y017307D01*
X016834Y017295D01*
X016846Y017280D01*
X016856Y017264D01*
X016861Y017245D01*
X016863Y017226D01*
X016861Y017207D01*
X016856Y017188D01*
X016846Y017172D01*
X016834Y017157D01*
X016819Y017145D01*
X016803Y017135D01*
X016784Y017130D01*
X016765Y017128D01*
X016746Y017130D01*
X016727Y017135D01*
X016711Y017145D01*
X016696Y017157D01*
X016684Y017172D01*
X016674Y017188D01*
X016669Y017207D01*
X016667Y017226D01*
X016667Y016832D02*
X016669Y016851D01*
X016674Y016870D01*
X016684Y016886D01*
X016696Y016901D01*
X016711Y016913D01*
X016727Y016923D01*
X016746Y016928D01*
X016765Y016930D01*
X016784Y016928D01*
X016803Y016923D01*
X016819Y016913D01*
X016834Y016901D01*
X016846Y016886D01*
X016856Y016870D01*
X016861Y016851D01*
X016863Y016832D01*
X016861Y016813D01*
X016856Y016794D01*
X016846Y016778D01*
X016834Y016763D01*
X016819Y016751D01*
X016803Y016741D01*
X016784Y016736D01*
X016765Y016734D01*
X016746Y016736D01*
X016727Y016741D01*
X016711Y016751D01*
X016696Y016763D01*
X016684Y016778D01*
X016674Y016794D01*
X016669Y016813D01*
X016667Y016832D01*
X016667Y016439D02*
X016669Y016458D01*
X016674Y016477D01*
X016684Y016493D01*
X016696Y016508D01*
X016711Y016520D01*
X016727Y016530D01*
X016746Y016535D01*
X016765Y016537D01*
X016784Y016535D01*
X016803Y016530D01*
X016819Y016520D01*
X016834Y016508D01*
X016846Y016493D01*
X016856Y016477D01*
X016861Y016458D01*
X016863Y016439D01*
X016861Y016420D01*
X016856Y016401D01*
X016846Y016385D01*
X016834Y016370D01*
X016819Y016358D01*
X016803Y016348D01*
X016784Y016343D01*
X016765Y016341D01*
X016746Y016343D01*
X016727Y016348D01*
X016711Y016358D01*
X016696Y016370D01*
X016684Y016385D01*
X016674Y016401D01*
X016669Y016420D01*
X016667Y016439D01*
X016667Y016045D02*
X016669Y016064D01*
X016674Y016083D01*
X016684Y016099D01*
X016696Y016114D01*
X016711Y016126D01*
X016727Y016136D01*
X016746Y016141D01*
X016765Y016143D01*
X016784Y016141D01*
X016803Y016136D01*
X016819Y016126D01*
X016834Y016114D01*
X016846Y016099D01*
X016856Y016083D01*
X016861Y016064D01*
X016863Y016045D01*
X016861Y016026D01*
X016856Y016007D01*
X016846Y015991D01*
X016834Y015976D01*
X016819Y015964D01*
X016803Y015954D01*
X016784Y015949D01*
X016765Y015947D01*
X016746Y015949D01*
X016727Y015954D01*
X016711Y015964D01*
X016696Y015976D01*
X016684Y015991D01*
X016674Y016007D01*
X016669Y016026D01*
X016667Y016045D01*
X016667Y015651D02*
X016669Y015670D01*
X016674Y015689D01*
X016684Y015705D01*
X016696Y015720D01*
X016711Y015732D01*
X016727Y015742D01*
X016746Y015747D01*
X016765Y015749D01*
X016784Y015747D01*
X016803Y015742D01*
X016819Y015732D01*
X016834Y015720D01*
X016846Y015705D01*
X016856Y015689D01*
X016861Y015670D01*
X016863Y015651D01*
X016861Y015632D01*
X016856Y015613D01*
X016846Y015597D01*
X016834Y015582D01*
X016819Y015570D01*
X016803Y015560D01*
X016784Y015555D01*
X016765Y015553D01*
X016746Y015555D01*
X016727Y015560D01*
X016711Y015570D01*
X016696Y015582D01*
X016684Y015597D01*
X016674Y015613D01*
X016669Y015632D01*
X016667Y015651D01*
X021391Y015651D02*
X021393Y015670D01*
X021398Y015689D01*
X021408Y015705D01*
X021420Y015720D01*
X021435Y015732D01*
X021451Y015742D01*
X021470Y015747D01*
X021489Y015749D01*
X021508Y015747D01*
X021527Y015742D01*
X021543Y015732D01*
X021558Y015720D01*
X021570Y015705D01*
X021580Y015689D01*
X021585Y015670D01*
X021587Y015651D01*
X021585Y015632D01*
X021580Y015613D01*
X021570Y015597D01*
X021558Y015582D01*
X021543Y015570D01*
X021527Y015560D01*
X021508Y015555D01*
X021489Y015553D01*
X021470Y015555D01*
X021451Y015560D01*
X021435Y015570D01*
X021420Y015582D01*
X021408Y015597D01*
X021398Y015613D01*
X021393Y015632D01*
X021391Y015651D01*
X021391Y016045D02*
X021393Y016064D01*
X021398Y016083D01*
X021408Y016099D01*
X021420Y016114D01*
X021435Y016126D01*
X021451Y016136D01*
X021470Y016141D01*
X021489Y016143D01*
X021508Y016141D01*
X021527Y016136D01*
X021543Y016126D01*
X021558Y016114D01*
X021570Y016099D01*
X021580Y016083D01*
X021585Y016064D01*
X021587Y016045D01*
X021585Y016026D01*
X021580Y016007D01*
X021570Y015991D01*
X021558Y015976D01*
X021543Y015964D01*
X021527Y015954D01*
X021508Y015949D01*
X021489Y015947D01*
X021470Y015949D01*
X021451Y015954D01*
X021435Y015964D01*
X021420Y015976D01*
X021408Y015991D01*
X021398Y016007D01*
X021393Y016026D01*
X021391Y016045D01*
X021391Y016439D02*
X021393Y016458D01*
X021398Y016477D01*
X021408Y016493D01*
X021420Y016508D01*
X021435Y016520D01*
X021451Y016530D01*
X021470Y016535D01*
X021489Y016537D01*
X021508Y016535D01*
X021527Y016530D01*
X021543Y016520D01*
X021558Y016508D01*
X021570Y016493D01*
X021580Y016477D01*
X021585Y016458D01*
X021587Y016439D01*
X021585Y016420D01*
X021580Y016401D01*
X021570Y016385D01*
X021558Y016370D01*
X021543Y016358D01*
X021527Y016348D01*
X021508Y016343D01*
X021489Y016341D01*
X021470Y016343D01*
X021451Y016348D01*
X021435Y016358D01*
X021420Y016370D01*
X021408Y016385D01*
X021398Y016401D01*
X021393Y016420D01*
X021391Y016439D01*
X021391Y016832D02*
X021393Y016851D01*
X021398Y016870D01*
X021408Y016886D01*
X021420Y016901D01*
X021435Y016913D01*
X021451Y016923D01*
X021470Y016928D01*
X021489Y016930D01*
X021508Y016928D01*
X021527Y016923D01*
X021543Y016913D01*
X021558Y016901D01*
X021570Y016886D01*
X021580Y016870D01*
X021585Y016851D01*
X021587Y016832D01*
X021585Y016813D01*
X021580Y016794D01*
X021570Y016778D01*
X021558Y016763D01*
X021543Y016751D01*
X021527Y016741D01*
X021508Y016736D01*
X021489Y016734D01*
X021470Y016736D01*
X021451Y016741D01*
X021435Y016751D01*
X021420Y016763D01*
X021408Y016778D01*
X021398Y016794D01*
X021393Y016813D01*
X021391Y016832D01*
X021391Y017226D02*
X021393Y017245D01*
X021398Y017264D01*
X021408Y017280D01*
X021420Y017295D01*
X021435Y017307D01*
X021451Y017317D01*
X021470Y017322D01*
X021489Y017324D01*
X021508Y017322D01*
X021527Y017317D01*
X021543Y017307D01*
X021558Y017295D01*
X021570Y017280D01*
X021580Y017264D01*
X021585Y017245D01*
X021587Y017226D01*
X021585Y017207D01*
X021580Y017188D01*
X021570Y017172D01*
X021558Y017157D01*
X021543Y017145D01*
X021527Y017135D01*
X021508Y017130D01*
X021489Y017128D01*
X021470Y017130D01*
X021451Y017135D01*
X021435Y017145D01*
X021420Y017157D01*
X021408Y017172D01*
X021398Y017188D01*
X021393Y017207D01*
X021391Y017226D01*
X022179Y017226D02*
X022181Y017245D01*
X022186Y017264D01*
X022196Y017280D01*
X022208Y017295D01*
X022223Y017307D01*
X022239Y017317D01*
X022258Y017322D01*
X022277Y017324D01*
X022296Y017322D01*
X022315Y017317D01*
X022331Y017307D01*
X022346Y017295D01*
X022358Y017280D01*
X022368Y017264D01*
X022373Y017245D01*
X022375Y017226D01*
X022373Y017207D01*
X022368Y017188D01*
X022358Y017172D01*
X022346Y017157D01*
X022331Y017145D01*
X022315Y017135D01*
X022296Y017130D01*
X022277Y017128D01*
X022258Y017130D01*
X022239Y017135D01*
X022223Y017145D01*
X022208Y017157D01*
X022196Y017172D01*
X022186Y017188D01*
X022181Y017207D01*
X022179Y017226D01*
X022179Y016832D02*
X022181Y016851D01*
X022186Y016870D01*
X022196Y016886D01*
X022208Y016901D01*
X022223Y016913D01*
X022239Y016923D01*
X022258Y016928D01*
X022277Y016930D01*
X022296Y016928D01*
X022315Y016923D01*
X022331Y016913D01*
X022346Y016901D01*
X022358Y016886D01*
X022368Y016870D01*
X022373Y016851D01*
X022375Y016832D01*
X022373Y016813D01*
X022368Y016794D01*
X022358Y016778D01*
X022346Y016763D01*
X022331Y016751D01*
X022315Y016741D01*
X022296Y016736D01*
X022277Y016734D01*
X022258Y016736D01*
X022239Y016741D01*
X022223Y016751D01*
X022208Y016763D01*
X022196Y016778D01*
X022186Y016794D01*
X022181Y016813D01*
X022179Y016832D01*
X022179Y016439D02*
X022181Y016458D01*
X022186Y016477D01*
X022196Y016493D01*
X022208Y016508D01*
X022223Y016520D01*
X022239Y016530D01*
X022258Y016535D01*
X022277Y016537D01*
X022296Y016535D01*
X022315Y016530D01*
X022331Y016520D01*
X022346Y016508D01*
X022358Y016493D01*
X022368Y016477D01*
X022373Y016458D01*
X022375Y016439D01*
X022373Y016420D01*
X022368Y016401D01*
X022358Y016385D01*
X022346Y016370D01*
X022331Y016358D01*
X022315Y016348D01*
X022296Y016343D01*
X022277Y016341D01*
X022258Y016343D01*
X022239Y016348D01*
X022223Y016358D01*
X022208Y016370D01*
X022196Y016385D01*
X022186Y016401D01*
X022181Y016420D01*
X022179Y016439D01*
X022179Y016045D02*
X022181Y016064D01*
X022186Y016083D01*
X022196Y016099D01*
X022208Y016114D01*
X022223Y016126D01*
X022239Y016136D01*
X022258Y016141D01*
X022277Y016143D01*
X022296Y016141D01*
X022315Y016136D01*
X022331Y016126D01*
X022346Y016114D01*
X022358Y016099D01*
X022368Y016083D01*
X022373Y016064D01*
X022375Y016045D01*
X022373Y016026D01*
X022368Y016007D01*
X022358Y015991D01*
X022346Y015976D01*
X022331Y015964D01*
X022315Y015954D01*
X022296Y015949D01*
X022277Y015947D01*
X022258Y015949D01*
X022239Y015954D01*
X022223Y015964D01*
X022208Y015976D01*
X022196Y015991D01*
X022186Y016007D01*
X022181Y016026D01*
X022179Y016045D01*
X022179Y015651D02*
X022181Y015670D01*
X022186Y015689D01*
X022196Y015705D01*
X022208Y015720D01*
X022223Y015732D01*
X022239Y015742D01*
X022258Y015747D01*
X022277Y015749D01*
X022296Y015747D01*
X022315Y015742D01*
X022331Y015732D01*
X022346Y015720D01*
X022358Y015705D01*
X022368Y015689D01*
X022373Y015670D01*
X022375Y015651D01*
X022373Y015632D01*
X022368Y015613D01*
X022358Y015597D01*
X022346Y015582D01*
X022331Y015570D01*
X022315Y015560D01*
X022296Y015555D01*
X022277Y015553D01*
X022258Y015555D01*
X022239Y015560D01*
X022223Y015570D01*
X022208Y015582D01*
X022196Y015597D01*
X022186Y015613D01*
X022181Y015632D01*
X022179Y015651D01*
X026903Y015651D02*
X026905Y015670D01*
X026910Y015689D01*
X026920Y015705D01*
X026932Y015720D01*
X026947Y015732D01*
X026963Y015742D01*
X026982Y015747D01*
X027001Y015749D01*
X027020Y015747D01*
X027039Y015742D01*
X027055Y015732D01*
X027070Y015720D01*
X027082Y015705D01*
X027092Y015689D01*
X027097Y015670D01*
X027099Y015651D01*
X027097Y015632D01*
X027092Y015613D01*
X027082Y015597D01*
X027070Y015582D01*
X027055Y015570D01*
X027039Y015560D01*
X027020Y015555D01*
X027001Y015553D01*
X026982Y015555D01*
X026963Y015560D01*
X026947Y015570D01*
X026932Y015582D01*
X026920Y015597D01*
X026910Y015613D01*
X026905Y015632D01*
X026903Y015651D01*
X026903Y016045D02*
X026905Y016064D01*
X026910Y016083D01*
X026920Y016099D01*
X026932Y016114D01*
X026947Y016126D01*
X026963Y016136D01*
X026982Y016141D01*
X027001Y016143D01*
X027020Y016141D01*
X027039Y016136D01*
X027055Y016126D01*
X027070Y016114D01*
X027082Y016099D01*
X027092Y016083D01*
X027097Y016064D01*
X027099Y016045D01*
X027097Y016026D01*
X027092Y016007D01*
X027082Y015991D01*
X027070Y015976D01*
X027055Y015964D01*
X027039Y015954D01*
X027020Y015949D01*
X027001Y015947D01*
X026982Y015949D01*
X026963Y015954D01*
X026947Y015964D01*
X026932Y015976D01*
X026920Y015991D01*
X026910Y016007D01*
X026905Y016026D01*
X026903Y016045D01*
X026903Y016439D02*
X026905Y016458D01*
X026910Y016477D01*
X026920Y016493D01*
X026932Y016508D01*
X026947Y016520D01*
X026963Y016530D01*
X026982Y016535D01*
X027001Y016537D01*
X027020Y016535D01*
X027039Y016530D01*
X027055Y016520D01*
X027070Y016508D01*
X027082Y016493D01*
X027092Y016477D01*
X027097Y016458D01*
X027099Y016439D01*
X027097Y016420D01*
X027092Y016401D01*
X027082Y016385D01*
X027070Y016370D01*
X027055Y016358D01*
X027039Y016348D01*
X027020Y016343D01*
X027001Y016341D01*
X026982Y016343D01*
X026963Y016348D01*
X026947Y016358D01*
X026932Y016370D01*
X026920Y016385D01*
X026910Y016401D01*
X026905Y016420D01*
X026903Y016439D01*
X026903Y016832D02*
X026905Y016851D01*
X026910Y016870D01*
X026920Y016886D01*
X026932Y016901D01*
X026947Y016913D01*
X026963Y016923D01*
X026982Y016928D01*
X027001Y016930D01*
X027020Y016928D01*
X027039Y016923D01*
X027055Y016913D01*
X027070Y016901D01*
X027082Y016886D01*
X027092Y016870D01*
X027097Y016851D01*
X027099Y016832D01*
X027097Y016813D01*
X027092Y016794D01*
X027082Y016778D01*
X027070Y016763D01*
X027055Y016751D01*
X027039Y016741D01*
X027020Y016736D01*
X027001Y016734D01*
X026982Y016736D01*
X026963Y016741D01*
X026947Y016751D01*
X026932Y016763D01*
X026920Y016778D01*
X026910Y016794D01*
X026905Y016813D01*
X026903Y016832D01*
X026903Y017226D02*
X026905Y017245D01*
X026910Y017264D01*
X026920Y017280D01*
X026932Y017295D01*
X026947Y017307D01*
X026963Y017317D01*
X026982Y017322D01*
X027001Y017324D01*
X027020Y017322D01*
X027039Y017317D01*
X027055Y017307D01*
X027070Y017295D01*
X027082Y017280D01*
X027092Y017264D01*
X027097Y017245D01*
X027099Y017226D01*
X027097Y017207D01*
X027092Y017188D01*
X027082Y017172D01*
X027070Y017157D01*
X027055Y017145D01*
X027039Y017135D01*
X027020Y017130D01*
X027001Y017128D01*
X026982Y017130D01*
X026963Y017135D01*
X026947Y017145D01*
X026932Y017157D01*
X026920Y017172D01*
X026910Y017188D01*
X026905Y017207D01*
X026903Y017226D01*
X027690Y017226D02*
X027692Y017245D01*
X027697Y017264D01*
X027707Y017280D01*
X027719Y017295D01*
X027734Y017307D01*
X027750Y017317D01*
X027769Y017322D01*
X027788Y017324D01*
X027807Y017322D01*
X027826Y017317D01*
X027842Y017307D01*
X027857Y017295D01*
X027869Y017280D01*
X027879Y017264D01*
X027884Y017245D01*
X027886Y017226D01*
X027884Y017207D01*
X027879Y017188D01*
X027869Y017172D01*
X027857Y017157D01*
X027842Y017145D01*
X027826Y017135D01*
X027807Y017130D01*
X027788Y017128D01*
X027769Y017130D01*
X027750Y017135D01*
X027734Y017145D01*
X027719Y017157D01*
X027707Y017172D01*
X027697Y017188D01*
X027692Y017207D01*
X027690Y017226D01*
X027690Y016832D02*
X027692Y016851D01*
X027697Y016870D01*
X027707Y016886D01*
X027719Y016901D01*
X027734Y016913D01*
X027750Y016923D01*
X027769Y016928D01*
X027788Y016930D01*
X027807Y016928D01*
X027826Y016923D01*
X027842Y016913D01*
X027857Y016901D01*
X027869Y016886D01*
X027879Y016870D01*
X027884Y016851D01*
X027886Y016832D01*
X027884Y016813D01*
X027879Y016794D01*
X027869Y016778D01*
X027857Y016763D01*
X027842Y016751D01*
X027826Y016741D01*
X027807Y016736D01*
X027788Y016734D01*
X027769Y016736D01*
X027750Y016741D01*
X027734Y016751D01*
X027719Y016763D01*
X027707Y016778D01*
X027697Y016794D01*
X027692Y016813D01*
X027690Y016832D01*
X027690Y016439D02*
X027692Y016458D01*
X027697Y016477D01*
X027707Y016493D01*
X027719Y016508D01*
X027734Y016520D01*
X027750Y016530D01*
X027769Y016535D01*
X027788Y016537D01*
X027807Y016535D01*
X027826Y016530D01*
X027842Y016520D01*
X027857Y016508D01*
X027869Y016493D01*
X027879Y016477D01*
X027884Y016458D01*
X027886Y016439D01*
X027884Y016420D01*
X027879Y016401D01*
X027869Y016385D01*
X027857Y016370D01*
X027842Y016358D01*
X027826Y016348D01*
X027807Y016343D01*
X027788Y016341D01*
X027769Y016343D01*
X027750Y016348D01*
X027734Y016358D01*
X027719Y016370D01*
X027707Y016385D01*
X027697Y016401D01*
X027692Y016420D01*
X027690Y016439D01*
X027690Y016045D02*
X027692Y016064D01*
X027697Y016083D01*
X027707Y016099D01*
X027719Y016114D01*
X027734Y016126D01*
X027750Y016136D01*
X027769Y016141D01*
X027788Y016143D01*
X027807Y016141D01*
X027826Y016136D01*
X027842Y016126D01*
X027857Y016114D01*
X027869Y016099D01*
X027879Y016083D01*
X027884Y016064D01*
X027886Y016045D01*
X027884Y016026D01*
X027879Y016007D01*
X027869Y015991D01*
X027857Y015976D01*
X027842Y015964D01*
X027826Y015954D01*
X027807Y015949D01*
X027788Y015947D01*
X027769Y015949D01*
X027750Y015954D01*
X027734Y015964D01*
X027719Y015976D01*
X027707Y015991D01*
X027697Y016007D01*
X027692Y016026D01*
X027690Y016045D01*
X027690Y015651D02*
X027692Y015670D01*
X027697Y015689D01*
X027707Y015705D01*
X027719Y015720D01*
X027734Y015732D01*
X027750Y015742D01*
X027769Y015747D01*
X027788Y015749D01*
X027807Y015747D01*
X027826Y015742D01*
X027842Y015732D01*
X027857Y015720D01*
X027869Y015705D01*
X027879Y015689D01*
X027884Y015670D01*
X027886Y015651D01*
X027884Y015632D01*
X027879Y015613D01*
X027869Y015597D01*
X027857Y015582D01*
X027842Y015570D01*
X027826Y015560D01*
X027807Y015555D01*
X027788Y015553D01*
X027769Y015555D01*
X027750Y015560D01*
X027734Y015570D01*
X027719Y015582D01*
X027707Y015597D01*
X027697Y015613D01*
X027692Y015632D01*
X027690Y015651D01*
X032415Y015651D02*
X032417Y015670D01*
X032422Y015689D01*
X032432Y015705D01*
X032444Y015720D01*
X032459Y015732D01*
X032475Y015742D01*
X032494Y015747D01*
X032513Y015749D01*
X032532Y015747D01*
X032551Y015742D01*
X032567Y015732D01*
X032582Y015720D01*
X032594Y015705D01*
X032604Y015689D01*
X032609Y015670D01*
X032611Y015651D01*
X032609Y015632D01*
X032604Y015613D01*
X032594Y015597D01*
X032582Y015582D01*
X032567Y015570D01*
X032551Y015560D01*
X032532Y015555D01*
X032513Y015553D01*
X032494Y015555D01*
X032475Y015560D01*
X032459Y015570D01*
X032444Y015582D01*
X032432Y015597D01*
X032422Y015613D01*
X032417Y015632D01*
X032415Y015651D01*
X032415Y016045D02*
X032417Y016064D01*
X032422Y016083D01*
X032432Y016099D01*
X032444Y016114D01*
X032459Y016126D01*
X032475Y016136D01*
X032494Y016141D01*
X032513Y016143D01*
X032532Y016141D01*
X032551Y016136D01*
X032567Y016126D01*
X032582Y016114D01*
X032594Y016099D01*
X032604Y016083D01*
X032609Y016064D01*
X032611Y016045D01*
X032609Y016026D01*
X032604Y016007D01*
X032594Y015991D01*
X032582Y015976D01*
X032567Y015964D01*
X032551Y015954D01*
X032532Y015949D01*
X032513Y015947D01*
X032494Y015949D01*
X032475Y015954D01*
X032459Y015964D01*
X032444Y015976D01*
X032432Y015991D01*
X032422Y016007D01*
X032417Y016026D01*
X032415Y016045D01*
X032415Y016439D02*
X032417Y016458D01*
X032422Y016477D01*
X032432Y016493D01*
X032444Y016508D01*
X032459Y016520D01*
X032475Y016530D01*
X032494Y016535D01*
X032513Y016537D01*
X032532Y016535D01*
X032551Y016530D01*
X032567Y016520D01*
X032582Y016508D01*
X032594Y016493D01*
X032604Y016477D01*
X032609Y016458D01*
X032611Y016439D01*
X032609Y016420D01*
X032604Y016401D01*
X032594Y016385D01*
X032582Y016370D01*
X032567Y016358D01*
X032551Y016348D01*
X032532Y016343D01*
X032513Y016341D01*
X032494Y016343D01*
X032475Y016348D01*
X032459Y016358D01*
X032444Y016370D01*
X032432Y016385D01*
X032422Y016401D01*
X032417Y016420D01*
X032415Y016439D01*
X032415Y016832D02*
X032417Y016851D01*
X032422Y016870D01*
X032432Y016886D01*
X032444Y016901D01*
X032459Y016913D01*
X032475Y016923D01*
X032494Y016928D01*
X032513Y016930D01*
X032532Y016928D01*
X032551Y016923D01*
X032567Y016913D01*
X032582Y016901D01*
X032594Y016886D01*
X032604Y016870D01*
X032609Y016851D01*
X032611Y016832D01*
X032609Y016813D01*
X032604Y016794D01*
X032594Y016778D01*
X032582Y016763D01*
X032567Y016751D01*
X032551Y016741D01*
X032532Y016736D01*
X032513Y016734D01*
X032494Y016736D01*
X032475Y016741D01*
X032459Y016751D01*
X032444Y016763D01*
X032432Y016778D01*
X032422Y016794D01*
X032417Y016813D01*
X032415Y016832D01*
X032415Y017226D02*
X032417Y017245D01*
X032422Y017264D01*
X032432Y017280D01*
X032444Y017295D01*
X032459Y017307D01*
X032475Y017317D01*
X032494Y017322D01*
X032513Y017324D01*
X032532Y017322D01*
X032551Y017317D01*
X032567Y017307D01*
X032582Y017295D01*
X032594Y017280D01*
X032604Y017264D01*
X032609Y017245D01*
X032611Y017226D01*
X032609Y017207D01*
X032604Y017188D01*
X032594Y017172D01*
X032582Y017157D01*
X032567Y017145D01*
X032551Y017135D01*
X032532Y017130D01*
X032513Y017128D01*
X032494Y017130D01*
X032475Y017135D01*
X032459Y017145D01*
X032444Y017157D01*
X032432Y017172D01*
X032422Y017188D01*
X032417Y017207D01*
X032415Y017226D01*
X033202Y017226D02*
X033204Y017245D01*
X033209Y017264D01*
X033219Y017280D01*
X033231Y017295D01*
X033246Y017307D01*
X033262Y017317D01*
X033281Y017322D01*
X033300Y017324D01*
X033319Y017322D01*
X033338Y017317D01*
X033354Y017307D01*
X033369Y017295D01*
X033381Y017280D01*
X033391Y017264D01*
X033396Y017245D01*
X033398Y017226D01*
X033396Y017207D01*
X033391Y017188D01*
X033381Y017172D01*
X033369Y017157D01*
X033354Y017145D01*
X033338Y017135D01*
X033319Y017130D01*
X033300Y017128D01*
X033281Y017130D01*
X033262Y017135D01*
X033246Y017145D01*
X033231Y017157D01*
X033219Y017172D01*
X033209Y017188D01*
X033204Y017207D01*
X033202Y017226D01*
X033202Y016832D02*
X033204Y016851D01*
X033209Y016870D01*
X033219Y016886D01*
X033231Y016901D01*
X033246Y016913D01*
X033262Y016923D01*
X033281Y016928D01*
X033300Y016930D01*
X033319Y016928D01*
X033338Y016923D01*
X033354Y016913D01*
X033369Y016901D01*
X033381Y016886D01*
X033391Y016870D01*
X033396Y016851D01*
X033398Y016832D01*
X033396Y016813D01*
X033391Y016794D01*
X033381Y016778D01*
X033369Y016763D01*
X033354Y016751D01*
X033338Y016741D01*
X033319Y016736D01*
X033300Y016734D01*
X033281Y016736D01*
X033262Y016741D01*
X033246Y016751D01*
X033231Y016763D01*
X033219Y016778D01*
X033209Y016794D01*
X033204Y016813D01*
X033202Y016832D01*
X033202Y016439D02*
X033204Y016458D01*
X033209Y016477D01*
X033219Y016493D01*
X033231Y016508D01*
X033246Y016520D01*
X033262Y016530D01*
X033281Y016535D01*
X033300Y016537D01*
X033319Y016535D01*
X033338Y016530D01*
X033354Y016520D01*
X033369Y016508D01*
X033381Y016493D01*
X033391Y016477D01*
X033396Y016458D01*
X033398Y016439D01*
X033396Y016420D01*
X033391Y016401D01*
X033381Y016385D01*
X033369Y016370D01*
X033354Y016358D01*
X033338Y016348D01*
X033319Y016343D01*
X033300Y016341D01*
X033281Y016343D01*
X033262Y016348D01*
X033246Y016358D01*
X033231Y016370D01*
X033219Y016385D01*
X033209Y016401D01*
X033204Y016420D01*
X033202Y016439D01*
X033202Y016045D02*
X033204Y016064D01*
X033209Y016083D01*
X033219Y016099D01*
X033231Y016114D01*
X033246Y016126D01*
X033262Y016136D01*
X033281Y016141D01*
X033300Y016143D01*
X033319Y016141D01*
X033338Y016136D01*
X033354Y016126D01*
X033369Y016114D01*
X033381Y016099D01*
X033391Y016083D01*
X033396Y016064D01*
X033398Y016045D01*
X033396Y016026D01*
X033391Y016007D01*
X033381Y015991D01*
X033369Y015976D01*
X033354Y015964D01*
X033338Y015954D01*
X033319Y015949D01*
X033300Y015947D01*
X033281Y015949D01*
X033262Y015954D01*
X033246Y015964D01*
X033231Y015976D01*
X033219Y015991D01*
X033209Y016007D01*
X033204Y016026D01*
X033202Y016045D01*
X033202Y015651D02*
X033204Y015670D01*
X033209Y015689D01*
X033219Y015705D01*
X033231Y015720D01*
X033246Y015732D01*
X033262Y015742D01*
X033281Y015747D01*
X033300Y015749D01*
X033319Y015747D01*
X033338Y015742D01*
X033354Y015732D01*
X033369Y015720D01*
X033381Y015705D01*
X033391Y015689D01*
X033396Y015670D01*
X033398Y015651D01*
X033396Y015632D01*
X033391Y015613D01*
X033381Y015597D01*
X033369Y015582D01*
X033354Y015570D01*
X033338Y015560D01*
X033319Y015555D01*
X033300Y015553D01*
X033281Y015555D01*
X033262Y015560D01*
X033246Y015570D01*
X033231Y015582D01*
X033219Y015597D01*
X033209Y015613D01*
X033204Y015632D01*
X033202Y015651D01*
X035071Y022344D02*
X035073Y022392D01*
X035079Y022440D01*
X035089Y022487D01*
X035102Y022533D01*
X035120Y022578D01*
X035140Y022622D01*
X035165Y022664D01*
X035193Y022703D01*
X035223Y022740D01*
X035257Y022774D01*
X035294Y022806D01*
X035332Y022835D01*
X035373Y022860D01*
X035416Y022882D01*
X035461Y022900D01*
X035507Y022914D01*
X035554Y022925D01*
X035602Y022932D01*
X035650Y022935D01*
X035698Y022934D01*
X035746Y022929D01*
X035794Y022920D01*
X035840Y022908D01*
X035885Y022891D01*
X035929Y022871D01*
X035971Y022848D01*
X036011Y022821D01*
X036049Y022791D01*
X036084Y022758D01*
X036116Y022722D01*
X036146Y022684D01*
X036172Y022643D01*
X036194Y022600D01*
X036214Y022556D01*
X036229Y022511D01*
X036241Y022464D01*
X036249Y022416D01*
X036253Y022368D01*
X036253Y022320D01*
X036249Y022272D01*
X036241Y022224D01*
X036229Y022177D01*
X036214Y022132D01*
X036194Y022088D01*
X036172Y022045D01*
X036146Y022004D01*
X036116Y021966D01*
X036084Y021930D01*
X036049Y021897D01*
X036011Y021867D01*
X035971Y021840D01*
X035929Y021817D01*
X035885Y021797D01*
X035840Y021780D01*
X035794Y021768D01*
X035746Y021759D01*
X035698Y021754D01*
X035650Y021753D01*
X035602Y021756D01*
X035554Y021763D01*
X035507Y021774D01*
X035461Y021788D01*
X035416Y021806D01*
X035373Y021828D01*
X035332Y021853D01*
X035294Y021882D01*
X035257Y021914D01*
X035223Y021948D01*
X035193Y021985D01*
X035165Y022024D01*
X035140Y022066D01*
X035120Y022110D01*
X035102Y022155D01*
X035089Y022201D01*
X035079Y022248D01*
X035073Y022296D01*
X035071Y022344D01*
X029560Y022344D02*
X029562Y022392D01*
X029568Y022440D01*
X029578Y022487D01*
X029591Y022533D01*
X029609Y022578D01*
X029629Y022622D01*
X029654Y022664D01*
X029682Y022703D01*
X029712Y022740D01*
X029746Y022774D01*
X029783Y022806D01*
X029821Y022835D01*
X029862Y022860D01*
X029905Y022882D01*
X029950Y022900D01*
X029996Y022914D01*
X030043Y022925D01*
X030091Y022932D01*
X030139Y022935D01*
X030187Y022934D01*
X030235Y022929D01*
X030283Y022920D01*
X030329Y022908D01*
X030374Y022891D01*
X030418Y022871D01*
X030460Y022848D01*
X030500Y022821D01*
X030538Y022791D01*
X030573Y022758D01*
X030605Y022722D01*
X030635Y022684D01*
X030661Y022643D01*
X030683Y022600D01*
X030703Y022556D01*
X030718Y022511D01*
X030730Y022464D01*
X030738Y022416D01*
X030742Y022368D01*
X030742Y022320D01*
X030738Y022272D01*
X030730Y022224D01*
X030718Y022177D01*
X030703Y022132D01*
X030683Y022088D01*
X030661Y022045D01*
X030635Y022004D01*
X030605Y021966D01*
X030573Y021930D01*
X030538Y021897D01*
X030500Y021867D01*
X030460Y021840D01*
X030418Y021817D01*
X030374Y021797D01*
X030329Y021780D01*
X030283Y021768D01*
X030235Y021759D01*
X030187Y021754D01*
X030139Y021753D01*
X030091Y021756D01*
X030043Y021763D01*
X029996Y021774D01*
X029950Y021788D01*
X029905Y021806D01*
X029862Y021828D01*
X029821Y021853D01*
X029783Y021882D01*
X029746Y021914D01*
X029712Y021948D01*
X029682Y021985D01*
X029654Y022024D01*
X029629Y022066D01*
X029609Y022110D01*
X029591Y022155D01*
X029578Y022201D01*
X029568Y022248D01*
X029562Y022296D01*
X029560Y022344D01*
X024048Y022344D02*
X024050Y022392D01*
X024056Y022440D01*
X024066Y022487D01*
X024079Y022533D01*
X024097Y022578D01*
X024117Y022622D01*
X024142Y022664D01*
X024170Y022703D01*
X024200Y022740D01*
X024234Y022774D01*
X024271Y022806D01*
X024309Y022835D01*
X024350Y022860D01*
X024393Y022882D01*
X024438Y022900D01*
X024484Y022914D01*
X024531Y022925D01*
X024579Y022932D01*
X024627Y022935D01*
X024675Y022934D01*
X024723Y022929D01*
X024771Y022920D01*
X024817Y022908D01*
X024862Y022891D01*
X024906Y022871D01*
X024948Y022848D01*
X024988Y022821D01*
X025026Y022791D01*
X025061Y022758D01*
X025093Y022722D01*
X025123Y022684D01*
X025149Y022643D01*
X025171Y022600D01*
X025191Y022556D01*
X025206Y022511D01*
X025218Y022464D01*
X025226Y022416D01*
X025230Y022368D01*
X025230Y022320D01*
X025226Y022272D01*
X025218Y022224D01*
X025206Y022177D01*
X025191Y022132D01*
X025171Y022088D01*
X025149Y022045D01*
X025123Y022004D01*
X025093Y021966D01*
X025061Y021930D01*
X025026Y021897D01*
X024988Y021867D01*
X024948Y021840D01*
X024906Y021817D01*
X024862Y021797D01*
X024817Y021780D01*
X024771Y021768D01*
X024723Y021759D01*
X024675Y021754D01*
X024627Y021753D01*
X024579Y021756D01*
X024531Y021763D01*
X024484Y021774D01*
X024438Y021788D01*
X024393Y021806D01*
X024350Y021828D01*
X024309Y021853D01*
X024271Y021882D01*
X024234Y021914D01*
X024200Y021948D01*
X024170Y021985D01*
X024142Y022024D01*
X024117Y022066D01*
X024097Y022110D01*
X024079Y022155D01*
X024066Y022201D01*
X024056Y022248D01*
X024050Y022296D01*
X024048Y022344D01*
X018536Y022344D02*
X018538Y022392D01*
X018544Y022440D01*
X018554Y022487D01*
X018567Y022533D01*
X018585Y022578D01*
X018605Y022622D01*
X018630Y022664D01*
X018658Y022703D01*
X018688Y022740D01*
X018722Y022774D01*
X018759Y022806D01*
X018797Y022835D01*
X018838Y022860D01*
X018881Y022882D01*
X018926Y022900D01*
X018972Y022914D01*
X019019Y022925D01*
X019067Y022932D01*
X019115Y022935D01*
X019163Y022934D01*
X019211Y022929D01*
X019259Y022920D01*
X019305Y022908D01*
X019350Y022891D01*
X019394Y022871D01*
X019436Y022848D01*
X019476Y022821D01*
X019514Y022791D01*
X019549Y022758D01*
X019581Y022722D01*
X019611Y022684D01*
X019637Y022643D01*
X019659Y022600D01*
X019679Y022556D01*
X019694Y022511D01*
X019706Y022464D01*
X019714Y022416D01*
X019718Y022368D01*
X019718Y022320D01*
X019714Y022272D01*
X019706Y022224D01*
X019694Y022177D01*
X019679Y022132D01*
X019659Y022088D01*
X019637Y022045D01*
X019611Y022004D01*
X019581Y021966D01*
X019549Y021930D01*
X019514Y021897D01*
X019476Y021867D01*
X019436Y021840D01*
X019394Y021817D01*
X019350Y021797D01*
X019305Y021780D01*
X019259Y021768D01*
X019211Y021759D01*
X019163Y021754D01*
X019115Y021753D01*
X019067Y021756D01*
X019019Y021763D01*
X018972Y021774D01*
X018926Y021788D01*
X018881Y021806D01*
X018838Y021828D01*
X018797Y021853D01*
X018759Y021882D01*
X018722Y021914D01*
X018688Y021948D01*
X018658Y021985D01*
X018630Y022024D01*
X018605Y022066D01*
X018585Y022110D01*
X018567Y022155D01*
X018554Y022201D01*
X018544Y022248D01*
X018538Y022296D01*
X018536Y022344D01*
X013024Y022344D02*
X013026Y022392D01*
X013032Y022440D01*
X013042Y022487D01*
X013055Y022533D01*
X013073Y022578D01*
X013093Y022622D01*
X013118Y022664D01*
X013146Y022703D01*
X013176Y022740D01*
X013210Y022774D01*
X013247Y022806D01*
X013285Y022835D01*
X013326Y022860D01*
X013369Y022882D01*
X013414Y022900D01*
X013460Y022914D01*
X013507Y022925D01*
X013555Y022932D01*
X013603Y022935D01*
X013651Y022934D01*
X013699Y022929D01*
X013747Y022920D01*
X013793Y022908D01*
X013838Y022891D01*
X013882Y022871D01*
X013924Y022848D01*
X013964Y022821D01*
X014002Y022791D01*
X014037Y022758D01*
X014069Y022722D01*
X014099Y022684D01*
X014125Y022643D01*
X014147Y022600D01*
X014167Y022556D01*
X014182Y022511D01*
X014194Y022464D01*
X014202Y022416D01*
X014206Y022368D01*
X014206Y022320D01*
X014202Y022272D01*
X014194Y022224D01*
X014182Y022177D01*
X014167Y022132D01*
X014147Y022088D01*
X014125Y022045D01*
X014099Y022004D01*
X014069Y021966D01*
X014037Y021930D01*
X014002Y021897D01*
X013964Y021867D01*
X013924Y021840D01*
X013882Y021817D01*
X013838Y021797D01*
X013793Y021780D01*
X013747Y021768D01*
X013699Y021759D01*
X013651Y021754D01*
X013603Y021753D01*
X013555Y021756D01*
X013507Y021763D01*
X013460Y021774D01*
X013414Y021788D01*
X013369Y021806D01*
X013326Y021828D01*
X013285Y021853D01*
X013247Y021882D01*
X013210Y021914D01*
X013176Y021948D01*
X013146Y021985D01*
X013118Y022024D01*
X013093Y022066D01*
X013073Y022110D01*
X013055Y022155D01*
X013042Y022201D01*
X013032Y022248D01*
X013026Y022296D01*
X013024Y022344D01*
X007512Y022344D02*
X007514Y022392D01*
X007520Y022440D01*
X007530Y022487D01*
X007543Y022533D01*
X007561Y022578D01*
X007581Y022622D01*
X007606Y022664D01*
X007634Y022703D01*
X007664Y022740D01*
X007698Y022774D01*
X007735Y022806D01*
X007773Y022835D01*
X007814Y022860D01*
X007857Y022882D01*
X007902Y022900D01*
X007948Y022914D01*
X007995Y022925D01*
X008043Y022932D01*
X008091Y022935D01*
X008139Y022934D01*
X008187Y022929D01*
X008235Y022920D01*
X008281Y022908D01*
X008326Y022891D01*
X008370Y022871D01*
X008412Y022848D01*
X008452Y022821D01*
X008490Y022791D01*
X008525Y022758D01*
X008557Y022722D01*
X008587Y022684D01*
X008613Y022643D01*
X008635Y022600D01*
X008655Y022556D01*
X008670Y022511D01*
X008682Y022464D01*
X008690Y022416D01*
X008694Y022368D01*
X008694Y022320D01*
X008690Y022272D01*
X008682Y022224D01*
X008670Y022177D01*
X008655Y022132D01*
X008635Y022088D01*
X008613Y022045D01*
X008587Y022004D01*
X008557Y021966D01*
X008525Y021930D01*
X008490Y021897D01*
X008452Y021867D01*
X008412Y021840D01*
X008370Y021817D01*
X008326Y021797D01*
X008281Y021780D01*
X008235Y021768D01*
X008187Y021759D01*
X008139Y021754D01*
X008091Y021753D01*
X008043Y021756D01*
X007995Y021763D01*
X007948Y021774D01*
X007902Y021788D01*
X007857Y021806D01*
X007814Y021828D01*
X007773Y021853D01*
X007735Y021882D01*
X007698Y021914D01*
X007664Y021948D01*
X007634Y021985D01*
X007606Y022024D01*
X007581Y022066D01*
X007561Y022110D01*
X007543Y022155D01*
X007530Y022201D01*
X007520Y022248D01*
X007514Y022296D01*
X007512Y022344D01*
X002001Y022344D02*
X002003Y022392D01*
X002009Y022440D01*
X002019Y022487D01*
X002032Y022533D01*
X002050Y022578D01*
X002070Y022622D01*
X002095Y022664D01*
X002123Y022703D01*
X002153Y022740D01*
X002187Y022774D01*
X002224Y022806D01*
X002262Y022835D01*
X002303Y022860D01*
X002346Y022882D01*
X002391Y022900D01*
X002437Y022914D01*
X002484Y022925D01*
X002532Y022932D01*
X002580Y022935D01*
X002628Y022934D01*
X002676Y022929D01*
X002724Y022920D01*
X002770Y022908D01*
X002815Y022891D01*
X002859Y022871D01*
X002901Y022848D01*
X002941Y022821D01*
X002979Y022791D01*
X003014Y022758D01*
X003046Y022722D01*
X003076Y022684D01*
X003102Y022643D01*
X003124Y022600D01*
X003144Y022556D01*
X003159Y022511D01*
X003171Y022464D01*
X003179Y022416D01*
X003183Y022368D01*
X003183Y022320D01*
X003179Y022272D01*
X003171Y022224D01*
X003159Y022177D01*
X003144Y022132D01*
X003124Y022088D01*
X003102Y022045D01*
X003076Y022004D01*
X003046Y021966D01*
X003014Y021930D01*
X002979Y021897D01*
X002941Y021867D01*
X002901Y021840D01*
X002859Y021817D01*
X002815Y021797D01*
X002770Y021780D01*
X002724Y021768D01*
X002676Y021759D01*
X002628Y021754D01*
X002580Y021753D01*
X002532Y021756D01*
X002484Y021763D01*
X002437Y021774D01*
X002391Y021788D01*
X002346Y021806D01*
X002303Y021828D01*
X002262Y021853D01*
X002224Y021882D01*
X002187Y021914D01*
X002153Y021948D01*
X002123Y021985D01*
X002095Y022024D01*
X002070Y022066D01*
X002050Y022110D01*
X002032Y022155D01*
X002019Y022201D01*
X002009Y022248D01*
X002003Y022296D01*
X002001Y022344D01*
X000500Y020448D02*
X000464Y020411D01*
X000432Y020371D01*
X000402Y020329D01*
X000374Y020286D01*
X000350Y020240D01*
X000329Y020193D01*
X000311Y020145D01*
X000296Y020096D01*
X000284Y020046D01*
X000276Y019995D01*
X000271Y019943D01*
X000269Y019892D01*
D11*
X002592Y022344D03*
X008103Y022344D03*
X013615Y022344D03*
X019127Y022344D03*
X024639Y022344D03*
X030151Y022344D03*
X035662Y022344D03*
X035662Y001084D03*
X030151Y001084D03*
X024639Y001084D03*
X019127Y001084D03*
X013615Y001084D03*
X008103Y001084D03*
X002592Y001084D03*
D12*
X004954Y006202D03*
X004954Y006596D03*
X004954Y006990D03*
X004954Y007383D03*
X004954Y007777D03*
X005741Y007777D03*
X005741Y007383D03*
X005741Y006990D03*
X005741Y006596D03*
X005741Y006202D03*
X010466Y006202D03*
X010466Y006596D03*
X010466Y006990D03*
X010466Y007383D03*
X010466Y007777D03*
X011253Y007777D03*
X011253Y007383D03*
X011253Y006990D03*
X011253Y006596D03*
X011253Y006202D03*
X015977Y006202D03*
X015977Y006596D03*
X015977Y006990D03*
X015977Y007383D03*
X015977Y007777D03*
X016765Y007777D03*
X016765Y007383D03*
X016765Y006990D03*
X016765Y006596D03*
X016765Y006202D03*
X021489Y006202D03*
X021489Y006596D03*
X021489Y006990D03*
X021489Y007383D03*
X021489Y007777D03*
X022277Y007777D03*
X022277Y007383D03*
X022277Y006990D03*
X022277Y006596D03*
X022277Y006202D03*
X027001Y006202D03*
X027001Y006596D03*
X027001Y006990D03*
X027001Y007383D03*
X027001Y007777D03*
X027788Y007777D03*
X027788Y007383D03*
X027788Y006990D03*
X027788Y006596D03*
X027788Y006202D03*
X032513Y006202D03*
X032513Y006596D03*
X032513Y006990D03*
X032513Y007383D03*
X032513Y007777D03*
X033300Y007777D03*
X033300Y007383D03*
X033300Y006990D03*
X033300Y006596D03*
X033300Y006202D03*
X033300Y015651D03*
X033300Y016045D03*
X033300Y016439D03*
X033300Y016832D03*
X033300Y017226D03*
X032513Y017226D03*
X032513Y016832D03*
X032513Y016439D03*
X032513Y016045D03*
X032513Y015651D03*
X027788Y015651D03*
X027788Y016045D03*
X027788Y016439D03*
X027788Y016832D03*
X027788Y017226D03*
X027001Y017226D03*
X027001Y016832D03*
X027001Y016439D03*
X027001Y016045D03*
X027001Y015651D03*
X022277Y015651D03*
X022277Y016045D03*
X022277Y016439D03*
X022277Y016832D03*
X022277Y017226D03*
X021489Y017226D03*
X021489Y016832D03*
X021489Y016439D03*
X021489Y016045D03*
X021489Y015651D03*
X016765Y015651D03*
X016765Y016045D03*
X016765Y016439D03*
X016765Y016832D03*
X016765Y017226D03*
X015977Y017226D03*
X015977Y016832D03*
X015977Y016439D03*
X015977Y016045D03*
X015977Y015651D03*
X011253Y015651D03*
X011253Y016045D03*
X011253Y016439D03*
X011253Y016832D03*
X011253Y017226D03*
X010466Y017226D03*
X010466Y016832D03*
X010466Y016439D03*
X010466Y016045D03*
X010466Y015651D03*
X005741Y015651D03*
X005741Y016045D03*
X005741Y016439D03*
X005741Y016832D03*
X005741Y017226D03*
X004954Y017226D03*
X004954Y016832D03*
X004954Y016439D03*
X004954Y016045D03*
X004954Y015651D03*
D13*
G36*
X003425Y020852D02*
X003061Y021216D01*
X003425Y021580D01*
X003789Y021216D01*
X003425Y020852D01*
G37*
G36*
X001394Y021216D02*
X001758Y021580D01*
X002122Y021216D01*
X001758Y020852D01*
X001394Y021216D01*
G37*
G36*
X006906Y021216D02*
X007270Y021580D01*
X007634Y021216D01*
X007270Y020852D01*
X006906Y021216D01*
G37*
G36*
X008937Y020852D02*
X008573Y021216D01*
X008937Y021580D01*
X009301Y021216D01*
X008937Y020852D01*
G37*
G36*
X012418Y021216D02*
X012782Y021580D01*
X013146Y021216D01*
X012782Y020852D01*
X012418Y021216D01*
G37*
G36*
X014448Y020852D02*
X014084Y021216D01*
X014448Y021580D01*
X014812Y021216D01*
X014448Y020852D01*
G37*
G36*
X017930Y021216D02*
X018294Y021580D01*
X018658Y021216D01*
X018294Y020852D01*
X017930Y021216D01*
G37*
G36*
X019960Y020852D02*
X019596Y021216D01*
X019960Y021580D01*
X020324Y021216D01*
X019960Y020852D01*
G37*
G36*
X023442Y021216D02*
X023806Y021580D01*
X024170Y021216D01*
X023806Y020852D01*
X023442Y021216D01*
G37*
G36*
X025472Y020852D02*
X025108Y021216D01*
X025472Y021580D01*
X025836Y021216D01*
X025472Y020852D01*
G37*
G36*
X028954Y021216D02*
X029318Y021580D01*
X029682Y021216D01*
X029318Y020852D01*
X028954Y021216D01*
G37*
G36*
X030984Y020852D02*
X030620Y021216D01*
X030984Y021580D01*
X031348Y021216D01*
X030984Y020852D01*
G37*
G36*
X034465Y021216D02*
X034829Y021580D01*
X035193Y021216D01*
X034829Y020852D01*
X034465Y021216D01*
G37*
G36*
X036496Y020852D02*
X036132Y021216D01*
X036496Y021580D01*
X036860Y021216D01*
X036496Y020852D01*
G37*
G36*
X036860Y002213D02*
X036496Y001849D01*
X036132Y002213D01*
X036496Y002577D01*
X036860Y002213D01*
G37*
G36*
X034829Y002577D02*
X035193Y002213D01*
X034829Y001849D01*
X034465Y002213D01*
X034829Y002577D01*
G37*
G36*
X031348Y002213D02*
X030984Y001849D01*
X030620Y002213D01*
X030984Y002577D01*
X031348Y002213D01*
G37*
G36*
X029318Y002577D02*
X029682Y002213D01*
X029318Y001849D01*
X028954Y002213D01*
X029318Y002577D01*
G37*
G36*
X025836Y002213D02*
X025472Y001849D01*
X025108Y002213D01*
X025472Y002577D01*
X025836Y002213D01*
G37*
G36*
X023806Y002577D02*
X024170Y002213D01*
X023806Y001849D01*
X023442Y002213D01*
X023806Y002577D01*
G37*
G36*
X020324Y002213D02*
X019960Y001849D01*
X019596Y002213D01*
X019960Y002577D01*
X020324Y002213D01*
G37*
G36*
X018294Y002577D02*
X018658Y002213D01*
X018294Y001849D01*
X017930Y002213D01*
X018294Y002577D01*
G37*
G36*
X014812Y002213D02*
X014448Y001849D01*
X014084Y002213D01*
X014448Y002577D01*
X014812Y002213D01*
G37*
G36*
X012782Y002577D02*
X013146Y002213D01*
X012782Y001849D01*
X012418Y002213D01*
X012782Y002577D01*
G37*
G36*
X009301Y002213D02*
X008937Y001849D01*
X008573Y002213D01*
X008937Y002577D01*
X009301Y002213D01*
G37*
G36*
X007270Y002577D02*
X007634Y002213D01*
X007270Y001849D01*
X006906Y002213D01*
X007270Y002577D01*
G37*
G36*
X003789Y002213D02*
X003425Y001849D01*
X003061Y002213D01*
X003425Y002577D01*
X003789Y002213D01*
G37*
G36*
X001758Y002577D02*
X002122Y002213D01*
X001758Y001849D01*
X001394Y002213D01*
X001758Y002577D01*
G37*
D14*
X001063Y002909D03*
X001804Y003053D03*
X003379Y003053D03*
X004121Y002909D03*
X006574Y002909D03*
X007316Y003053D03*
X008891Y003053D03*
X009633Y002909D03*
X012086Y002909D03*
X012828Y003053D03*
X014403Y003053D03*
X015144Y002909D03*
X017598Y002909D03*
X018340Y003053D03*
X019914Y003053D03*
X020656Y002909D03*
X023110Y002909D03*
X023851Y003053D03*
X025426Y003053D03*
X026168Y002909D03*
X028622Y002909D03*
X029363Y003053D03*
X030938Y003053D03*
X031680Y002909D03*
X034133Y002909D03*
X034875Y003053D03*
X036450Y003053D03*
X037192Y002909D03*
X036450Y020376D03*
X037192Y020520D03*
X034875Y020376D03*
X034133Y020520D03*
X031680Y020520D03*
X030938Y020376D03*
X029363Y020376D03*
X028622Y020520D03*
X026168Y020520D03*
X025426Y020376D03*
X023851Y020376D03*
X023110Y020520D03*
X020656Y020520D03*
X019914Y020376D03*
X018340Y020376D03*
X017598Y020520D03*
X015144Y020520D03*
X014403Y020376D03*
X012828Y020376D03*
X012086Y020520D03*
X009633Y020520D03*
X008891Y020376D03*
X007316Y020376D03*
X006574Y020520D03*
X004121Y020520D03*
X003379Y020376D03*
X001804Y020376D03*
X001063Y020520D03*
D15*
X000761Y019096D03*
X000761Y018112D03*
X004422Y017128D03*
X004422Y016143D03*
X006273Y015159D03*
X006273Y014175D03*
X004422Y013191D03*
X004422Y012206D03*
X006273Y011222D03*
X006273Y010238D03*
X004422Y009254D03*
X004422Y008269D03*
X006273Y007285D03*
X006273Y006301D03*
X004422Y005317D03*
X004422Y004332D03*
X000761Y006301D03*
X000761Y007285D03*
X000761Y010238D03*
X000761Y011222D03*
X000761Y014175D03*
X000761Y015159D03*
X006273Y018112D03*
X006273Y019096D03*
X009934Y017128D03*
X011785Y018112D03*
X011785Y019096D03*
X015446Y017128D03*
X015446Y016143D03*
X017296Y015159D03*
X017296Y014175D03*
X015446Y013191D03*
X015446Y012206D03*
X017296Y011222D03*
X017296Y010238D03*
X015446Y009254D03*
X015446Y008269D03*
X017296Y007285D03*
X017296Y006301D03*
X015446Y005317D03*
X015446Y004332D03*
X011785Y006301D03*
X009934Y005317D03*
X009934Y004332D03*
X011785Y007285D03*
X009934Y008269D03*
X009934Y009254D03*
X011785Y010238D03*
X011785Y011222D03*
X009934Y012206D03*
X009934Y013191D03*
X011785Y014175D03*
X011785Y015159D03*
X009934Y016143D03*
X017296Y018112D03*
X017296Y019096D03*
X020958Y017128D03*
X020958Y016143D03*
X022808Y015159D03*
X022808Y014175D03*
X020958Y013191D03*
X020958Y012206D03*
X022808Y011222D03*
X022808Y010238D03*
X020958Y009254D03*
X020958Y008269D03*
X022808Y007285D03*
X022808Y006301D03*
X020958Y005317D03*
X020958Y004332D03*
X026470Y004332D03*
X026470Y005317D03*
X028320Y006301D03*
X028320Y007285D03*
X026470Y008269D03*
X026470Y009254D03*
X028320Y010238D03*
X028320Y011222D03*
X026470Y012206D03*
X026470Y013191D03*
X028320Y014175D03*
X028320Y015159D03*
X026470Y016143D03*
X026470Y017128D03*
X028320Y018112D03*
X028320Y019096D03*
X031981Y017128D03*
X031981Y016143D03*
X033832Y015159D03*
X033832Y014175D03*
X031981Y013191D03*
X031981Y012206D03*
X033832Y011222D03*
X033832Y010238D03*
X031981Y009254D03*
X031981Y008269D03*
X033832Y007285D03*
X033832Y006301D03*
X031981Y005317D03*
X031981Y004332D03*
X037493Y004332D03*
X037493Y005317D03*
X037493Y008269D03*
X037493Y009254D03*
X037493Y012206D03*
X037493Y013191D03*
X037493Y016143D03*
X037493Y017128D03*
X033832Y018112D03*
X033832Y019096D03*
X022808Y019096D03*
X022808Y018112D03*
M02*
