%
M48
M72
T01C0.0138
T02C0.0197
T03C0.0276
T04C0.1181
%
T01
X623Y19785
X781Y3368
X505Y17620
X505Y13683
X505Y9746
X505Y5809
X505Y4431
X4599Y19194
X4599Y17620
X4599Y9746
X4599Y13683
X4599Y5809
X977Y18604
X977Y14667
X977Y10730
X977Y6793
X4285Y16635
X4285Y12698
X4285Y8761
X4285Y4844
X6135Y19785
X6292Y3368
X6017Y17620
X6017Y13683
X6017Y9746
X6017Y5809
X6017Y4431
X10111Y19194
X10111Y17620
X10111Y9746
X10111Y13683
X10111Y5809
X6489Y18604
X6489Y14667
X6489Y10730
X6489Y6793
X9796Y16635
X9796Y12698
X9796Y8761
X9796Y4844
X11647Y19785
X11804Y3368
X11529Y17620
X11529Y13683
X11529Y9746
X11529Y5809
X11529Y4431
X15623Y19194
X15623Y17620
X15623Y9746
X15623Y13683
X15623Y5809
X12001Y18604
X12001Y14667
X12001Y10730
X12001Y6793
X15308Y16635
X15308Y12698
X15308Y8761
X15308Y4844
X17159Y19785
X17316Y3368
X17040Y17620
X17040Y13683
X17040Y9746
X17040Y5809
X17040Y4431
X21135Y19194
X21135Y17620
X21135Y9746
X21135Y13683
X21135Y5809
X17513Y18604
X17513Y14667
X17513Y10730
X17513Y6793
X20820Y16635
X20820Y12698
X20820Y8761
X20820Y4844
X22670Y19785
X22828Y3368
X22552Y17620
X22552Y13683
X22552Y9746
X22552Y5809
X22552Y4431
X26647Y19194
X26647Y17620
X26647Y9746
X26647Y13683
X26647Y5809
X23025Y18604
X23025Y14667
X23025Y10730
X23025Y6793
X26332Y16635
X26332Y12698
X26332Y8761
X26332Y4844
X28182Y19785
X28340Y3368
X28064Y17620
X28064Y13683
X28064Y9746
X28064Y5809
X28064Y4431
X32159Y19194
X32159Y17620
X32159Y9746
X32159Y13683
X32159Y5809
X28536Y18604
X28536Y14667
X28536Y10730
X28536Y6793
X31844Y16635
X31844Y12698
X31844Y8761
X31844Y4844
X33694Y19785
X33851Y3368
X33576Y17620
X33576Y13683
X33576Y9746
X33576Y5809
X33576Y4431
X37670Y19194
X37670Y17620
X37670Y9746
X37670Y13683
X37670Y5809
X34048Y18604
X34048Y14667
X34048Y10730
X34048Y6793
X37355Y16635
X37355Y12698
X37355Y8761
X37355Y4844
T02
X4954Y6202
X4954Y6596
X4954Y6990
X4954Y7383
X4954Y7777
X5741Y6202
X5741Y6596
X5741Y6990
X5741Y7383
X5741Y7777
X4954Y15651
X4954Y16045
X4954Y16439
X4954Y16832
X4954Y17226
X5741Y15651
X5741Y16045
X5741Y16439
X5741Y16832
X5741Y17226
X10466Y6202
X10466Y6596
X10466Y6990
X10466Y7383
X10466Y7777
X11253Y6202
X11253Y6596
X11253Y6990
X11253Y7383
X11253Y7777
X10466Y15651
X10466Y16045
X10466Y16439
X10466Y16832
X10466Y17226
X11253Y15651
X11253Y16045
X11253Y16439
X11253Y16832
X11253Y17226
X15977Y6202
X15977Y6596
X15977Y6990
X15977Y7383
X15977Y7777
X16765Y6202
X16765Y6596
X16765Y6990
X16765Y7383
X16765Y7777
X15977Y15651
X15977Y16045
X15977Y16439
X15977Y16832
X15977Y17226
X16765Y15651
X16765Y16045
X16765Y16439
X16765Y16832
X16765Y17226
X21489Y6202
X21489Y6596
X21489Y6990
X21489Y7383
X21489Y7777
X22277Y6202
X22277Y6596
X22277Y6990
X22277Y7383
X22277Y7777
X21489Y15651
X21489Y16045
X21489Y16439
X21489Y16832
X21489Y17226
X22277Y15651
X22277Y16045
X22277Y16439
X22277Y16832
X22277Y17226
X27001Y6202
X27001Y6596
X27001Y6990
X27001Y7383
X27001Y7777
X27788Y6202
X27788Y6596
X27788Y6990
X27788Y7383
X27788Y7777
X27001Y15651
X27001Y16045
X27001Y16439
X27001Y16832
X27001Y17226
X27788Y15651
X27788Y16045
X27788Y16439
X27788Y16832
X27788Y17226
X32513Y6202
X32513Y6596
X32513Y6990
X32513Y7383
X32513Y7777
X33300Y6202
X33300Y6596
X33300Y6990
X33300Y7383
X33300Y7777
X32513Y15651
X32513Y16045
X32513Y16439
X32513Y16832
X32513Y17226
X33300Y15651
X33300Y16045
X33300Y16439
X33300Y16832
X33300Y17226
T03
X1758Y2213
X1063Y2909
X3425Y2213
X4121Y2909
X1758Y21216
X1063Y20520
X3425Y21216
X4121Y20520
X3379Y3053
X1804Y3053
X1804Y20376
X3379Y20376
X7270Y2213
X6574Y2909
X8937Y2213
X9633Y2909
X7270Y21216
X6574Y20520
X8937Y21216
X9633Y20520
X8891Y3053
X7316Y3053
X7316Y20376
X8891Y20376
X12782Y2213
X12086Y2909
X14448Y2213
X15144Y2909
X12782Y21216
X12086Y20520
X14448Y21216
X15144Y20520
X14403Y3053
X12828Y3053
X12828Y20376
X14403Y20376
X18294Y2213
X17598Y2909
X19960Y2213
X20656Y2909
X18294Y21216
X17598Y20520
X19960Y21216
X20656Y20520
X19914Y3053
X18340Y3053
X18340Y20376
X19914Y20376
X23806Y2213
X23110Y2909
X25472Y2213
X26168Y2909
X23806Y21216
X23110Y20520
X25472Y21216
X26168Y20520
X25426Y3053
X23851Y3053
X23851Y20376
X25426Y20376
X29318Y2213
X28622Y2909
X30984Y2213
X31680Y2909
X29318Y21216
X28622Y20520
X30984Y21216
X31680Y20520
X30938Y3053
X29363Y3053
X29363Y20376
X30938Y20376
X34829Y2213
X34133Y2909
X36496Y2213
X37192Y2909
X34829Y21216
X34133Y20520
X36496Y21216
X37192Y20520
X36450Y3053
X34875Y3053
X34875Y20376
X36450Y20376
T04
X2592Y1084
X2592Y22344
X8103Y1084
X8103Y22344
X13615Y1084
X13615Y22344
X19127Y1084
X19127Y22344
X24639Y1084
X24639Y22344
X30151Y1084
X30151Y22344
X35662Y1084
X35662Y22344
M30
